<svg width="156" height="36" viewBox="0 0 156 36" fill="none" xmlns="http://www.w3.org/2000/svg">
<path d="M27.0005 12C27.7961 12 28.5592 11.6839 29.1218 11.1213C29.6844 10.5587 30.0005 9.79565 30.0005 9C30.0005 8.20435 29.6844 7.44129 29.1218 6.87868C28.5592 6.31607 27.7961 6 27.0005 6C27.0005 5.20435 26.6844 4.44129 26.1218 3.87868C25.5592 3.31607 24.7961 3 24.0005 3C23.2048 3 22.4418 3.31607 21.8792 3.87868C21.3166 4.44129 21.0005 5.20435 21.0005 6C21.0005 5.20435 20.6844 4.44129 20.1218 3.87868C19.5592 3.31607 18.7961 3 18.0005 3C17.2048 3 16.4418 3.31607 15.8792 3.87868C15.3166 4.44129 15.0005 5.20435 15.0005 6C15.0005 5.20435 14.6844 4.44129 14.1218 3.87868C13.5592 3.31607 12.7961 3 12.0005 3C11.2048 3 10.4418 3.31607 9.87916 3.87868C9.31655 4.44129 9.00048 5.20435 9.00048 6C8.20483 6 7.44177 6.31607 6.87916 6.87868C6.31655 7.44129 6.00048 8.20435 6.00048 9C6.00048 9.79565 6.31655 10.5587 6.87916 11.1213C7.44177 11.6839 8.20483 12 9.00048 12M15.0005 33L13.5005 12M21.0005 33L22.5005 12M30.0005 12C30.7505 12 31.3505 12.6 31.2005 13.5L27.3005 31.5C27.1505 32.25 26.2505 33 25.5005 33H10.5005C9.60048 33 8.85048 32.4 8.70048 31.5L4.80048 13.5C4.65048 12.6 5.25048 12 6.00048 12H30.0005Z" stroke="#FF7F50" stroke-width="2" stroke-linecap="round" stroke-linejoin="round"/>
<path d="M53.112 16.996H62.156V21.28H53.112V16.996ZM53.504 28H47.96V8.4H63.332V12.684H53.504V28ZM73.2967 28.252C71.5047 28.252 69.9367 27.916 68.5927 27.244C67.2674 26.5533 66.2314 25.62 65.4847 24.444C64.7567 23.2493 64.3927 21.896 64.3927 20.384C64.3927 18.872 64.7474 17.528 65.4567 16.352C66.1847 15.1573 67.1834 14.2333 68.4527 13.58C69.7221 12.908 71.1501 12.572 72.7367 12.572C74.2301 12.572 75.5927 12.88 76.8247 13.496C78.0567 14.0933 79.0367 14.98 79.7647 16.156C80.4927 17.332 80.8567 18.76 80.8567 20.44C80.8567 20.6267 80.8474 20.8413 80.8287 21.084C80.8101 21.3267 80.7914 21.5507 80.7727 21.756H68.7607V18.956H77.9447L75.9287 19.74C75.9474 19.0493 75.8167 18.452 75.5367 17.948C75.2754 17.444 74.9021 17.052 74.4167 16.772C73.9501 16.492 73.3994 16.352 72.7647 16.352C72.1301 16.352 71.5701 16.492 71.0847 16.772C70.6181 17.052 70.2541 17.4533 69.9927 17.976C69.7314 18.48 69.6007 19.0773 69.6007 19.768V20.58C69.6007 21.3267 69.7501 21.9707 70.0487 22.512C70.3661 23.0533 70.8141 23.4733 71.3927 23.772C71.9714 24.052 72.6621 24.192 73.4647 24.192C74.2114 24.192 74.8461 24.0893 75.3687 23.884C75.9101 23.66 76.4421 23.324 76.9647 22.876L79.7647 25.788C79.0367 26.5907 78.1407 27.2067 77.0767 27.636C76.0127 28.0467 74.7527 28.252 73.2967 28.252ZM91.2616 28.252C89.4696 28.252 87.9016 27.916 86.5576 27.244C85.2322 26.5533 84.1962 25.62 83.4496 24.444C82.7216 23.2493 82.3576 21.896 82.3576 20.384C82.3576 18.872 82.7122 17.528 83.4216 16.352C84.1496 15.1573 85.1482 14.2333 86.4176 13.58C87.6869 12.908 89.1149 12.572 90.7016 12.572C92.1949 12.572 93.5576 12.88 94.7896 13.496C96.0216 14.0933 97.0016 14.98 97.7296 16.156C98.4576 17.332 98.8216 18.76 98.8216 20.44C98.8216 20.6267 98.8122 20.8413 98.7936 21.084C98.7749 21.3267 98.7562 21.5507 98.7376 21.756H86.7256V18.956H95.9096L93.8936 19.74C93.9122 19.0493 93.7816 18.452 93.5016 17.948C93.2402 17.444 92.8669 17.052 92.3816 16.772C91.9149 16.492 91.3642 16.352 90.7296 16.352C90.0949 16.352 89.5349 16.492 89.0496 16.772C88.5829 17.052 88.2189 17.4533 87.9576 17.976C87.6962 18.48 87.5656 19.0773 87.5656 19.768V20.58C87.5656 21.3267 87.7149 21.9707 88.0136 22.512C88.3309 23.0533 88.7789 23.4733 89.3576 23.772C89.9362 24.052 90.6269 24.192 91.4296 24.192C92.1762 24.192 92.8109 24.0893 93.3336 23.884C93.8749 23.66 94.4069 23.324 94.9296 22.876L97.7296 25.788C97.0016 26.5907 96.1056 27.2067 95.0416 27.636C93.9776 28.0467 92.7176 28.252 91.2616 28.252ZM101.274 28V7.224H106.594V28H101.274Z" fill="white"/>
<path d="M124.808 28.252C123.427 28.252 122.167 27.9347 121.028 27.3C119.908 26.6467 119.012 25.7413 118.34 24.584C117.668 23.408 117.332 22.008 117.332 20.384C117.332 18.7787 117.668 17.3973 118.34 16.24C119.012 15.064 119.908 14.1587 121.028 13.524C122.167 12.8893 123.427 12.572 124.808 12.572C126.115 12.572 127.216 12.852 128.112 13.412C129.027 13.972 129.718 14.8307 130.184 15.988C130.651 17.1453 130.884 18.6107 130.884 20.384C130.884 22.1947 130.66 23.6787 130.212 24.836C129.764 25.9933 129.092 26.852 128.196 27.412C127.3 27.972 126.171 28.252 124.808 28.252ZM125.928 24.024C126.526 24.024 127.058 23.884 127.524 23.604C128.01 23.324 128.392 22.9133 128.672 22.372C128.952 21.812 129.092 21.1493 129.092 20.384C129.092 19.6187 128.952 18.9747 128.672 18.452C128.392 17.9107 128.01 17.5 127.524 17.22C127.058 16.94 126.526 16.8 125.928 16.8C125.312 16.8 124.762 16.94 124.276 17.22C123.81 17.5 123.436 17.9107 123.156 18.452C122.876 18.9747 122.736 19.6187 122.736 20.384C122.736 21.1493 122.876 21.812 123.156 22.372C123.436 22.9133 123.81 23.324 124.276 23.604C124.762 23.884 125.312 24.024 125.928 24.024ZM129.26 28V25.396L129.288 20.384L129.008 15.372V7.224H134.328V28H129.26ZM147.299 28.252C145.936 28.252 144.798 27.972 143.883 27.412C142.987 26.852 142.315 25.9933 141.867 24.836C141.419 23.6787 141.195 22.1947 141.195 20.384C141.195 18.6107 141.428 17.1453 141.895 15.988C142.38 14.8307 143.08 13.972 143.995 13.412C144.91 12.852 146.011 12.572 147.299 12.572C148.68 12.572 149.931 12.8893 151.051 13.524C152.19 14.1587 153.086 15.064 153.739 16.24C154.411 17.3973 154.747 18.7787 154.747 20.384C154.747 22.008 154.411 23.408 153.739 24.584C153.086 25.7413 152.19 26.6467 151.051 27.3C149.931 27.9347 148.68 28.252 147.299 28.252ZM137.751 28V7.224H143.071V15.372L142.791 20.384L142.819 25.396V28H137.751ZM146.179 24.024C146.776 24.024 147.308 23.884 147.775 23.604C148.26 23.324 148.643 22.9133 148.923 22.372C149.222 21.812 149.371 21.1493 149.371 20.384C149.371 19.6187 149.222 18.9747 148.923 18.452C148.643 17.9107 148.26 17.5 147.775 17.22C147.308 16.94 146.776 16.8 146.179 16.8C145.582 16.8 145.04 16.94 144.555 17.22C144.088 17.5 143.706 17.9107 143.407 18.452C143.127 18.9747 142.987 19.6187 142.987 20.384C142.987 21.1493 143.127 21.812 143.407 22.372C143.706 22.9133 144.088 23.324 144.555 23.604C145.04 23.884 145.582 24.024 146.179 24.024Z" fill="#FF7F50"/>
</svg>
