<svg width="30" height="32" viewBox="0 0 30 32" fill="none" xmlns="http://www.w3.org/2000/svg">
<path d="M24.0005 10C24.7961 10 25.5592 9.68393 26.1218 9.12132C26.6844 8.55871 27.0005 7.79565 27.0005 7C27.0005 6.20435 26.6844 5.44129 26.1218 4.87868C25.5592 4.31607 24.7961 4 24.0005 4C24.0005 3.20435 23.6844 2.44129 23.1218 1.87868C22.5592 1.31607 21.7961 1 21.0005 1C20.2048 1 19.4418 1.31607 18.8792 1.87868C18.3166 2.44129 18.0005 3.20435 18.0005 4C18.0005 3.20435 17.6844 2.44129 17.1218 1.87868C16.5592 1.31607 15.7961 1 15.0005 1C14.2048 1 13.4418 1.31607 12.8792 1.87868C12.3166 2.44129 12.0005 3.20435 12.0005 4C12.0005 3.20435 11.6844 2.44129 11.1218 1.87868C10.5592 1.31607 9.79613 1 9.00048 1C8.20483 1 7.44177 1.31607 6.87916 1.87868C6.31655 2.44129 6.00048 3.20435 6.00048 4C5.20483 4 4.44177 4.31607 3.87916 4.87868C3.31655 5.44129 3.00048 6.20435 3.00048 7C3.00048 7.79565 3.31655 8.55871 3.87916 9.12132C4.44177 9.68393 5.20483 10 6.00048 10M12.0005 31L10.5005 10M18.0005 31L19.5005 10M27.0005 10C27.7505 10 28.3505 10.6 28.2005 11.5L24.3005 29.5C24.1505 30.25 23.2505 31 22.5005 31H7.50048C6.60048 31 5.85048 30.4 5.70048 29.5L1.80048 11.5C1.65048 10.6 2.25048 10 3.00048 10H27.0005Z" stroke="#FF7F50" stroke-width="2" stroke-linecap="round" stroke-linejoin="round"/>
</svg>
