<svg width="247" height="246" viewBox="0 0 247 246" fill="none" xmlns="http://www.w3.org/2000/svg">
<g clip-path="url(#clip0_2_1158)">
<g filter="url(#filter0_iii_2_1158)">
<path d="M0.5 115C0.5 51.4872 51.9873 0 115.5 0H127.5C193.222 0 246.5 53.2781 246.5 119V127C246.5 192.722 193.222 246 127.5 246H123.5C55.569 246 0.5 190.931 0.5 123V115Z" fill="url(#paint0_radial_2_1158)"/>
</g>
<g filter="url(#filter1_d_2_1158)">
<g filter="url(#filter2_i_2_1158)">
<circle cx="35.5" cy="35.5" r="35.5" transform="matrix(1 0 0 -1 44.5 141)" fill="#FAFAFA"/>
</g>
<g filter="url(#filter3_i_2_1158)">
<rect width="37.7471" height="37.7471" rx="18.8736" transform="matrix(1 0 0 -1 61.117 124.383)" fill="#2C2F36"/>
</g>
</g>
<g filter="url(#filter4_d_2_1158)">
<g filter="url(#filter5_i_2_1158)">
<circle cx="35.5" cy="35.5" r="35.5" transform="matrix(1 0 0 -1 130.5 141)" fill="#FAFAFA"/>
</g>
<g filter="url(#filter6_i_2_1158)">
<rect width="37.7471" height="37.7471" rx="18.8736" transform="matrix(1 0 0 -1 147.117 124.383)" fill="#2C2F36"/>
</g>
</g>
<g filter="url(#filter7_dii_2_1158)">
<path d="M128.514 79.5074C125.342 77.6495 124.245 73.5381 126.507 70.641C129.168 67.2336 132.265 64.1783 135.726 61.5568C140.96 57.5925 146.924 54.6978 153.277 53.0383C159.63 51.3787 166.248 50.9867 172.752 51.8846C177.053 52.4783 181.249 53.6284 185.236 55.2991C188.627 56.7195 189.68 60.8426 187.822 64.0144C185.964 67.1861 181.897 68.1864 178.442 66.9313C176.017 66.0502 173.5 65.4254 170.932 65.0708C166.159 64.412 161.303 64.6996 156.642 65.9174C151.98 67.1351 147.604 69.2591 143.763 72.1681C141.696 73.7334 139.807 75.5095 138.122 77.4641C135.723 80.2486 131.686 81.3653 128.514 79.5074Z" fill="url(#paint1_linear_2_1158)"/>
</g>
<g filter="url(#filter8_dii_2_1158)">
<path d="M117.315 79.5074C120.487 77.6495 121.585 73.5381 119.323 70.641C116.662 67.2336 113.565 64.1783 110.103 61.5568C104.869 57.5925 98.9053 54.6978 92.5524 53.0383C86.1995 51.3787 79.5819 50.9867 73.0775 51.8846C68.7764 52.4783 64.5805 53.6284 60.5932 55.2991C57.2029 56.7195 56.1496 60.8426 58.0075 64.0144C59.8654 67.1861 63.9324 68.1864 67.3873 66.9313C69.8124 66.0502 72.3296 65.4254 74.8978 65.0708C79.6706 64.412 84.5264 64.6996 89.188 65.9174C93.8496 67.1351 98.2257 69.2591 102.066 72.1681C104.133 73.7334 106.023 75.5095 107.707 77.4641C110.107 80.2486 114.144 81.3653 117.315 79.5074Z" fill="url(#paint2_linear_2_1158)"/>
</g>
<g filter="url(#filter9_ii_2_1158)">
<rect x="21.5" y="147" width="205" height="70" rx="9.5" fill="url(#paint3_linear_2_1158)"/>
</g>
<g filter="url(#filter10_i_2_1158)">
<path d="M71.2367 211.188C66.0746 211.188 61.5866 210.148 57.7728 208.067C53.959 206.026 51.012 203.156 48.9317 199.457C46.89 195.759 45.8691 191.502 45.8691 186.687C45.8691 181.332 46.9478 176.709 49.1051 172.819C51.3009 168.928 54.325 165.961 58.1773 163.92C62.0297 161.878 66.4021 160.857 71.2945 160.857C76.3411 160.857 80.6749 161.801 84.2961 163.689C87.9173 165.576 90.6717 168.157 92.5594 171.432C94.447 174.668 95.3909 178.308 95.3909 182.353C95.3909 185.705 94.8708 188.594 93.8307 191.021C92.829 193.409 91.423 195.239 89.6124 196.51C87.8018 197.743 85.7408 198.36 83.4294 198.36C81.3876 198.36 79.7311 197.917 78.4599 197.03C77.2086 196.158 76.4238 195.006 76.1055 193.574C76.0967 193.534 76.0614 193.506 76.0205 193.506C75.9921 193.506 75.9654 193.52 75.9492 193.543C74.9155 195.028 73.7491 196.21 72.4502 197.088C71.179 197.936 69.561 198.36 67.5963 198.36C64.7456 198.36 62.5112 197.416 60.8932 195.528C59.3138 193.602 58.524 191.059 58.524 187.9C58.524 185.165 59.0441 182.681 60.0842 180.446C61.1244 178.173 62.5497 176.382 64.3603 175.072C66.2094 173.762 68.309 173.108 70.6589 173.108C72.2383 173.108 73.6252 173.435 74.8194 174.09C75.9903 174.732 76.8279 175.633 77.3322 176.794C77.3505 176.836 77.3918 176.864 77.4376 176.864C77.4938 176.864 77.5416 176.823 77.5501 176.767L77.6509 176.112C77.7664 175.342 78.0939 174.764 78.6332 174.379C79.2111 173.955 79.943 173.743 80.829 173.743C81.7151 173.743 82.4085 173.994 82.9093 174.494C83.4101 174.995 83.6605 175.689 83.6605 176.575C83.6605 176.96 83.6412 177.249 83.6027 177.441L81.8692 187.265C81.6766 188.421 81.5802 189.326 81.5802 189.981C81.5802 191.098 81.8114 191.945 82.2737 192.523C82.7359 193.101 83.4871 193.39 84.5273 193.39C85.2977 193.39 86.0682 193.024 86.8387 192.292C87.6091 191.56 88.2448 190.366 88.7456 188.709C89.2849 187.053 89.5546 184.934 89.5546 182.353C89.5546 179.117 88.8612 176.286 87.4743 173.859C86.0875 171.432 84.0265 169.544 81.2913 168.196C78.5562 166.847 75.2239 166.173 71.2945 166.173C67.5963 166.173 64.3025 166.982 61.4133 168.6C58.524 170.18 56.2512 172.53 54.5947 175.65C52.9382 178.732 52.1099 182.411 52.1099 186.687C52.1099 190.539 52.8611 193.91 54.3635 196.799C55.9045 199.689 58.1003 201.923 60.951 203.502C63.8403 205.082 67.2688 205.872 71.2367 205.872C73.7408 205.872 75.8981 205.602 77.7087 205.063C79.5578 204.562 81.3491 203.753 83.0827 202.636C83.699 202.25 84.2769 202.058 84.8162 202.058C85.5867 202.058 86.2223 202.327 86.7231 202.867C87.2624 203.406 87.5321 204.042 87.5321 204.774C87.5321 205.737 87.0698 206.546 86.1453 207.201C84.6043 208.318 82.5241 209.262 79.9045 210.032C77.2849 210.803 74.3956 211.188 71.2367 211.188ZM68.9831 193.39C70.5241 193.39 71.8338 192.928 72.9125 192.003C74.0297 191.04 74.8579 189.807 75.3973 188.305C75.9751 186.764 76.264 185.146 76.264 183.451C76.264 181.679 75.8595 180.35 75.0505 179.464C74.2801 178.578 73.1822 178.135 71.7568 178.135C70.3314 178.135 69.0987 178.616 68.0586 179.579C67.0184 180.543 66.2287 181.775 65.6894 183.278C65.1501 184.78 64.8804 186.321 64.8804 187.9C64.8804 189.557 65.2464 190.886 65.9783 191.888C66.7103 192.889 67.7119 193.39 68.9831 193.39Z" fill="white"/>
<path d="M105.298 189.403C104.605 189.403 104.008 189.172 103.507 188.709C103.045 188.247 102.756 187.573 102.64 186.687L100.098 166.462C100.059 166.27 100.04 166 100.04 165.653C100.04 164.228 100.541 163.091 101.542 162.244C102.544 161.396 103.796 160.973 105.298 160.973C106.955 160.973 108.284 161.473 109.285 162.475C110.326 163.477 110.73 164.825 110.499 166.52L107.899 186.687C107.822 187.573 107.533 188.247 107.032 188.709C106.57 189.172 105.992 189.403 105.298 189.403ZM105.298 202.347C103.873 202.347 102.698 201.884 101.773 200.96C100.849 199.997 100.387 198.803 100.387 197.377C100.387 195.952 100.849 194.777 101.773 193.852C102.698 192.889 103.873 192.408 105.298 192.408C106.724 192.408 107.899 192.889 108.823 193.852C109.748 194.777 110.21 195.952 110.21 197.377C110.21 198.803 109.748 199.997 108.823 200.96C107.899 201.884 106.724 202.347 105.298 202.347Z" fill="white"/>
<path d="M132.964 200.902C132.078 202.366 130.98 203.098 129.67 203.098C128.861 203.098 128.148 202.79 127.532 202.173C126.954 201.595 126.665 200.864 126.665 199.978C126.665 199.246 126.896 198.475 127.359 197.666L147.814 162.36C148.623 160.896 149.702 160.164 151.05 160.164C151.898 160.164 152.611 160.472 153.188 161.088C153.805 161.666 154.113 162.398 154.113 163.284C154.113 164.016 153.882 164.786 153.42 165.595L132.964 200.902ZM125.452 185.531C122.139 185.531 119.538 184.472 117.651 182.353C115.802 180.196 114.877 177.075 114.877 172.992C114.877 169.024 115.821 165.981 117.708 163.862C119.596 161.705 122.177 160.626 125.452 160.626C128.765 160.626 131.346 161.705 133.195 163.862C135.082 165.981 136.026 169.043 136.026 173.05C136.026 177.133 135.082 180.234 133.195 182.353C131.346 184.472 128.765 185.531 125.452 185.531ZM125.452 180.099C126.646 180.099 127.513 179.56 128.052 178.482C128.591 177.403 128.861 175.592 128.861 173.05C128.861 170.623 128.572 168.87 127.994 167.791C127.455 166.674 126.607 166.116 125.452 166.116C124.296 166.116 123.448 166.655 122.909 167.734C122.37 168.812 122.1 170.584 122.1 173.05C122.1 175.554 122.37 177.364 122.909 178.482C123.448 179.56 124.296 180.099 125.452 180.099ZM155.269 202.404C151.956 202.404 149.355 201.345 147.468 199.226C145.619 197.069 144.694 193.949 144.694 189.865C144.694 185.859 145.619 182.796 147.468 180.677C149.355 178.559 151.956 177.499 155.269 177.499C158.543 177.499 161.124 178.578 163.012 180.735C164.9 182.854 165.843 185.917 165.843 189.923C165.843 193.968 164.9 197.069 163.012 199.226C161.163 201.345 158.582 202.404 155.269 202.404ZM155.269 196.973C156.463 196.973 157.33 196.433 157.869 195.355C158.408 194.276 158.678 192.465 158.678 189.923C158.678 187.457 158.389 185.685 157.811 184.607C157.272 183.49 156.424 182.931 155.269 182.931C154.113 182.931 153.246 183.49 152.668 184.607C152.129 185.685 151.859 187.457 151.859 189.923C151.859 192.465 152.129 194.276 152.668 195.355C153.208 196.433 154.074 196.973 155.269 196.973Z" fill="white"/>
<path d="M201.156 190.154C201.156 193.274 200.077 195.913 197.92 198.071C196.467 199.524 194.66 200.624 192.5 201.37C190.703 201.991 189.31 203.565 189.31 205.467C189.31 206.507 188.982 207.335 188.328 207.952C187.711 208.607 186.883 208.934 185.843 208.934C184.841 208.934 184.013 208.607 183.358 207.952C182.703 207.335 182.376 206.507 182.376 205.467C182.376 203.7 181.021 202.249 179.292 201.881C178.244 201.658 177.211 201.37 176.193 201.018C174.228 200.324 172.494 199.438 170.992 198.36C170.376 197.974 169.933 197.551 169.663 197.088C169.432 196.587 169.316 195.971 169.316 195.239C169.316 194.276 169.605 193.429 170.183 192.697C170.799 191.965 171.493 191.599 172.263 191.599C172.995 191.599 173.901 191.907 174.979 192.523C176.751 193.563 178.427 194.334 180.007 194.835C181.624 195.297 183.3 195.528 185.034 195.528C187.345 195.528 189.117 195.104 190.35 194.257C191.583 193.371 192.199 192.138 192.199 190.559C192.199 189.595 191.833 188.806 191.101 188.189C190.408 187.573 189.541 187.091 188.501 186.745C187.461 186.398 185.958 185.955 183.994 185.416C181.143 184.684 178.793 183.952 176.944 183.22C175.095 182.488 173.496 181.332 172.148 179.753C170.838 178.173 170.183 176.055 170.183 173.396C170.183 170.276 171.281 167.599 173.477 165.364C175.007 163.834 176.854 162.683 179.017 161.912C180.81 161.272 182.202 159.698 182.202 157.794C182.202 156.754 182.53 155.926 183.185 155.31C183.84 154.655 184.668 154.327 185.669 154.327C186.71 154.327 187.538 154.655 188.154 155.31C188.809 155.926 189.137 156.754 189.137 157.794C189.137 159.614 190.497 161.119 192.243 161.63C194.565 162.311 196.785 163.401 198.902 164.902C199.48 165.287 199.885 165.73 200.116 166.231C200.385 166.732 200.52 167.329 200.52 168.022C200.52 168.986 200.212 169.833 199.596 170.565C199.018 171.297 198.344 171.663 197.573 171.663C197.149 171.663 196.745 171.605 196.36 171.49C196.013 171.374 195.512 171.124 194.857 170.738C193.278 169.737 191.852 168.986 190.581 168.485C189.348 167.984 187.827 167.734 186.016 167.734C183.936 167.734 182.26 168.196 180.989 169.12C179.756 170.045 179.14 171.278 179.14 172.819C179.14 173.897 179.506 174.783 180.238 175.477C180.97 176.132 181.894 176.652 183.011 177.037C184.129 177.422 185.689 177.865 187.692 178.366C190.504 179.059 192.796 179.772 194.568 180.504C196.379 181.197 197.92 182.334 199.191 183.913C200.501 185.454 201.156 187.534 201.156 190.154Z" fill="white"/>
</g>
</g>
<defs>
<filter id="filter0_iii_2_1158" x="-10.5" y="-18" width="278" height="280" filterUnits="userSpaceOnUse" color-interpolation-filters="sRGB">
<feFlood flood-opacity="0" result="BackgroundImageFix"/>
<feBlend mode="normal" in="SourceGraphic" in2="BackgroundImageFix" result="shape"/>
<feColorMatrix in="SourceAlpha" type="matrix" values="0 0 0 0 0 0 0 0 0 0 0 0 0 0 0 0 0 0 127 0" result="hardAlpha"/>
<feMorphology radius="8" operator="erode" in="SourceAlpha" result="effect1_innerShadow_2_1158"/>
<feOffset dx="21" dy="13"/>
<feGaussianBlur stdDeviation="24"/>
<feComposite in2="hardAlpha" operator="arithmetic" k2="-1" k3="1"/>
<feColorMatrix type="matrix" values="0 0 0 0 0.682806 0 0 0 0 0.0652778 0 0 0 0 0.783333 0 0 0 0.14 0"/>
<feBlend mode="normal" in2="shape" result="effect1_innerShadow_2_1158"/>
<feColorMatrix in="SourceAlpha" type="matrix" values="0 0 0 0 0 0 0 0 0 0 0 0 0 0 0 0 0 0 127 0" result="hardAlpha"/>
<feOffset dy="-18"/>
<feGaussianBlur stdDeviation="15.5"/>
<feComposite in2="hardAlpha" operator="arithmetic" k2="-1" k3="1"/>
<feColorMatrix type="matrix" values="0 0 0 0 0.943639 0 0 0 0 0.223611 0 0 0 0 0.958333 0 0 0 0.44 0"/>
<feBlend mode="normal" in2="effect1_innerShadow_2_1158" result="effect2_innerShadow_2_1158"/>
<feColorMatrix in="SourceAlpha" type="matrix" values="0 0 0 0 0 0 0 0 0 0 0 0 0 0 0 0 0 0 127 0" result="hardAlpha"/>
<feOffset dx="-11" dy="16"/>
<feGaussianBlur stdDeviation="15.5"/>
<feComposite in2="hardAlpha" operator="arithmetic" k2="-1" k3="1"/>
<feColorMatrix type="matrix" values="0 0 0 0 1 0 0 0 0 1 0 0 0 0 1 0 0 0 0.59 0"/>
<feBlend mode="normal" in2="effect2_innerShadow_2_1158" result="effect3_innerShadow_2_1158"/>
</filter>
<filter id="filter1_d_2_1158" x="30.1489" y="58.6702" width="99.7021" height="99.7021" filterUnits="userSpaceOnUse" color-interpolation-filters="sRGB">
<feFlood flood-opacity="0" result="BackgroundImageFix"/>
<feColorMatrix in="SourceAlpha" type="matrix" values="0 0 0 0 0 0 0 0 0 0 0 0 0 0 0 0 0 0 127 0" result="hardAlpha"/>
<feOffset dy="3.02128"/>
<feGaussianBlur stdDeviation="7.17553"/>
<feColorMatrix type="matrix" values="0 0 0 0 0 0 0 0 0 0 0 0 0 0 0 0 0 0 0.25 0"/>
<feBlend mode="normal" in2="BackgroundImageFix" result="effect1_dropShadow_2_1158"/>
<feBlend mode="normal" in="SourceGraphic" in2="effect1_dropShadow_2_1158" result="shape"/>
</filter>
<filter id="filter2_i_2_1158" x="44.5" y="66.45" width="71" height="74.55" filterUnits="userSpaceOnUse" color-interpolation-filters="sRGB">
<feFlood flood-opacity="0" result="BackgroundImageFix"/>
<feBlend mode="normal" in="SourceGraphic" in2="BackgroundImageFix" result="shape"/>
<feColorMatrix in="SourceAlpha" type="matrix" values="0 0 0 0 0 0 0 0 0 0 0 0 0 0 0 0 0 0 127 0" result="hardAlpha"/>
<feOffset dy="-3.55"/>
<feGaussianBlur stdDeviation="8.875"/>
<feComposite in2="hardAlpha" operator="arithmetic" k2="-1" k3="1"/>
<feColorMatrix type="matrix" values="0 0 0 0 0 0 0 0 0 0 0 0 0 0 0 0 0 0 0.25 0"/>
<feBlend mode="normal" in2="shape" result="effect1_innerShadow_2_1158"/>
</filter>
<filter id="filter3_i_2_1158" x="61.117" y="86.6358" width="37.7471" height="37.7471" filterUnits="userSpaceOnUse" color-interpolation-filters="sRGB">
<feFlood flood-opacity="0" result="BackgroundImageFix"/>
<feBlend mode="normal" in="SourceGraphic" in2="BackgroundImageFix" result="shape"/>
<feColorMatrix in="SourceAlpha" type="matrix" values="0 0 0 0 0 0 0 0 0 0 0 0 0 0 0 0 0 0 127 0" result="hardAlpha"/>
<feMorphology radius="31.2004" operator="dilate" in="SourceAlpha" result="effect1_innerShadow_2_1158"/>
<feOffset dx="10.8523" dy="-32.5569"/>
<feGaussianBlur stdDeviation="12.2088"/>
<feComposite in2="hardAlpha" operator="arithmetic" k2="-1" k3="1"/>
<feColorMatrix type="matrix" values="0 0 0 0 0.462111 0 0 0 0 0.203767 0 0 0 0 0.504167 0 0 0 0.35 0"/>
<feBlend mode="normal" in2="shape" result="effect1_innerShadow_2_1158"/>
</filter>
<filter id="filter4_d_2_1158" x="116.149" y="58.6702" width="99.7021" height="99.7021" filterUnits="userSpaceOnUse" color-interpolation-filters="sRGB">
<feFlood flood-opacity="0" result="BackgroundImageFix"/>
<feColorMatrix in="SourceAlpha" type="matrix" values="0 0 0 0 0 0 0 0 0 0 0 0 0 0 0 0 0 0 127 0" result="hardAlpha"/>
<feOffset dy="3.02128"/>
<feGaussianBlur stdDeviation="7.17553"/>
<feColorMatrix type="matrix" values="0 0 0 0 0 0 0 0 0 0 0 0 0 0 0 0 0 0 0.25 0"/>
<feBlend mode="normal" in2="BackgroundImageFix" result="effect1_dropShadow_2_1158"/>
<feBlend mode="normal" in="SourceGraphic" in2="effect1_dropShadow_2_1158" result="shape"/>
</filter>
<filter id="filter5_i_2_1158" x="130.5" y="66.45" width="71" height="74.55" filterUnits="userSpaceOnUse" color-interpolation-filters="sRGB">
<feFlood flood-opacity="0" result="BackgroundImageFix"/>
<feBlend mode="normal" in="SourceGraphic" in2="BackgroundImageFix" result="shape"/>
<feColorMatrix in="SourceAlpha" type="matrix" values="0 0 0 0 0 0 0 0 0 0 0 0 0 0 0 0 0 0 127 0" result="hardAlpha"/>
<feOffset dy="-3.55"/>
<feGaussianBlur stdDeviation="8.875"/>
<feComposite in2="hardAlpha" operator="arithmetic" k2="-1" k3="1"/>
<feColorMatrix type="matrix" values="0 0 0 0 0 0 0 0 0 0 0 0 0 0 0 0 0 0 0.25 0"/>
<feBlend mode="normal" in2="shape" result="effect1_innerShadow_2_1158"/>
</filter>
<filter id="filter6_i_2_1158" x="147.117" y="86.6358" width="37.7471" height="37.7471" filterUnits="userSpaceOnUse" color-interpolation-filters="sRGB">
<feFlood flood-opacity="0" result="BackgroundImageFix"/>
<feBlend mode="normal" in="SourceGraphic" in2="BackgroundImageFix" result="shape"/>
<feColorMatrix in="SourceAlpha" type="matrix" values="0 0 0 0 0 0 0 0 0 0 0 0 0 0 0 0 0 0 127 0" result="hardAlpha"/>
<feMorphology radius="31.2004" operator="dilate" in="SourceAlpha" result="effect1_innerShadow_2_1158"/>
<feOffset dx="10.8523" dy="-32.5569"/>
<feGaussianBlur stdDeviation="12.2088"/>
<feComposite in2="hardAlpha" operator="arithmetic" k2="-1" k3="1"/>
<feColorMatrix type="matrix" values="0 0 0 0 0.462111 0 0 0 0 0.203767 0 0 0 0 0.504167 0 0 0 0.35 0"/>
<feBlend mode="normal" in2="shape" result="effect1_innerShadow_2_1158"/>
</filter>
<filter id="filter7_dii_2_1158" x="104.31" y="39.4149" width="117.421" height="83.0074" filterUnits="userSpaceOnUse" color-interpolation-filters="sRGB">
<feFlood flood-opacity="0" result="BackgroundImageFix"/>
<feColorMatrix in="SourceAlpha" type="matrix" values="0 0 0 0 0 0 0 0 0 0 0 0 0 0 0 0 0 0 127 0" result="hardAlpha"/>
<feOffset dx="6" dy="15"/>
<feGaussianBlur stdDeviation="13.5"/>
<feColorMatrix type="matrix" values="0 0 0 0 0.0313726 0 0 0 0 0.02 0 0 0 0 0.0352941 0 0 0 0.25 0"/>
<feBlend mode="normal" in2="BackgroundImageFix" result="effect1_dropShadow_2_1158"/>
<feBlend mode="normal" in="SourceGraphic" in2="effect1_dropShadow_2_1158" result="shape"/>
<feColorMatrix in="SourceAlpha" type="matrix" values="0 0 0 0 0 0 0 0 0 0 0 0 0 0 0 0 0 0 127 0" result="hardAlpha"/>
<feOffset dy="4.44444"/>
<feGaussianBlur stdDeviation="2.22222"/>
<feComposite in2="hardAlpha" operator="arithmetic" k2="-1" k3="1"/>
<feColorMatrix type="matrix" values="0 0 0 0 0.181961 0 0 0 0 0.116 0 0 0 0 0.204706 0 0 0 1 0"/>
<feBlend mode="normal" in2="shape" result="effect2_innerShadow_2_1158"/>
<feColorMatrix in="SourceAlpha" type="matrix" values="0 0 0 0 0 0 0 0 0 0 0 0 0 0 0 0 0 0 127 0" result="hardAlpha"/>
<feOffset dy="-4.44444"/>
<feGaussianBlur stdDeviation="2.22222"/>
<feComposite in2="hardAlpha" operator="arithmetic" k2="-1" k3="1"/>
<feColorMatrix type="matrix" values="0 0 0 0 0.12549 0 0 0 0 0.08 0 0 0 0 0.141176 0 0 0 1 0"/>
<feBlend mode="normal" in2="effect2_innerShadow_2_1158" result="effect3_innerShadow_2_1158"/>
</filter>
<filter id="filter8_dii_2_1158" x="36.0986" y="39.4149" width="117.421" height="83.0074" filterUnits="userSpaceOnUse" color-interpolation-filters="sRGB">
<feFlood flood-opacity="0" result="BackgroundImageFix"/>
<feColorMatrix in="SourceAlpha" type="matrix" values="0 0 0 0 0 0 0 0 0 0 0 0 0 0 0 0 0 0 127 0" result="hardAlpha"/>
<feOffset dx="6" dy="15"/>
<feGaussianBlur stdDeviation="13.5"/>
<feColorMatrix type="matrix" values="0 0 0 0 0.0313726 0 0 0 0 0.02 0 0 0 0 0.0352941 0 0 0 0.25 0"/>
<feBlend mode="normal" in2="BackgroundImageFix" result="effect1_dropShadow_2_1158"/>
<feBlend mode="normal" in="SourceGraphic" in2="effect1_dropShadow_2_1158" result="shape"/>
<feColorMatrix in="SourceAlpha" type="matrix" values="0 0 0 0 0 0 0 0 0 0 0 0 0 0 0 0 0 0 127 0" result="hardAlpha"/>
<feOffset dy="4.44444"/>
<feGaussianBlur stdDeviation="2.22222"/>
<feComposite in2="hardAlpha" operator="arithmetic" k2="-1" k3="1"/>
<feColorMatrix type="matrix" values="0 0 0 0 0.181961 0 0 0 0 0.116 0 0 0 0 0.204706 0 0 0 1 0"/>
<feBlend mode="normal" in2="shape" result="effect2_innerShadow_2_1158"/>
<feColorMatrix in="SourceAlpha" type="matrix" values="0 0 0 0 0 0 0 0 0 0 0 0 0 0 0 0 0 0 127 0" result="hardAlpha"/>
<feOffset dy="-4.44444"/>
<feGaussianBlur stdDeviation="2.22222"/>
<feComposite in2="hardAlpha" operator="arithmetic" k2="-1" k3="1"/>
<feColorMatrix type="matrix" values="0 0 0 0 0.12549 0 0 0 0 0.08 0 0 0 0 0.141176 0 0 0 1 0"/>
<feBlend mode="normal" in2="effect2_innerShadow_2_1158" result="effect3_innerShadow_2_1158"/>
</filter>
<filter id="filter9_ii_2_1158" x="21.5" y="147" width="205" height="70" filterUnits="userSpaceOnUse" color-interpolation-filters="sRGB">
<feFlood flood-opacity="0" result="BackgroundImageFix"/>
<feBlend mode="normal" in="SourceGraphic" in2="BackgroundImageFix" result="shape"/>
<feColorMatrix in="SourceAlpha" type="matrix" values="0 0 0 0 0 0 0 0 0 0 0 0 0 0 0 0 0 0 127 0" result="hardAlpha"/>
<feMorphology radius="26.45" operator="dilate" in="SourceAlpha" result="effect1_innerShadow_2_1158"/>
<feOffset dy="28"/>
<feGaussianBlur stdDeviation="7"/>
<feComposite in2="hardAlpha" operator="arithmetic" k2="-1" k3="1"/>
<feColorMatrix type="matrix" values="0 0 0 0 0.3625 0 0 0 0 0.3625 0 0 0 0 0.3625 0 0 0 0.97 0"/>
<feBlend mode="normal" in2="shape" result="effect1_innerShadow_2_1158"/>
<feColorMatrix in="SourceAlpha" type="matrix" values="0 0 0 0 0 0 0 0 0 0 0 0 0 0 0 0 0 0 127 0" result="hardAlpha"/>
<feMorphology radius="26.45" operator="dilate" in="SourceAlpha" result="effect2_innerShadow_2_1158"/>
<feOffset dx="9.2" dy="-9"/>
<feGaussianBlur stdDeviation="10.35"/>
<feComposite in2="hardAlpha" operator="arithmetic" k2="-1" k3="1"/>
<feColorMatrix type="matrix" values="0 0 0 0 0.462111 0 0 0 0 0.203767 0 0 0 0 0.504167 0 0 0 0.35 0"/>
<feBlend mode="normal" in2="effect1_innerShadow_2_1158" result="effect2_innerShadow_2_1158"/>
</filter>
<filter id="filter10_i_2_1158" x="45.8691" y="152.327" width="155.287" height="58.8604" filterUnits="userSpaceOnUse" color-interpolation-filters="sRGB">
<feFlood flood-opacity="0" result="BackgroundImageFix"/>
<feBlend mode="normal" in="SourceGraphic" in2="BackgroundImageFix" result="shape"/>
<feColorMatrix in="SourceAlpha" type="matrix" values="0 0 0 0 0 0 0 0 0 0 0 0 0 0 0 0 0 0 127 0" result="hardAlpha"/>
<feOffset dy="-2"/>
<feGaussianBlur stdDeviation="1.5"/>
<feComposite in2="hardAlpha" operator="arithmetic" k2="-1" k3="1"/>
<feColorMatrix type="matrix" values="0 0 0 0 0 0 0 0 0 0 0 0 0 0 0 0 0 0 0.25 0"/>
<feBlend mode="normal" in2="shape" result="effect1_innerShadow_2_1158"/>
</filter>
<radialGradient id="paint0_radial_2_1158" cx="0" cy="0" r="1" gradientUnits="userSpaceOnUse" gradientTransform="translate(109.5 16) rotate(86.5167) scale(230.426)">
<stop stop-color="#FF9E0C"/>
<stop offset="1" stop-color="#FF0761"/>
</radialGradient>
<linearGradient id="paint1_linear_2_1158" x1="209.058" y1="126.686" x2="122.771" y2="76.1434" gradientUnits="userSpaceOnUse">
<stop stop-color="#2D1D32"/>
<stop offset="1" stop-color="#221526"/>
</linearGradient>
<linearGradient id="paint2_linear_2_1158" x1="36.7715" y1="126.686" x2="123.058" y2="76.1434" gradientUnits="userSpaceOnUse">
<stop stop-color="#2D1D32"/>
<stop offset="1" stop-color="#221526"/>
</linearGradient>
<linearGradient id="paint3_linear_2_1158" x1="124" y1="147" x2="124" y2="217" gradientUnits="userSpaceOnUse">
<stop stop-color="#201721"/>
<stop offset="1" stop-color="#2B1F2C"/>
</linearGradient>
<clipPath id="clip0_2_1158">
<rect width="246" height="246" fill="white" transform="translate(0.5)"/>
</clipPath>
</defs>
</svg>
