<svg width="430" height="491" viewBox="0 0 430 491" fill="none" xmlns="http://www.w3.org/2000/svg">
<rect x="0.5" width="429" height="491" rx="50" fill="url(#paint0_linear_2_948)"/>
<rect x="6" y="5.5" width="418" height="480" rx="44.5" stroke="#B8B8B8" stroke-opacity="0.15" stroke-width="11"/>
<path d="M43.3883 407.301C42.6433 407.301 42.0559 407.1 41.6261 406.699C41.2249 406.298 41.0244 405.711 41.0244 404.937V379.106C41.0244 378.332 41.2249 377.745 41.6261 377.344C42.0559 376.914 42.6576 376.699 43.4312 376.699H58.7321C59.3625 376.699 59.8209 376.857 60.1075 377.172C60.4227 377.458 60.5803 377.888 60.5803 378.461C60.5803 379.063 60.4227 379.521 60.1075 379.837C59.8209 380.152 59.3625 380.309 58.7321 380.309H45.4943V389.98H57.8725C58.4456 389.98 58.8897 390.138 59.2049 390.453C59.5487 390.739 59.7207 391.169 59.7207 391.742C59.7207 392.344 59.5487 392.802 59.2049 393.117C58.8897 393.433 58.4456 393.59 57.8725 393.59H45.4943V404.937C45.4943 406.513 44.7923 407.301 43.3883 407.301ZM70.2155 407.387C68.7542 407.387 67.4361 407.1 66.2613 406.527C65.1152 405.954 64.2126 405.181 63.5536 404.206C62.8946 403.232 62.5651 402.129 62.5651 400.897C62.5651 399.35 62.9519 398.132 63.7255 397.244C64.5278 396.327 65.8315 395.682 67.6367 395.309C69.4705 394.908 71.9347 394.708 75.0293 394.708H77.0493V397.372H75.0722C73.0092 397.372 71.376 397.473 70.1725 397.673C68.9691 397.874 68.1095 398.218 67.5937 398.705C67.1066 399.163 66.8631 399.808 66.8631 400.639C66.8631 401.728 67.2356 402.616 67.9805 403.304C68.7255 403.963 69.7571 404.292 71.0751 404.292C72.1353 404.292 73.0665 404.049 73.8688 403.562C74.6711 403.046 75.3015 402.358 75.7599 401.499C76.247 400.639 76.4906 399.65 76.4906 398.533V393.59C76.4906 391.957 76.1467 390.782 75.4591 390.066C74.7714 389.35 73.6396 388.991 72.0636 388.991C71.1467 388.991 70.1869 389.106 69.184 389.335C68.2098 389.564 67.1926 389.951 66.1324 390.496C65.6453 390.725 65.2298 390.797 64.886 390.711C64.5421 390.625 64.2699 390.438 64.0694 390.152C63.8688 389.837 63.7542 389.507 63.7255 389.163C63.7255 388.791 63.8115 388.433 63.9834 388.089C64.184 387.745 64.5135 387.487 64.9719 387.315C66.2327 386.713 67.4791 386.284 68.7112 386.026C69.9433 385.768 71.1038 385.639 72.1926 385.639C74.1124 385.639 75.6883 385.94 76.9204 386.542C78.1811 387.143 79.1124 388.06 79.7141 389.292C80.3158 390.524 80.6167 392.115 80.6167 394.063V405.109C80.6167 405.797 80.4447 406.341 80.1009 406.742C79.7571 407.115 79.2556 407.301 78.5966 407.301C77.9662 407.301 77.4648 407.115 77.0923 406.742C76.7198 406.341 76.5336 405.797 76.5336 405.109V402.315H76.9204C76.6912 403.375 76.2614 404.292 75.631 405.066C75.0293 405.811 74.27 406.384 73.353 406.785C72.4361 407.186 71.3903 407.387 70.2155 407.387ZM95.8363 407.387C93.6873 407.387 91.8248 406.943 90.2489 406.054C88.7016 405.138 87.4982 403.862 86.6386 402.229C85.779 400.567 85.3492 398.619 85.3492 396.384C85.3492 394.722 85.5927 393.232 86.0798 391.914C86.5669 390.567 87.2546 389.436 88.1429 388.519C89.0598 387.602 90.1629 386.9 91.4523 386.413C92.7704 385.897 94.2317 385.639 95.8363 385.639C96.8392 385.639 97.885 385.797 98.9738 386.112C100.091 386.398 101.123 386.885 102.068 387.573C102.441 387.802 102.67 388.089 102.756 388.433C102.871 388.748 102.885 389.077 102.799 389.421C102.742 389.765 102.584 390.066 102.326 390.324C102.097 390.553 101.811 390.696 101.467 390.754C101.123 390.782 100.75 390.682 100.349 390.453C99.6615 389.966 98.9595 389.622 98.2432 389.421C97.5268 389.192 96.8392 389.077 96.1801 389.077C95.1486 389.077 94.2317 389.249 93.4294 389.593C92.6558 389.908 91.9967 390.381 91.4523 391.011C90.9079 391.613 90.4924 392.372 90.2059 393.289C89.948 394.206 89.8191 395.252 89.8191 396.427C89.8191 398.776 90.3635 400.625 91.4523 401.971C92.5698 403.289 94.1457 403.948 96.1801 403.948C96.8392 403.948 97.5268 403.848 98.2432 403.648C98.9595 403.447 99.6615 403.103 100.349 402.616C100.75 402.387 101.123 402.301 101.467 402.358C101.811 402.415 102.083 402.573 102.283 402.831C102.513 403.06 102.656 403.347 102.713 403.691C102.799 404.006 102.785 404.335 102.67 404.679C102.555 405.023 102.312 405.309 101.939 405.539C101.023 406.198 100.02 406.67 98.9308 406.957C97.8707 407.244 96.8392 407.387 95.8363 407.387ZM116.081 407.387C113.789 407.387 111.812 406.957 110.15 406.097C108.517 405.209 107.242 403.963 106.325 402.358C105.436 400.725 104.992 398.791 104.992 396.556C104.992 394.378 105.436 392.473 106.325 390.84C107.213 389.206 108.431 387.931 109.978 387.014C111.525 386.097 113.288 385.639 115.265 385.639C116.726 385.639 118.03 385.882 119.176 386.37C120.322 386.828 121.296 387.516 122.098 388.433C122.929 389.321 123.545 390.41 123.947 391.699C124.376 392.989 124.591 394.436 124.591 396.04C124.591 396.527 124.448 396.9 124.161 397.158C123.875 397.387 123.445 397.501 122.872 397.501H108.431V394.837H121.669L120.938 395.438C120.938 394.006 120.723 392.788 120.293 391.785C119.892 390.782 119.276 390.023 118.445 389.507C117.643 388.963 116.64 388.691 115.437 388.691C114.09 388.691 112.944 389.006 111.998 389.636C111.081 390.266 110.379 391.14 109.892 392.258C109.405 393.375 109.161 394.679 109.161 396.169V396.427C109.161 398.948 109.749 400.854 110.924 402.143C112.127 403.404 113.861 404.034 116.124 404.034C116.984 404.034 117.886 403.92 118.832 403.691C119.806 403.461 120.723 403.074 121.583 402.53C122.07 402.244 122.5 402.115 122.872 402.143C123.273 402.172 123.588 402.301 123.818 402.53C124.075 402.759 124.233 403.046 124.29 403.39C124.348 403.734 124.29 404.092 124.118 404.464C123.947 404.808 123.646 405.123 123.216 405.41C122.242 406.069 121.11 406.57 119.82 406.914C118.531 407.229 117.285 407.387 116.081 407.387ZM143.364 407.301C142.648 407.301 142.089 407.1 141.688 406.699C141.315 406.298 141.129 405.739 141.129 405.023V378.676C141.129 377.931 141.315 377.372 141.688 377C142.089 376.599 142.648 376.398 143.364 376.398C144.08 376.398 144.625 376.599 144.997 377C145.398 377.372 145.599 377.931 145.599 378.676V389.765H162.576V378.676C162.576 377.931 162.762 377.372 163.135 377C163.536 376.599 164.095 376.398 164.811 376.398C165.527 376.398 166.072 376.599 166.444 377C166.817 377.372 167.003 377.931 167.003 378.676V405.023C167.003 405.739 166.817 406.298 166.444 406.699C166.072 407.1 165.527 407.301 164.811 407.301C164.095 407.301 163.536 407.1 163.135 406.699C162.762 406.298 162.576 405.739 162.576 405.023V393.504H145.599V405.023C145.599 405.739 145.413 406.298 145.04 406.699C144.668 407.1 144.109 407.301 143.364 407.301ZM182.717 407.387C180.596 407.387 178.762 406.943 177.215 406.054C175.697 405.166 174.507 403.905 173.648 402.272C172.788 400.639 172.358 398.719 172.358 396.513C172.358 394.822 172.602 393.318 173.089 392C173.576 390.682 174.264 389.55 175.152 388.605C176.069 387.63 177.158 386.9 178.419 386.413C179.708 385.897 181.141 385.639 182.717 385.639C184.808 385.639 186.614 386.083 188.132 386.971C189.679 387.86 190.883 389.12 191.742 390.754C192.602 392.358 193.032 394.278 193.032 396.513C193.032 398.175 192.788 399.679 192.301 401.026C191.814 402.372 191.112 403.519 190.195 404.464C189.307 405.41 188.218 406.14 186.929 406.656C185.668 407.143 184.264 407.387 182.717 407.387ZM182.717 404.034C183.891 404.034 184.923 403.748 185.811 403.175C186.699 402.602 187.387 401.756 187.874 400.639C188.39 399.521 188.648 398.146 188.648 396.513C188.648 394.049 188.103 392.186 187.015 390.925C185.926 389.665 184.493 389.034 182.717 389.034C181.513 389.034 180.467 389.321 179.579 389.894C178.691 390.438 177.989 391.269 177.473 392.387C176.986 393.504 176.742 394.88 176.742 396.513C176.742 398.948 177.287 400.811 178.376 402.1C179.465 403.39 180.911 404.034 182.717 404.034ZM204.655 407.387C202.42 407.387 200.729 406.742 199.583 405.453C198.466 404.135 197.907 402.244 197.907 399.779V378.59C197.907 377.874 198.093 377.329 198.466 376.957C198.838 376.584 199.368 376.398 200.056 376.398C200.744 376.398 201.274 376.584 201.646 376.957C202.047 377.329 202.248 377.874 202.248 378.59V399.521C202.248 400.954 202.535 402.029 203.108 402.745C203.709 403.433 204.569 403.776 205.686 403.776C205.944 403.776 206.174 403.776 206.374 403.776C206.575 403.748 206.775 403.719 206.976 403.691C207.32 403.662 207.563 403.762 207.707 403.991C207.85 404.192 207.921 404.622 207.921 405.281C207.921 405.883 207.792 406.355 207.535 406.699C207.277 407.014 206.861 407.215 206.288 407.301C206.03 407.33 205.758 407.344 205.472 407.344C205.185 407.372 204.913 407.387 204.655 407.387ZM218.829 407.387C216.995 407.387 215.376 406.957 213.972 406.097C212.597 405.209 211.522 403.948 210.749 402.315C209.975 400.653 209.588 398.719 209.588 396.513C209.588 394.249 209.975 392.315 210.749 390.711C211.522 389.106 212.597 387.86 213.972 386.971C215.376 386.083 216.995 385.639 218.829 385.639C220.663 385.639 222.239 386.097 223.557 387.014C224.903 387.903 225.806 389.106 226.264 390.625H225.792V378.59C225.792 377.874 225.978 377.329 226.35 376.957C226.723 376.584 227.253 376.398 227.941 376.398C228.628 376.398 229.158 376.584 229.531 376.957C229.932 377.329 230.133 377.874 230.133 378.59V405.109C230.133 405.797 229.946 406.341 229.574 406.742C229.201 407.115 228.671 407.301 227.984 407.301C227.296 407.301 226.766 407.115 226.393 406.742C226.021 406.341 225.835 405.797 225.835 405.109V401.327L226.307 402.272C225.849 403.819 224.946 405.066 223.6 406.011C222.282 406.928 220.691 407.387 218.829 407.387ZM219.946 404.034C221.121 404.034 222.153 403.748 223.041 403.175C223.929 402.602 224.617 401.756 225.104 400.639C225.62 399.521 225.878 398.146 225.878 396.513C225.878 394.049 225.333 392.186 224.244 390.925C223.156 389.665 221.723 389.034 219.946 389.034C218.743 389.034 217.697 389.321 216.809 389.894C215.921 390.438 215.219 391.269 214.703 392.387C214.216 393.504 213.972 394.88 213.972 396.513C213.972 398.948 214.517 400.811 215.605 402.1C216.694 403.39 218.141 404.034 219.946 404.034ZM238.377 407.258C237.689 407.258 237.159 407.057 236.787 406.656C236.414 406.226 236.228 405.639 236.228 404.894V388.132C236.228 387.387 236.414 386.814 236.787 386.413C237.159 386.011 237.689 385.811 238.377 385.811C239.065 385.811 239.595 386.011 239.967 386.413C240.369 386.814 240.569 387.387 240.569 388.132V404.894C240.569 405.639 240.383 406.226 240.01 406.656C239.638 407.057 239.093 407.258 238.377 407.258ZM238.377 381.341C237.518 381.341 236.844 381.126 236.357 380.696C235.899 380.266 235.669 379.665 235.669 378.891C235.669 378.089 235.899 377.487 236.357 377.086C236.844 376.656 237.518 376.441 238.377 376.441C239.237 376.441 239.896 376.656 240.354 377.086C240.841 377.487 241.085 378.089 241.085 378.891C241.085 379.665 240.841 380.266 240.354 380.696C239.896 381.126 239.237 381.341 238.377 381.341ZM248.828 407.301C248.141 407.301 247.611 407.115 247.238 406.742C246.866 406.341 246.679 405.797 246.679 405.109V387.917C246.679 387.201 246.866 386.656 247.238 386.284C247.611 385.911 248.126 385.725 248.785 385.725C249.473 385.725 249.989 385.911 250.333 386.284C250.705 386.656 250.891 387.201 250.891 387.917V391.269L250.419 390.496C251.049 388.891 252.037 387.688 253.384 386.885C254.731 386.054 256.278 385.639 258.026 385.639C259.688 385.639 261.063 385.954 262.152 386.584C263.27 387.186 264.101 388.117 264.645 389.378C265.189 390.61 265.462 392.172 265.462 394.063V405.109C265.462 405.797 265.275 406.341 264.903 406.742C264.53 407.115 264 407.301 263.313 407.301C262.596 407.301 262.052 407.115 261.679 406.742C261.307 406.341 261.121 405.797 261.121 405.109V394.321C261.121 392.516 260.762 391.198 260.046 390.367C259.358 389.536 258.27 389.12 256.78 389.12C255.032 389.12 253.628 389.665 252.568 390.754C251.536 391.842 251.02 393.304 251.02 395.138V405.109C251.02 406.57 250.29 407.301 248.828 407.301ZM280.942 415.123C279.394 415.123 277.89 414.966 276.429 414.65C274.996 414.335 273.692 413.819 272.518 413.103C272.088 412.874 271.801 412.587 271.658 412.244C271.515 411.928 271.472 411.599 271.529 411.255C271.615 410.911 271.773 410.61 272.002 410.352C272.231 410.095 272.503 409.923 272.819 409.837C273.162 409.751 273.521 409.808 273.893 410.009C275.154 410.696 276.343 411.155 277.46 411.384C278.607 411.642 279.667 411.771 280.641 411.771C282.647 411.771 284.151 411.255 285.154 410.224C286.157 409.221 286.658 407.731 286.658 405.754V401.37H287.045C286.615 402.946 285.713 404.192 284.337 405.109C282.962 406.026 281.372 406.484 279.566 406.484C277.675 406.484 276.028 406.054 274.624 405.195C273.22 404.307 272.131 403.089 271.357 401.542C270.584 399.966 270.197 398.132 270.197 396.04C270.197 394.464 270.412 393.046 270.841 391.785C271.3 390.524 271.93 389.436 272.733 388.519C273.564 387.602 274.552 386.9 275.698 386.413C276.873 385.897 278.162 385.639 279.566 385.639C281.4 385.639 282.99 386.097 284.337 387.014C285.713 387.931 286.601 389.178 287.002 390.754L286.572 391.484V387.917C286.572 387.201 286.758 386.656 287.131 386.284C287.532 385.911 288.062 385.725 288.721 385.725C289.409 385.725 289.939 385.911 290.311 386.284C290.684 386.656 290.87 387.201 290.87 387.917V405.238C290.87 408.504 290.025 410.968 288.334 412.63C286.644 414.292 284.18 415.123 280.942 415.123ZM280.598 403.089C281.859 403.089 282.933 402.802 283.821 402.229C284.71 401.656 285.397 400.84 285.884 399.779C286.372 398.719 286.615 397.473 286.615 396.04C286.615 393.891 286.071 392.186 284.982 390.925C283.922 389.665 282.46 389.034 280.598 389.034C279.366 389.034 278.306 389.321 277.417 389.894C276.529 390.467 275.827 391.284 275.311 392.344C274.824 393.375 274.581 394.607 274.581 396.04C274.581 398.218 275.125 399.937 276.214 401.198C277.303 402.458 278.764 403.089 280.598 403.089ZM311.175 407C310.401 407 309.799 406.799 309.37 406.398C308.968 405.968 308.768 405.367 308.768 404.593V379.106C308.768 378.332 308.968 377.745 309.37 377.344C309.799 376.914 310.401 376.699 311.175 376.699H321.404C323.496 376.699 325.272 377.014 326.734 377.645C328.224 378.275 329.355 379.178 330.129 380.352C330.931 381.527 331.332 382.946 331.332 384.607C331.332 386.441 330.788 387.989 329.699 389.249C328.61 390.51 327.135 391.355 325.272 391.785V391.14C327.393 391.427 329.054 392.229 330.258 393.547C331.461 394.837 332.063 396.527 332.063 398.619C332.063 401.312 331.175 403.39 329.398 404.851C327.622 406.284 325.129 407 321.92 407H311.175ZM313.066 403.562H321.404C323.553 403.562 325.143 403.146 326.175 402.315C327.206 401.456 327.722 400.166 327.722 398.447C327.722 396.728 327.206 395.453 326.175 394.622C325.143 393.791 323.553 393.375 321.404 393.375H313.066V403.562ZM313.066 389.937H320.716C322.779 389.937 324.341 389.521 325.401 388.691C326.461 387.86 326.991 386.642 326.991 385.037C326.991 383.433 326.461 382.215 325.401 381.384C324.341 380.553 322.779 380.138 320.716 380.138H313.066V389.937ZM344.297 407.387C342.836 407.387 341.518 407.1 340.343 406.527C339.197 405.954 338.294 405.181 337.635 404.206C336.976 403.232 336.647 402.129 336.647 400.897C336.647 399.35 337.033 398.132 337.807 397.244C338.609 396.327 339.913 395.682 341.718 395.309C343.552 394.908 346.016 394.708 349.111 394.708H351.131V397.372H349.154C347.091 397.372 345.457 397.473 344.254 397.673C343.051 397.874 342.191 398.218 341.675 398.705C341.188 399.163 340.945 399.808 340.945 400.639C340.945 401.728 341.317 402.616 342.062 403.304C342.807 403.963 343.839 404.292 345.157 404.292C346.217 404.292 347.148 404.049 347.95 403.562C348.753 403.046 349.383 402.358 349.841 401.499C350.328 400.639 350.572 399.65 350.572 398.533V393.59C350.572 391.957 350.228 390.782 349.541 390.066C348.853 389.35 347.721 388.991 346.145 388.991C345.228 388.991 344.268 389.106 343.265 389.335C342.291 389.564 341.274 389.951 340.214 390.496C339.727 390.725 339.311 390.797 338.967 390.711C338.624 390.625 338.351 390.438 338.151 390.152C337.95 389.837 337.836 389.507 337.807 389.163C337.807 388.791 337.893 388.433 338.065 388.089C338.265 387.745 338.595 387.487 339.053 387.315C340.314 386.713 341.561 386.284 342.793 386.026C344.025 385.768 345.185 385.639 346.274 385.639C348.194 385.639 349.77 385.94 351.002 386.542C352.263 387.143 353.194 388.06 353.796 389.292C354.397 390.524 354.698 392.115 354.698 394.063V405.109C354.698 405.797 354.526 406.341 354.182 406.742C353.839 407.115 353.337 407.301 352.678 407.301C352.048 407.301 351.546 407.115 351.174 406.742C350.801 406.341 350.615 405.797 350.615 405.109V402.315H351.002C350.773 403.375 350.343 404.292 349.712 405.066C349.111 405.811 348.351 406.384 347.434 406.785C346.518 407.186 345.472 407.387 344.297 407.387ZM369.918 407.387C367.769 407.387 365.906 406.943 364.33 406.054C362.783 405.138 361.58 403.862 360.72 402.229C359.86 400.567 359.431 398.619 359.431 396.384C359.431 394.722 359.674 393.232 360.161 391.914C360.648 390.567 361.336 389.436 362.224 388.519C363.141 387.602 364.244 386.9 365.534 386.413C366.852 385.897 368.313 385.639 369.918 385.639C370.921 385.639 371.966 385.797 373.055 386.112C374.173 386.398 375.204 386.885 376.15 387.573C376.522 387.802 376.752 388.089 376.838 388.433C376.952 388.748 376.966 389.077 376.88 389.421C376.823 389.765 376.666 390.066 376.408 390.324C376.178 390.553 375.892 390.696 375.548 390.754C375.204 390.782 374.832 390.682 374.431 390.453C373.743 389.966 373.041 389.622 372.325 389.421C371.608 389.192 370.921 389.077 370.262 389.077C369.23 389.077 368.313 389.249 367.511 389.593C366.737 389.908 366.078 390.381 365.534 391.011C364.989 391.613 364.574 392.372 364.287 393.289C364.029 394.206 363.901 395.252 363.901 396.427C363.901 398.776 364.445 400.625 365.534 401.971C366.651 403.289 368.227 403.948 370.262 403.948C370.921 403.948 371.608 403.848 372.325 403.648C373.041 403.447 373.743 403.103 374.431 402.616C374.832 402.387 375.204 402.301 375.548 402.358C375.892 402.415 376.164 402.573 376.365 402.831C376.594 403.06 376.737 403.347 376.795 403.691C376.88 404.006 376.866 404.335 376.752 404.679C376.637 405.023 376.393 405.309 376.021 405.539C375.104 406.198 374.101 406.67 373.012 406.957C371.952 407.244 370.921 407.387 369.918 407.387ZM382.889 407.301C382.201 407.301 381.671 407.115 381.299 406.742C380.926 406.341 380.74 405.797 380.74 405.109V378.59C380.74 377.874 380.926 377.329 381.299 376.957C381.671 376.584 382.201 376.398 382.889 376.398C383.577 376.398 384.107 376.584 384.479 376.957C384.88 377.329 385.081 377.874 385.081 378.59V395.18H385.167L393.204 387.186C393.663 386.728 394.078 386.37 394.451 386.112C394.823 385.854 395.31 385.725 395.912 385.725C396.514 385.725 396.972 385.882 397.287 386.198C397.602 386.513 397.76 386.9 397.76 387.358C397.76 387.788 397.545 388.232 397.115 388.691L388.605 397.115V395.095L397.889 404.335C398.347 404.794 398.562 405.252 398.534 405.711C398.505 406.169 398.319 406.556 397.975 406.871C397.631 407.158 397.201 407.301 396.686 407.301C396.027 407.301 395.496 407.172 395.095 406.914C394.723 406.656 394.279 406.269 393.763 405.754L385.167 397.415H385.081V405.109C385.081 406.57 384.35 407.301 382.889 407.301ZM50.6519 449.301C49.9355 449.301 49.3768 449.1 48.9757 448.699C48.6032 448.298 48.4169 447.739 48.4169 447.023V422.438H39.3052C38.7034 422.438 38.2307 422.281 37.8868 421.966C37.543 421.622 37.3711 421.149 37.3711 420.547C37.3711 419.946 37.543 419.487 37.8868 419.172C38.2307 418.857 38.7034 418.699 39.3052 418.699H61.9556C62.586 418.699 63.0731 418.857 63.4169 419.172C63.7608 419.487 63.9327 419.946 63.9327 420.547C63.9327 421.149 63.7608 421.622 63.4169 421.966C63.0731 422.281 62.586 422.438 61.9556 422.438H52.8439V447.023C52.8439 447.739 52.6576 448.298 52.2851 448.699C51.9413 449.1 51.3969 449.301 50.6519 449.301ZM73.353 449.387C71.0608 449.387 69.0837 448.957 67.4218 448.097C65.7886 447.209 64.5135 445.963 63.5966 444.358C62.7083 442.725 62.2642 440.791 62.2642 438.556C62.2642 436.378 62.7083 434.473 63.5966 432.84C64.4848 431.206 65.7026 429.931 67.2499 429.014C68.7972 428.097 70.5593 427.639 72.5364 427.639C73.9977 427.639 75.3015 427.882 76.4476 428.37C77.5937 428.828 78.568 429.516 79.3702 430.433C80.2012 431.321 80.8172 432.41 81.2184 433.699C81.6482 434.989 81.8631 436.436 81.8631 438.04C81.8631 438.527 81.7198 438.9 81.4333 439.158C81.1468 439.387 80.717 439.501 80.1439 439.501H65.7026V436.837H78.9404L78.2098 437.438C78.2098 436.006 77.9949 434.788 77.5651 433.785C77.1639 432.782 76.5479 432.023 75.7169 431.507C74.9147 430.963 73.9118 430.691 72.7083 430.691C71.3616 430.691 70.2155 431.006 69.2699 431.636C68.353 432.266 67.651 433.14 67.1639 434.258C66.6768 435.375 66.4333 436.679 66.4333 438.169V438.427C66.4333 440.948 67.0207 442.854 68.1954 444.143C69.3989 445.404 71.1324 446.034 73.396 446.034C74.2556 446.034 75.1582 445.92 76.1038 445.691C77.078 445.461 77.9949 445.074 78.8545 444.53C79.3416 444.244 79.7714 444.115 80.1439 444.143C80.545 444.172 80.8602 444.301 81.0894 444.53C81.3473 444.759 81.5049 445.046 81.5622 445.39C81.6195 445.734 81.5622 446.092 81.3903 446.464C81.2184 446.808 80.9175 447.123 80.4877 447.41C79.5135 448.069 78.3817 448.57 77.0923 448.914C75.8029 449.229 74.5565 449.387 73.353 449.387ZM93.3005 449.387C91.8391 449.387 90.5211 449.1 89.3463 448.527C88.2002 447.954 87.2976 447.181 86.6386 446.206C85.9795 445.232 85.65 444.129 85.65 442.897C85.65 441.35 86.0368 440.132 86.8105 439.244C87.6128 438.327 88.9165 437.682 90.7217 437.309C92.5555 436.908 95.0197 436.708 98.1142 436.708H100.134V439.372H98.1572C96.0942 439.372 94.4609 439.473 93.2575 439.673C92.054 439.874 91.1944 440.218 90.6787 440.705C90.1916 441.163 89.948 441.808 89.948 442.639C89.948 443.728 90.3205 444.616 91.0655 445.304C91.8105 445.963 92.842 446.292 94.1601 446.292C95.2202 446.292 96.1515 446.049 96.9538 445.562C97.7561 445.046 98.3864 444.358 98.8449 443.499C99.332 442.639 99.5755 441.65 99.5755 440.533V435.59C99.5755 433.957 99.2317 432.782 98.544 432.066C97.8563 431.35 96.7245 430.991 95.1486 430.991C94.2317 430.991 93.2718 431.106 92.2689 431.335C91.2947 431.564 90.2775 431.951 89.2174 432.496C88.7303 432.725 88.3148 432.797 87.9709 432.711C87.6271 432.625 87.3549 432.438 87.1543 432.152C86.9538 431.837 86.8391 431.507 86.8105 431.163C86.8105 430.791 86.8964 430.433 87.0684 430.089C87.2689 429.745 87.5985 429.487 88.0569 429.315C89.3177 428.713 90.5641 428.284 91.7962 428.026C93.0283 427.768 94.1887 427.639 95.2775 427.639C97.1973 427.639 98.7733 427.94 100.005 428.542C101.266 429.143 102.197 430.06 102.799 431.292C103.401 432.524 103.702 434.115 103.702 436.063V447.109C103.702 447.797 103.53 448.341 103.186 448.742C102.842 449.115 102.341 449.301 101.682 449.301C101.051 449.301 100.55 449.115 100.177 448.742C99.8048 448.341 99.6185 447.797 99.6185 447.109V444.315H100.005C99.7761 445.375 99.3463 446.292 98.7159 447.066C98.1142 447.811 97.3549 448.384 96.438 448.785C95.5211 449.186 94.4753 449.387 93.3005 449.387ZM111.873 449.301C111.156 449.301 110.612 449.115 110.239 448.742C109.867 448.341 109.681 447.797 109.681 447.109V429.917C109.681 429.201 109.867 428.656 110.239 428.284C110.612 427.911 111.128 427.725 111.787 427.725C112.474 427.725 112.99 427.911 113.334 428.284C113.706 428.656 113.893 429.201 113.893 429.917V433.054H113.463C113.921 431.335 114.767 430.031 115.999 429.143C117.231 428.255 118.807 427.739 120.726 427.596C121.242 427.567 121.643 427.696 121.93 427.983C122.245 428.269 122.417 428.713 122.446 429.315C122.503 429.917 122.374 430.404 122.059 430.776C121.744 431.12 121.256 431.321 120.597 431.378L119.781 431.464C117.918 431.636 116.5 432.223 115.526 433.226C114.552 434.229 114.065 435.605 114.065 437.352V447.109C114.065 447.797 113.878 448.341 113.506 448.742C113.162 449.115 112.618 449.301 111.873 449.301ZM132.854 449.387C131.593 449.387 130.289 449.244 128.943 448.957C127.625 448.67 126.407 448.183 125.289 447.496C124.917 447.238 124.659 446.951 124.516 446.636C124.372 446.321 124.315 446.006 124.344 445.691C124.401 445.347 124.53 445.06 124.731 444.831C124.96 444.573 125.232 444.415 125.547 444.358C125.891 444.301 126.249 444.372 126.622 444.573C127.739 445.203 128.814 445.648 129.845 445.905C130.877 446.135 131.894 446.249 132.897 446.249C134.415 446.249 135.562 445.977 136.335 445.433C137.109 444.888 137.496 444.158 137.496 443.241C137.496 442.496 137.238 441.923 136.722 441.521C136.206 441.092 135.433 440.762 134.401 440.533L130.318 439.716C128.541 439.344 127.195 438.685 126.278 437.739C125.361 436.794 124.903 435.59 124.903 434.129C124.903 432.811 125.261 431.665 125.977 430.691C126.693 429.716 127.696 428.971 128.986 428.456C130.275 427.911 131.765 427.639 133.456 427.639C134.716 427.639 135.905 427.797 137.023 428.112C138.14 428.427 139.172 428.9 140.117 429.53C140.49 429.731 140.733 430.003 140.848 430.347C140.963 430.662 140.977 430.977 140.891 431.292C140.834 431.607 140.691 431.894 140.461 432.152C140.232 432.381 139.946 432.524 139.602 432.582C139.286 432.61 138.928 432.524 138.527 432.324C137.668 431.779 136.808 431.393 135.948 431.163C135.117 430.934 134.286 430.819 133.456 430.819C131.937 430.819 130.791 431.106 130.017 431.679C129.272 432.223 128.9 432.968 128.9 433.914C128.9 434.63 129.129 435.218 129.587 435.676C130.046 436.135 130.762 436.464 131.736 436.665L135.819 437.481C137.682 437.854 139.086 438.484 140.031 439.372C141.006 440.261 141.493 441.464 141.493 442.983C141.493 444.96 140.705 446.521 139.129 447.668C137.553 448.814 135.461 449.387 132.854 449.387Z" fill="black" fill-opacity="0.53"/>
<g clip-path="url(#clip0_2_948)">
<g filter="url(#filter0_iii_2_948)">
<path d="M92.5 205C92.5 141.487 143.987 90 207.5 90H219.5C285.222 90 338.5 143.278 338.5 209V217C338.5 282.722 285.222 336 219.5 336H215.5C147.569 336 92.5 280.931 92.5 213V205Z" fill="url(#paint1_radial_2_948)"/>
</g>
<g filter="url(#filter1_f_2_948)">
<circle cx="152" cy="222.5" r="35.5" fill="#FF4242"/>
</g>
<g filter="url(#filter2_f_2_948)">
<circle cx="281" cy="222.5" r="35.5" fill="#FF4242"/>
</g>
<g filter="url(#filter3_d_2_948)">
<g clip-path="url(#clip1_2_948)">
<g filter="url(#filter4_i_2_948)">
<circle cx="35.5" cy="35.5" r="35.5" transform="matrix(1 0 0 -1 227.5 211)" fill="white"/>
</g>
<g filter="url(#filter5_i_2_948)">
<ellipse cx="30" cy="30.5" rx="30" ry="30.5" transform="matrix(1 0 0 -1 233 206)" fill="#141414"/>
</g>
<g filter="url(#filter6_i_2_948)">
<path fill-rule="evenodd" clip-rule="evenodd" d="M271 190C266.858 190 263.5 186.642 263.5 182.5C263.5 181.163 263.85 179.907 264.464 178.82C261.975 180.993 258.719 182.31 255.155 182.31C247.337 182.31 241 175.973 241 168.155C241 160.338 247.337 154 255.155 154C262.973 154 269.31 160.338 269.31 168.155C269.31 171.214 268.34 174.046 266.691 176.361C267.91 175.503 269.396 175 271 175C275.142 175 278.5 178.358 278.5 182.5C278.5 186.642 275.142 190 271 190Z" fill="#ECECEC"/>
</g>
<g filter="url(#filter7_i_2_948)">
<path d="M263.604 247.131L283.876 221.971C283.876 221.971 311.996 194.328 263.604 193.164C215.212 192 240.716 221.971 240.716 221.971L263.604 247.131Z" fill="url(#paint2_linear_2_948)"/>
</g>
<g filter="url(#filter8_f_2_948)">
<ellipse cx="13.5991" cy="15.8278" rx="13.5991" ry="15.8278" transform="matrix(0.984939 -0.172901 -0.499571 -0.866273 262.798 225.091)" fill="white" fill-opacity="0.81"/>
</g>
</g>
</g>
<g filter="url(#filter9_d_2_948)">
<g clip-path="url(#clip2_2_948)">
<g filter="url(#filter10_i_2_948)">
<circle cx="35.5" cy="35.5" r="35.5" transform="matrix(1 0 0 -1 132.5 211)" fill="white"/>
</g>
<g filter="url(#filter11_i_2_948)">
<ellipse cx="30" cy="30.5" rx="30" ry="30.5" transform="matrix(1 0 0 -1 138 206)" fill="#141414"/>
</g>
<g filter="url(#filter12_i_2_948)">
<path fill-rule="evenodd" clip-rule="evenodd" d="M176 190C171.858 190 168.5 186.642 168.5 182.5C168.5 181.163 168.85 179.907 169.464 178.82C166.975 180.993 163.719 182.31 160.155 182.31C152.337 182.31 146 175.973 146 168.155C146 160.338 152.337 154 160.155 154C167.973 154 174.31 160.338 174.31 168.155C174.31 171.214 173.34 174.046 171.691 176.361C172.91 175.503 174.396 175 176 175C180.142 175 183.5 178.358 183.5 182.5C183.5 186.642 180.142 190 176 190Z" fill="#ECECEC"/>
</g>
<g filter="url(#filter13_i_2_948)">
<path d="M168.604 247.131L188.876 221.971C188.876 221.971 216.996 194.328 168.604 193.164C120.212 192 145.716 221.971 145.716 221.971L168.604 247.131Z" fill="url(#paint3_linear_2_948)"/>
</g>
<g filter="url(#filter14_f_2_948)">
<ellipse cx="13.5991" cy="15.8278" rx="13.5991" ry="15.8278" transform="matrix(0.984939 -0.172901 -0.499571 -0.866273 167.798 225.091)" fill="white" fill-opacity="0.81"/>
</g>
</g>
</g>
<g filter="url(#filter15_diiii_2_948)">
<mask id="path-19-inside-1_2_948" fill="white">
<path d="M271.962 225C276.678 225 280.565 228.844 279.859 233.506C279.099 238.526 277.668 243.447 275.59 248.152C272.349 255.493 267.598 262.162 261.608 267.78C255.619 273.398 248.509 277.854 240.683 280.895C232.858 283.935 224.47 285.5 216 285.5C207.53 285.5 199.142 283.935 191.317 280.895C183.491 277.854 176.381 273.398 170.392 267.78C164.402 262.162 159.651 255.493 156.41 248.152C154.332 243.447 152.901 238.526 152.141 233.506C151.435 228.844 155.322 225 160.038 225C164.753 225 168.489 228.861 169.445 233.478C170.049 236.399 170.966 239.262 172.185 242.023C174.569 247.42 178.062 252.324 182.466 256.455C186.87 260.585 192.098 263.862 197.851 266.097C203.605 268.333 209.772 269.483 216 269.483C222.228 269.483 228.395 268.333 234.149 266.097C239.902 263.862 245.13 260.585 249.534 256.455C253.938 252.324 257.431 247.42 259.815 242.023C261.034 239.262 261.951 236.399 262.555 233.478C263.511 228.861 267.247 225 271.962 225Z"/>
</mask>
<path d="M271.962 225C276.678 225 280.565 228.844 279.859 233.506C279.099 238.526 277.668 243.447 275.59 248.152C272.349 255.493 267.598 262.162 261.608 267.78C255.619 273.398 248.509 277.854 240.683 280.895C232.858 283.935 224.47 285.5 216 285.5C207.53 285.5 199.142 283.935 191.317 280.895C183.491 277.854 176.381 273.398 170.392 267.78C164.402 262.162 159.651 255.493 156.41 248.152C154.332 243.447 152.901 238.526 152.141 233.506C151.435 228.844 155.322 225 160.038 225C164.753 225 168.489 228.861 169.445 233.478C170.049 236.399 170.966 239.262 172.185 242.023C174.569 247.42 178.062 252.324 182.466 256.455C186.87 260.585 192.098 263.862 197.851 266.097C203.605 268.333 209.772 269.483 216 269.483C222.228 269.483 228.395 268.333 234.149 266.097C239.902 263.862 245.13 260.585 249.534 256.455C253.938 252.324 257.431 247.42 259.815 242.023C261.034 239.262 261.951 236.399 262.555 233.478C263.511 228.861 267.247 225 271.962 225Z" stroke="url(#paint4_linear_2_948)" stroke-width="22" stroke-linejoin="round" mask="url(#path-19-inside-1_2_948)"/>
</g>
</g>
<path d="M50.995 58.6854C50.6511 58.7427 50.2643 58.7713 49.8346 58.7713C47.9722 58.7713 46.2101 58.3702 44.5483 57.568C42.9152 56.7657 41.5829 55.591 40.5514 54.0438C39.5486 52.4966 39.0472 50.6916 39.0472 48.6286C39.0472 46.7376 39.5343 45.0185 40.5084 43.4713C41.5112 41.9241 42.8292 40.7064 44.4624 39.8182C46.1242 38.93 47.9149 38.4859 49.8346 38.4859C52.0121 38.4859 53.9174 38.93 55.5506 39.8182C57.1837 40.6778 58.4301 41.8812 59.2896 43.4284C60.1778 44.9469 60.6219 46.6803 60.6219 48.6286C60.6219 49.8893 60.3068 51.15 59.6764 52.4107C59.0461 53.6713 58.2152 55.0753 57.1837 56.6225L49.3618 68.1404C49.3332 68.1978 49.2472 68.3124 49.1039 68.4843C48.9893 68.6275 48.8317 68.7565 48.6312 68.8711C48.4593 68.957 48.2587 69 48.0295 69H45.5798C45.3219 69 45.107 68.914 44.9351 68.7421C44.7919 68.5416 44.7202 68.3124 44.7202 68.0545C44.7202 67.8826 44.7919 67.6963 44.9351 67.4958L50.995 58.6854ZM49.8346 42.3539C47.8576 42.3539 46.2388 42.9556 44.9781 44.159C43.7461 45.3337 43.1301 46.8236 43.1301 48.6286C43.1301 50.4337 43.7461 51.9379 44.9781 53.1413C46.2388 54.316 47.8576 54.9034 49.8346 54.9034C51.8115 54.9034 53.416 54.316 54.648 53.1413C55.9087 51.9379 56.5391 50.4337 56.5391 48.6286C56.5391 46.8236 55.9087 45.3337 54.648 44.159C53.416 42.9556 51.8115 42.3539 49.8346 42.3539ZM68.878 53.2702C67.8179 52.4966 66.987 51.5654 66.3853 50.4767C65.8122 49.3593 65.5257 48.1702 65.5257 46.9095C65.5257 45.391 65.9555 43.9871 66.8151 42.6977C67.7033 41.4084 68.9066 40.3913 70.4252 39.6463C71.9437 38.8727 73.6342 38.4859 75.4965 38.4859C77.3589 38.4859 79.0493 38.8727 80.5679 39.6463C82.1151 40.3913 83.3184 41.4084 84.178 42.6977C85.0662 43.9871 85.5103 45.391 85.5103 46.9095C85.5103 48.1702 85.2095 49.3449 84.6078 50.4337C84.0061 51.5225 83.1752 52.468 82.1151 53.2702C83.433 54.1298 84.4502 55.1899 85.1665 56.4506C85.9114 57.6826 86.2839 59.0149 86.2839 60.4475C86.2839 62.0806 85.8255 63.5848 84.9086 64.9601C83.9918 66.3354 82.7024 67.4242 81.0406 68.2264C79.4075 69.0287 77.5594 69.4298 75.4965 69.4298C73.4336 69.4298 71.5712 69.0287 69.9094 68.2264C68.2763 67.4242 67.0013 66.3354 66.0844 64.9601C65.1676 63.5848 64.7092 62.0806 64.7092 60.4475C64.7092 58.9862 65.0673 57.6396 65.7836 56.4076C66.5285 55.1469 67.56 54.1011 68.878 53.2702ZM75.4965 51.4652C77.1583 51.4652 78.5623 51.0211 79.7083 50.1329C80.8544 49.2446 81.4274 48.1702 81.4274 46.9095C81.4274 45.6489 80.8544 44.5744 79.7083 43.6862C78.5623 42.798 77.1583 42.3539 75.4965 42.3539C73.8347 42.3539 72.4308 42.798 71.2847 43.6862C70.1673 44.5744 69.6086 45.6489 69.6086 46.9095C69.6086 48.1702 70.1673 49.2446 71.2847 50.1329C72.4308 51.0211 73.8347 51.4652 75.4965 51.4652ZM75.4965 65.5618C76.7859 65.5618 77.9319 65.3326 78.9347 64.8742C79.9662 64.4157 80.7684 63.7997 81.3415 63.0261C81.9145 62.2525 82.201 61.393 82.201 60.4475C82.201 59.502 81.9145 58.6424 81.3415 57.8688C80.7684 57.0952 79.9662 56.4792 78.9347 56.0208C77.9319 55.5623 76.7859 55.3331 75.4965 55.3331C74.2072 55.3331 73.0468 55.5623 72.0153 56.0208C71.0125 56.4792 70.2246 57.0952 69.6516 57.8688C69.0785 58.6424 68.792 59.502 68.792 60.4475C68.792 61.393 69.0785 62.2525 69.6516 63.0261C70.2246 63.7997 71.0125 64.4157 72.0153 64.8742C73.0468 65.3326 74.2072 65.5618 75.4965 65.5618Z" fill="black" fill-opacity="0.53"/>
<defs>
<filter id="filter0_iii_2_948" x="81.5" y="72" width="278" height="280" filterUnits="userSpaceOnUse" color-interpolation-filters="sRGB">
<feFlood flood-opacity="0" result="BackgroundImageFix"/>
<feBlend mode="normal" in="SourceGraphic" in2="BackgroundImageFix" result="shape"/>
<feColorMatrix in="SourceAlpha" type="matrix" values="0 0 0 0 0 0 0 0 0 0 0 0 0 0 0 0 0 0 127 0" result="hardAlpha"/>
<feMorphology radius="8" operator="erode" in="SourceAlpha" result="effect1_innerShadow_2_948"/>
<feOffset dx="21" dy="13"/>
<feGaussianBlur stdDeviation="24"/>
<feComposite in2="hardAlpha" operator="arithmetic" k2="-1" k3="1"/>
<feColorMatrix type="matrix" values="0 0 0 0 0.682806 0 0 0 0 0.0652778 0 0 0 0 0.783333 0 0 0 0.14 0"/>
<feBlend mode="normal" in2="shape" result="effect1_innerShadow_2_948"/>
<feColorMatrix in="SourceAlpha" type="matrix" values="0 0 0 0 0 0 0 0 0 0 0 0 0 0 0 0 0 0 127 0" result="hardAlpha"/>
<feOffset dy="-18"/>
<feGaussianBlur stdDeviation="15.5"/>
<feComposite in2="hardAlpha" operator="arithmetic" k2="-1" k3="1"/>
<feColorMatrix type="matrix" values="0 0 0 0 0.943639 0 0 0 0 0.223611 0 0 0 0 0.958333 0 0 0 0.44 0"/>
<feBlend mode="normal" in2="effect1_innerShadow_2_948" result="effect2_innerShadow_2_948"/>
<feColorMatrix in="SourceAlpha" type="matrix" values="0 0 0 0 0 0 0 0 0 0 0 0 0 0 0 0 0 0 127 0" result="hardAlpha"/>
<feOffset dx="-11" dy="16"/>
<feGaussianBlur stdDeviation="15.5"/>
<feComposite in2="hardAlpha" operator="arithmetic" k2="-1" k3="1"/>
<feColorMatrix type="matrix" values="0 0 0 0 1 0 0 0 0 1 0 0 0 0 1 0 0 0 0.59 0"/>
<feBlend mode="normal" in2="effect2_innerShadow_2_948" result="effect3_innerShadow_2_948"/>
</filter>
<filter id="filter1_f_2_948" x="66.1395" y="136.64" width="171.721" height="171.721" filterUnits="userSpaceOnUse" color-interpolation-filters="sRGB">
<feFlood flood-opacity="0" result="BackgroundImageFix"/>
<feBlend mode="normal" in="SourceGraphic" in2="BackgroundImageFix" result="shape"/>
<feGaussianBlur stdDeviation="25.1802" result="effect1_foregroundBlur_2_948"/>
</filter>
<filter id="filter2_f_2_948" x="195.14" y="136.64" width="171.721" height="171.721" filterUnits="userSpaceOnUse" color-interpolation-filters="sRGB">
<feFlood flood-opacity="0" result="BackgroundImageFix"/>
<feBlend mode="normal" in="SourceGraphic" in2="BackgroundImageFix" result="shape"/>
<feGaussianBlur stdDeviation="25.1802" result="effect1_foregroundBlur_2_948"/>
</filter>
<filter id="filter3_d_2_948" x="213.149" y="128.67" width="99.7021" height="99.7021" filterUnits="userSpaceOnUse" color-interpolation-filters="sRGB">
<feFlood flood-opacity="0" result="BackgroundImageFix"/>
<feColorMatrix in="SourceAlpha" type="matrix" values="0 0 0 0 0 0 0 0 0 0 0 0 0 0 0 0 0 0 127 0" result="hardAlpha"/>
<feOffset dy="3.02128"/>
<feGaussianBlur stdDeviation="7.17553"/>
<feColorMatrix type="matrix" values="0 0 0 0 0 0 0 0 0 0 0 0 0 0 0 0 0 0 0.25 0"/>
<feBlend mode="normal" in2="BackgroundImageFix" result="effect1_dropShadow_2_948"/>
<feBlend mode="normal" in="SourceGraphic" in2="effect1_dropShadow_2_948" result="shape"/>
</filter>
<filter id="filter4_i_2_948" x="227.5" y="136.45" width="71" height="74.55" filterUnits="userSpaceOnUse" color-interpolation-filters="sRGB">
<feFlood flood-opacity="0" result="BackgroundImageFix"/>
<feBlend mode="normal" in="SourceGraphic" in2="BackgroundImageFix" result="shape"/>
<feColorMatrix in="SourceAlpha" type="matrix" values="0 0 0 0 0 0 0 0 0 0 0 0 0 0 0 0 0 0 127 0" result="hardAlpha"/>
<feOffset dy="-3.55"/>
<feGaussianBlur stdDeviation="8.875"/>
<feComposite in2="hardAlpha" operator="arithmetic" k2="-1" k3="1"/>
<feColorMatrix type="matrix" values="0 0 0 0 0 0 0 0 0 0 0 0 0 0 0 0 0 0 0.25 0"/>
<feBlend mode="normal" in2="shape" result="effect1_innerShadow_2_948"/>
</filter>
<filter id="filter5_i_2_948" x="233" y="141.45" width="60" height="64.55" filterUnits="userSpaceOnUse" color-interpolation-filters="sRGB">
<feFlood flood-opacity="0" result="BackgroundImageFix"/>
<feBlend mode="normal" in="SourceGraphic" in2="BackgroundImageFix" result="shape"/>
<feColorMatrix in="SourceAlpha" type="matrix" values="0 0 0 0 0 0 0 0 0 0 0 0 0 0 0 0 0 0 127 0" result="hardAlpha"/>
<feOffset dy="-3.55"/>
<feGaussianBlur stdDeviation="8.875"/>
<feComposite in2="hardAlpha" operator="arithmetic" k2="-1" k3="1"/>
<feColorMatrix type="matrix" values="0 0 0 0 0 0 0 0 0 0 0 0 0 0 0 0 0 0 0.25 0"/>
<feBlend mode="normal" in2="shape" result="effect1_innerShadow_2_948"/>
</filter>
<filter id="filter6_i_2_948" x="241" y="154" width="37.5" height="36" filterUnits="userSpaceOnUse" color-interpolation-filters="sRGB">
<feFlood flood-opacity="0" result="BackgroundImageFix"/>
<feBlend mode="normal" in="SourceGraphic" in2="BackgroundImageFix" result="shape"/>
<feColorMatrix in="SourceAlpha" type="matrix" values="0 0 0 0 0 0 0 0 0 0 0 0 0 0 0 0 0 0 127 0" result="hardAlpha"/>
<feMorphology radius="31.2004" operator="dilate" in="SourceAlpha" result="effect1_innerShadow_2_948"/>
<feOffset dy="-6"/>
<feGaussianBlur stdDeviation="12.2088"/>
<feComposite in2="hardAlpha" operator="arithmetic" k2="-1" k3="1"/>
<feColorMatrix type="matrix" values="0 0 0 0 0.958333 0 0 0 0 0.958333 0 0 0 0 0.958333 0 0 0 0.28 0"/>
<feBlend mode="normal" in2="shape" result="effect1_innerShadow_2_948"/>
</filter>
<filter id="filter7_i_2_948" x="234" y="185.067" width="58" height="62.0646" filterUnits="userSpaceOnUse" color-interpolation-filters="sRGB">
<feFlood flood-opacity="0" result="BackgroundImageFix"/>
<feBlend mode="normal" in="SourceGraphic" in2="BackgroundImageFix" result="shape"/>
<feColorMatrix in="SourceAlpha" type="matrix" values="0 0 0 0 0 0 0 0 0 0 0 0 0 0 0 0 0 0 127 0" result="hardAlpha"/>
<feOffset dy="-8.06461"/>
<feGaussianBlur stdDeviation="7.48857"/>
<feComposite in2="hardAlpha" operator="arithmetic" k2="-1" k3="1"/>
<feColorMatrix type="matrix" values="0 0 0 0 0.708628 0 0 0 0 0.186858 0 0 0 0 0.954167 0 0 0 0.22 0"/>
<feBlend mode="normal" in2="shape" result="effect1_innerShadow_2_948"/>
</filter>
<filter id="filter8_f_2_948" x="220.728" y="163.115" width="95.113" height="91.8271" filterUnits="userSpaceOnUse" color-interpolation-filters="sRGB">
<feFlood flood-opacity="0" result="BackgroundImageFix"/>
<feBlend mode="normal" in="SourceGraphic" in2="BackgroundImageFix" result="shape"/>
<feGaussianBlur stdDeviation="16" result="effect1_foregroundBlur_2_948"/>
</filter>
<filter id="filter9_d_2_948" x="118.149" y="128.67" width="99.7021" height="99.7021" filterUnits="userSpaceOnUse" color-interpolation-filters="sRGB">
<feFlood flood-opacity="0" result="BackgroundImageFix"/>
<feColorMatrix in="SourceAlpha" type="matrix" values="0 0 0 0 0 0 0 0 0 0 0 0 0 0 0 0 0 0 127 0" result="hardAlpha"/>
<feOffset dy="3.02128"/>
<feGaussianBlur stdDeviation="7.17553"/>
<feColorMatrix type="matrix" values="0 0 0 0 0 0 0 0 0 0 0 0 0 0 0 0 0 0 0.25 0"/>
<feBlend mode="normal" in2="BackgroundImageFix" result="effect1_dropShadow_2_948"/>
<feBlend mode="normal" in="SourceGraphic" in2="effect1_dropShadow_2_948" result="shape"/>
</filter>
<filter id="filter10_i_2_948" x="132.5" y="136.45" width="71" height="74.55" filterUnits="userSpaceOnUse" color-interpolation-filters="sRGB">
<feFlood flood-opacity="0" result="BackgroundImageFix"/>
<feBlend mode="normal" in="SourceGraphic" in2="BackgroundImageFix" result="shape"/>
<feColorMatrix in="SourceAlpha" type="matrix" values="0 0 0 0 0 0 0 0 0 0 0 0 0 0 0 0 0 0 127 0" result="hardAlpha"/>
<feOffset dy="-3.55"/>
<feGaussianBlur stdDeviation="8.875"/>
<feComposite in2="hardAlpha" operator="arithmetic" k2="-1" k3="1"/>
<feColorMatrix type="matrix" values="0 0 0 0 0 0 0 0 0 0 0 0 0 0 0 0 0 0 0.25 0"/>
<feBlend mode="normal" in2="shape" result="effect1_innerShadow_2_948"/>
</filter>
<filter id="filter11_i_2_948" x="138" y="141.45" width="60" height="64.55" filterUnits="userSpaceOnUse" color-interpolation-filters="sRGB">
<feFlood flood-opacity="0" result="BackgroundImageFix"/>
<feBlend mode="normal" in="SourceGraphic" in2="BackgroundImageFix" result="shape"/>
<feColorMatrix in="SourceAlpha" type="matrix" values="0 0 0 0 0 0 0 0 0 0 0 0 0 0 0 0 0 0 127 0" result="hardAlpha"/>
<feOffset dy="-3.55"/>
<feGaussianBlur stdDeviation="8.875"/>
<feComposite in2="hardAlpha" operator="arithmetic" k2="-1" k3="1"/>
<feColorMatrix type="matrix" values="0 0 0 0 0 0 0 0 0 0 0 0 0 0 0 0 0 0 0.25 0"/>
<feBlend mode="normal" in2="shape" result="effect1_innerShadow_2_948"/>
</filter>
<filter id="filter12_i_2_948" x="146" y="154" width="37.5" height="36" filterUnits="userSpaceOnUse" color-interpolation-filters="sRGB">
<feFlood flood-opacity="0" result="BackgroundImageFix"/>
<feBlend mode="normal" in="SourceGraphic" in2="BackgroundImageFix" result="shape"/>
<feColorMatrix in="SourceAlpha" type="matrix" values="0 0 0 0 0 0 0 0 0 0 0 0 0 0 0 0 0 0 127 0" result="hardAlpha"/>
<feMorphology radius="31.2004" operator="dilate" in="SourceAlpha" result="effect1_innerShadow_2_948"/>
<feOffset dy="-6"/>
<feGaussianBlur stdDeviation="12.2088"/>
<feComposite in2="hardAlpha" operator="arithmetic" k2="-1" k3="1"/>
<feColorMatrix type="matrix" values="0 0 0 0 0.958333 0 0 0 0 0.958333 0 0 0 0 0.958333 0 0 0 0.28 0"/>
<feBlend mode="normal" in2="shape" result="effect1_innerShadow_2_948"/>
</filter>
<filter id="filter13_i_2_948" x="139" y="185.067" width="58" height="62.0646" filterUnits="userSpaceOnUse" color-interpolation-filters="sRGB">
<feFlood flood-opacity="0" result="BackgroundImageFix"/>
<feBlend mode="normal" in="SourceGraphic" in2="BackgroundImageFix" result="shape"/>
<feColorMatrix in="SourceAlpha" type="matrix" values="0 0 0 0 0 0 0 0 0 0 0 0 0 0 0 0 0 0 127 0" result="hardAlpha"/>
<feOffset dy="-8.06461"/>
<feGaussianBlur stdDeviation="7.48857"/>
<feComposite in2="hardAlpha" operator="arithmetic" k2="-1" k3="1"/>
<feColorMatrix type="matrix" values="0 0 0 0 0.708628 0 0 0 0 0.186858 0 0 0 0 0.954167 0 0 0 0.22 0"/>
<feBlend mode="normal" in2="shape" result="effect1_innerShadow_2_948"/>
</filter>
<filter id="filter14_f_2_948" x="125.728" y="163.115" width="95.113" height="91.8271" filterUnits="userSpaceOnUse" color-interpolation-filters="sRGB">
<feFlood flood-opacity="0" result="BackgroundImageFix"/>
<feBlend mode="normal" in="SourceGraphic" in2="BackgroundImageFix" result="shape"/>
<feGaussianBlur stdDeviation="16" result="effect1_foregroundBlur_2_948"/>
</filter>
<filter id="filter15_diiii_2_948" x="118.724" y="208.333" width="194.552" height="127.167" filterUnits="userSpaceOnUse" color-interpolation-filters="sRGB">
<feFlood flood-opacity="0" result="BackgroundImageFix"/>
<feColorMatrix in="SourceAlpha" type="matrix" values="0 0 0 0 0 0 0 0 0 0 0 0 0 0 0 0 0 0 127 0" result="hardAlpha"/>
<feOffset dy="16.6667"/>
<feGaussianBlur stdDeviation="16.6667"/>
<feColorMatrix type="matrix" values="0 0 0 0 0.0298758 0 0 0 0 0.0216858 0 0 0 0 0.0308333 0 0 0 0.24 0"/>
<feBlend mode="normal" in2="BackgroundImageFix" result="effect1_dropShadow_2_948"/>
<feBlend mode="normal" in="SourceGraphic" in2="effect1_dropShadow_2_948" result="shape"/>
<feColorMatrix in="SourceAlpha" type="matrix" values="0 0 0 0 0 0 0 0 0 0 0 0 0 0 0 0 0 0 127 0" result="hardAlpha"/>
<feOffset dy="5.18518"/>
<feGaussianBlur stdDeviation="2.59259"/>
<feComposite in2="hardAlpha" operator="arithmetic" k2="-1" k3="1"/>
<feColorMatrix type="matrix" values="0 0 0 0 0.17328 0 0 0 0 0.125777 0 0 0 0 0.178833 0 0 0 1 0"/>
<feBlend mode="normal" in2="shape" result="effect2_innerShadow_2_948"/>
<feColorMatrix in="SourceAlpha" type="matrix" values="0 0 0 0 0 0 0 0 0 0 0 0 0 0 0 0 0 0 127 0" result="hardAlpha"/>
<feOffset dy="-2.59259"/>
<feGaussianBlur stdDeviation="1.2963"/>
<feComposite in2="hardAlpha" operator="arithmetic" k2="-1" k3="1"/>
<feColorMatrix type="matrix" values="0 0 0 0 0.119503 0 0 0 0 0.086743 0 0 0 0 0.123333 0 0 0 1 0"/>
<feBlend mode="normal" in2="effect2_innerShadow_2_948" result="effect3_innerShadow_2_948"/>
<feColorMatrix in="SourceAlpha" type="matrix" values="0 0 0 0 0 0 0 0 0 0 0 0 0 0 0 0 0 0 127 0" result="hardAlpha"/>
<feMorphology radius="26.45" operator="dilate" in="SourceAlpha" result="effect4_innerShadow_2_948"/>
<feOffset dx="9.2" dy="-9"/>
<feGaussianBlur stdDeviation="10.35"/>
<feComposite in2="hardAlpha" operator="arithmetic" k2="-1" k3="1"/>
<feColorMatrix type="matrix" values="0 0 0 0 0.462111 0 0 0 0 0.203767 0 0 0 0 0.504167 0 0 0 0.35 0"/>
<feBlend mode="normal" in2="effect3_innerShadow_2_948" result="effect4_innerShadow_2_948"/>
<feColorMatrix in="SourceAlpha" type="matrix" values="0 0 0 0 0 0 0 0 0 0 0 0 0 0 0 0 0 0 127 0" result="hardAlpha"/>
<feMorphology radius="26.45" operator="dilate" in="SourceAlpha" result="effect5_innerShadow_2_948"/>
<feOffset dx="9.2" dy="-9"/>
<feGaussianBlur stdDeviation="10.35"/>
<feComposite in2="hardAlpha" operator="arithmetic" k2="-1" k3="1"/>
<feColorMatrix type="matrix" values="0 0 0 0 0.462111 0 0 0 0 0.203767 0 0 0 0 0.504167 0 0 0 0.35 0"/>
<feBlend mode="normal" in2="effect4_innerShadow_2_948" result="effect5_innerShadow_2_948"/>
</filter>
<linearGradient id="paint0_linear_2_948" x1="215" y1="0" x2="215" y2="491" gradientUnits="userSpaceOnUse">
<stop stop-color="#F5F5F5"/>
<stop offset="1" stop-color="#F4F1F4"/>
</linearGradient>
<radialGradient id="paint1_radial_2_948" cx="0" cy="0" r="1" gradientUnits="userSpaceOnUse" gradientTransform="translate(201.5 106) rotate(86.5167) scale(230.426)">
<stop stop-color="#FFBB0C"/>
<stop offset="1" stop-color="#FFC907"/>
</radialGradient>
<linearGradient id="paint2_linear_2_948" x1="263" y1="247.131" x2="262.929" y2="193.171" gradientUnits="userSpaceOnUse">
<stop stop-color="#3FEEC4"/>
<stop offset="1" stop-color="#43BBFF"/>
</linearGradient>
<linearGradient id="paint3_linear_2_948" x1="168" y1="247.131" x2="167.929" y2="193.171" gradientUnits="userSpaceOnUse">
<stop stop-color="#3FEEC4"/>
<stop offset="1" stop-color="#43BBFF"/>
</linearGradient>
<linearGradient id="paint4_linear_2_948" x1="216" y1="164.5" x2="216" y2="285.5" gradientUnits="userSpaceOnUse">
<stop stop-color="#201721"/>
<stop offset="1" stop-color="#2B1F2C"/>
</linearGradient>
<clipPath id="clip0_2_948">
<rect width="246" height="246" fill="white" transform="translate(92.5 90)"/>
</clipPath>
<clipPath id="clip1_2_948">
<rect width="71" height="71" rx="35.5" transform="matrix(1 0 0 -1 227.5 211)" fill="white"/>
</clipPath>
<clipPath id="clip2_2_948">
<rect width="71" height="71" rx="35.5" transform="matrix(1 0 0 -1 132.5 211)" fill="white"/>
</clipPath>
</defs>
</svg>
