<svg width="247" height="246" viewBox="0 0 247 246" fill="none" xmlns="http://www.w3.org/2000/svg">
<g clip-path="url(#clip0_2_950)">
<g filter="url(#filter0_iii_2_950)">
<path d="M0.5 115C0.5 51.4872 51.9873 0 115.5 0H127.5C193.222 0 246.5 53.2781 246.5 119V127C246.5 192.722 193.222 246 127.5 246H123.5C55.569 246 0.5 190.931 0.5 123V115Z" fill="url(#paint0_radial_2_950)"/>
</g>
<g filter="url(#filter1_f_2_950)">
<circle cx="60" cy="132.5" r="35.5" fill="#FF4242"/>
</g>
<g filter="url(#filter2_f_2_950)">
<circle cx="189" cy="132.5" r="35.5" fill="#FF4242"/>
</g>
<g filter="url(#filter3_d_2_950)">
<g clip-path="url(#clip1_2_950)">
<g filter="url(#filter4_i_2_950)">
<circle cx="35.5" cy="35.5" r="35.5" transform="matrix(1 0 0 -1 135.5 121)" fill="white"/>
</g>
<g filter="url(#filter5_i_2_950)">
<ellipse cx="30" cy="30.5" rx="30" ry="30.5" transform="matrix(1 0 0 -1 141 116)" fill="#141414"/>
</g>
<g filter="url(#filter6_i_2_950)">
<path fill-rule="evenodd" clip-rule="evenodd" d="M179 100C174.858 100 171.5 96.6421 171.5 92.5C171.5 91.1625 171.85 89.9068 172.464 88.8195C169.975 90.9934 166.719 92.3104 163.155 92.3104C155.337 92.3104 149 85.9729 149 78.1552C149 70.3375 155.337 64 163.155 64C170.973 64 177.31 70.3375 177.31 78.1552C177.31 81.214 176.34 84.0462 174.691 86.3608C175.91 85.5034 177.396 85 179 85C183.142 85 186.5 88.3579 186.5 92.5C186.5 96.6421 183.142 100 179 100Z" fill="#ECECEC"/>
</g>
<g filter="url(#filter7_i_2_950)">
<path d="M171.604 157.131L191.876 131.971C191.876 131.971 219.996 104.328 171.604 103.164C123.212 102 148.716 131.971 148.716 131.971L171.604 157.131Z" fill="url(#paint1_linear_2_950)"/>
</g>
<g filter="url(#filter8_f_2_950)">
<ellipse cx="13.5991" cy="15.8278" rx="13.5991" ry="15.8278" transform="matrix(0.984939 -0.172901 -0.499571 -0.866273 170.798 135.091)" fill="white" fill-opacity="0.81"/>
</g>
</g>
</g>
<g filter="url(#filter9_d_2_950)">
<g clip-path="url(#clip2_2_950)">
<g filter="url(#filter10_i_2_950)">
<circle cx="35.5" cy="35.5" r="35.5" transform="matrix(1 0 0 -1 40.5 121)" fill="white"/>
</g>
<g filter="url(#filter11_i_2_950)">
<ellipse cx="30" cy="30.5" rx="30" ry="30.5" transform="matrix(1 0 0 -1 46 116)" fill="#141414"/>
</g>
<g filter="url(#filter12_i_2_950)">
<path fill-rule="evenodd" clip-rule="evenodd" d="M84 100C79.8579 100 76.5 96.6421 76.5 92.5C76.5 91.1625 76.8501 89.9068 77.4636 88.8195C74.9752 90.9934 71.719 92.3104 68.1552 92.3104C60.3375 92.3104 54 85.9729 54 78.1552C54 70.3375 60.3375 64 68.1552 64C75.9729 64 82.3104 70.3375 82.3104 78.1552C82.3104 81.214 81.3402 84.0462 79.6907 86.3608C80.91 85.5034 82.3962 85 84 85C88.1421 85 91.5 88.3579 91.5 92.5C91.5 96.6421 88.1421 100 84 100Z" fill="#ECECEC"/>
</g>
<g filter="url(#filter13_i_2_950)">
<path d="M76.604 157.131L96.8763 131.971C96.8763 131.971 124.996 104.328 76.604 103.164C28.2124 102 53.716 131.971 53.716 131.971L76.604 157.131Z" fill="url(#paint2_linear_2_950)"/>
</g>
<g filter="url(#filter14_f_2_950)">
<ellipse cx="13.5991" cy="15.8278" rx="13.5991" ry="15.8278" transform="matrix(0.984939 -0.172901 -0.499571 -0.866273 75.7977 135.091)" fill="white" fill-opacity="0.81"/>
</g>
</g>
</g>
<g filter="url(#filter15_diiii_2_950)">
<mask id="path-16-inside-1_2_950" fill="white">
<path d="M179.962 135C184.678 135 188.565 138.844 187.859 143.506C187.099 148.526 185.668 153.447 183.59 158.152C180.349 165.493 175.598 172.162 169.608 177.78C163.619 183.398 156.509 187.854 148.683 190.895C140.858 193.935 132.47 195.5 124 195.5C115.53 195.5 107.142 193.935 99.3169 190.895C91.4914 187.854 84.381 183.398 78.3916 177.78C72.4022 172.162 67.6512 165.493 64.4098 158.152C62.332 153.447 60.9006 148.526 60.1406 143.506C59.4348 138.844 63.3225 135 68.0377 135C72.753 135 76.4891 138.861 77.4448 143.478C78.0493 146.399 78.9659 149.262 80.1854 152.023C82.5687 157.42 86.062 162.324 90.4658 166.455C94.8695 170.585 100.098 173.862 105.851 176.097C111.605 178.333 117.772 179.483 124 179.483C130.228 179.483 136.395 178.333 142.149 176.097C147.902 173.862 153.13 170.585 157.534 166.455C161.938 162.324 165.431 157.42 167.815 152.023C169.034 149.262 169.951 146.399 170.555 143.478C171.511 138.861 175.247 135 179.962 135Z"/>
</mask>
<path d="M179.962 135C184.678 135 188.565 138.844 187.859 143.506C187.099 148.526 185.668 153.447 183.59 158.152C180.349 165.493 175.598 172.162 169.608 177.78C163.619 183.398 156.509 187.854 148.683 190.895C140.858 193.935 132.47 195.5 124 195.5C115.53 195.5 107.142 193.935 99.3169 190.895C91.4914 187.854 84.381 183.398 78.3916 177.78C72.4022 172.162 67.6512 165.493 64.4098 158.152C62.332 153.447 60.9006 148.526 60.1406 143.506C59.4348 138.844 63.3225 135 68.0377 135C72.753 135 76.4891 138.861 77.4448 143.478C78.0493 146.399 78.9659 149.262 80.1854 152.023C82.5687 157.42 86.062 162.324 90.4658 166.455C94.8695 170.585 100.098 173.862 105.851 176.097C111.605 178.333 117.772 179.483 124 179.483C130.228 179.483 136.395 178.333 142.149 176.097C147.902 173.862 153.13 170.585 157.534 166.455C161.938 162.324 165.431 157.42 167.815 152.023C169.034 149.262 169.951 146.399 170.555 143.478C171.511 138.861 175.247 135 179.962 135Z" stroke="url(#paint3_linear_2_950)" stroke-width="22" stroke-linejoin="round" mask="url(#path-16-inside-1_2_950)"/>
</g>
</g>
<defs>
<filter id="filter0_iii_2_950" x="-10.5" y="-18" width="278" height="280" filterUnits="userSpaceOnUse" color-interpolation-filters="sRGB">
<feFlood flood-opacity="0" result="BackgroundImageFix"/>
<feBlend mode="normal" in="SourceGraphic" in2="BackgroundImageFix" result="shape"/>
<feColorMatrix in="SourceAlpha" type="matrix" values="0 0 0 0 0 0 0 0 0 0 0 0 0 0 0 0 0 0 127 0" result="hardAlpha"/>
<feMorphology radius="8" operator="erode" in="SourceAlpha" result="effect1_innerShadow_2_950"/>
<feOffset dx="21" dy="13"/>
<feGaussianBlur stdDeviation="24"/>
<feComposite in2="hardAlpha" operator="arithmetic" k2="-1" k3="1"/>
<feColorMatrix type="matrix" values="0 0 0 0 0.682806 0 0 0 0 0.0652778 0 0 0 0 0.783333 0 0 0 0.14 0"/>
<feBlend mode="normal" in2="shape" result="effect1_innerShadow_2_950"/>
<feColorMatrix in="SourceAlpha" type="matrix" values="0 0 0 0 0 0 0 0 0 0 0 0 0 0 0 0 0 0 127 0" result="hardAlpha"/>
<feOffset dy="-18"/>
<feGaussianBlur stdDeviation="15.5"/>
<feComposite in2="hardAlpha" operator="arithmetic" k2="-1" k3="1"/>
<feColorMatrix type="matrix" values="0 0 0 0 0.943639 0 0 0 0 0.223611 0 0 0 0 0.958333 0 0 0 0.44 0"/>
<feBlend mode="normal" in2="effect1_innerShadow_2_950" result="effect2_innerShadow_2_950"/>
<feColorMatrix in="SourceAlpha" type="matrix" values="0 0 0 0 0 0 0 0 0 0 0 0 0 0 0 0 0 0 127 0" result="hardAlpha"/>
<feOffset dx="-11" dy="16"/>
<feGaussianBlur stdDeviation="15.5"/>
<feComposite in2="hardAlpha" operator="arithmetic" k2="-1" k3="1"/>
<feColorMatrix type="matrix" values="0 0 0 0 1 0 0 0 0 1 0 0 0 0 1 0 0 0 0.59 0"/>
<feBlend mode="normal" in2="effect2_innerShadow_2_950" result="effect3_innerShadow_2_950"/>
</filter>
<filter id="filter1_f_2_950" x="-25.8605" y="46.6395" width="171.721" height="171.721" filterUnits="userSpaceOnUse" color-interpolation-filters="sRGB">
<feFlood flood-opacity="0" result="BackgroundImageFix"/>
<feBlend mode="normal" in="SourceGraphic" in2="BackgroundImageFix" result="shape"/>
<feGaussianBlur stdDeviation="25.1802" result="effect1_foregroundBlur_2_950"/>
</filter>
<filter id="filter2_f_2_950" x="103.14" y="46.6395" width="171.721" height="171.721" filterUnits="userSpaceOnUse" color-interpolation-filters="sRGB">
<feFlood flood-opacity="0" result="BackgroundImageFix"/>
<feBlend mode="normal" in="SourceGraphic" in2="BackgroundImageFix" result="shape"/>
<feGaussianBlur stdDeviation="25.1802" result="effect1_foregroundBlur_2_950"/>
</filter>
<filter id="filter3_d_2_950" x="121.149" y="38.6702" width="99.7021" height="99.7021" filterUnits="userSpaceOnUse" color-interpolation-filters="sRGB">
<feFlood flood-opacity="0" result="BackgroundImageFix"/>
<feColorMatrix in="SourceAlpha" type="matrix" values="0 0 0 0 0 0 0 0 0 0 0 0 0 0 0 0 0 0 127 0" result="hardAlpha"/>
<feOffset dy="3.02128"/>
<feGaussianBlur stdDeviation="7.17553"/>
<feColorMatrix type="matrix" values="0 0 0 0 0 0 0 0 0 0 0 0 0 0 0 0 0 0 0.25 0"/>
<feBlend mode="normal" in2="BackgroundImageFix" result="effect1_dropShadow_2_950"/>
<feBlend mode="normal" in="SourceGraphic" in2="effect1_dropShadow_2_950" result="shape"/>
</filter>
<filter id="filter4_i_2_950" x="135.5" y="46.45" width="71" height="74.55" filterUnits="userSpaceOnUse" color-interpolation-filters="sRGB">
<feFlood flood-opacity="0" result="BackgroundImageFix"/>
<feBlend mode="normal" in="SourceGraphic" in2="BackgroundImageFix" result="shape"/>
<feColorMatrix in="SourceAlpha" type="matrix" values="0 0 0 0 0 0 0 0 0 0 0 0 0 0 0 0 0 0 127 0" result="hardAlpha"/>
<feOffset dy="-3.55"/>
<feGaussianBlur stdDeviation="8.875"/>
<feComposite in2="hardAlpha" operator="arithmetic" k2="-1" k3="1"/>
<feColorMatrix type="matrix" values="0 0 0 0 0 0 0 0 0 0 0 0 0 0 0 0 0 0 0.25 0"/>
<feBlend mode="normal" in2="shape" result="effect1_innerShadow_2_950"/>
</filter>
<filter id="filter5_i_2_950" x="141" y="51.45" width="60" height="64.55" filterUnits="userSpaceOnUse" color-interpolation-filters="sRGB">
<feFlood flood-opacity="0" result="BackgroundImageFix"/>
<feBlend mode="normal" in="SourceGraphic" in2="BackgroundImageFix" result="shape"/>
<feColorMatrix in="SourceAlpha" type="matrix" values="0 0 0 0 0 0 0 0 0 0 0 0 0 0 0 0 0 0 127 0" result="hardAlpha"/>
<feOffset dy="-3.55"/>
<feGaussianBlur stdDeviation="8.875"/>
<feComposite in2="hardAlpha" operator="arithmetic" k2="-1" k3="1"/>
<feColorMatrix type="matrix" values="0 0 0 0 0 0 0 0 0 0 0 0 0 0 0 0 0 0 0.25 0"/>
<feBlend mode="normal" in2="shape" result="effect1_innerShadow_2_950"/>
</filter>
<filter id="filter6_i_2_950" x="149" y="64" width="37.5" height="36" filterUnits="userSpaceOnUse" color-interpolation-filters="sRGB">
<feFlood flood-opacity="0" result="BackgroundImageFix"/>
<feBlend mode="normal" in="SourceGraphic" in2="BackgroundImageFix" result="shape"/>
<feColorMatrix in="SourceAlpha" type="matrix" values="0 0 0 0 0 0 0 0 0 0 0 0 0 0 0 0 0 0 127 0" result="hardAlpha"/>
<feMorphology radius="31.2004" operator="dilate" in="SourceAlpha" result="effect1_innerShadow_2_950"/>
<feOffset dy="-6"/>
<feGaussianBlur stdDeviation="12.2088"/>
<feComposite in2="hardAlpha" operator="arithmetic" k2="-1" k3="1"/>
<feColorMatrix type="matrix" values="0 0 0 0 0.958333 0 0 0 0 0.958333 0 0 0 0 0.958333 0 0 0 0.28 0"/>
<feBlend mode="normal" in2="shape" result="effect1_innerShadow_2_950"/>
</filter>
<filter id="filter7_i_2_950" x="142" y="95.0667" width="58" height="62.0646" filterUnits="userSpaceOnUse" color-interpolation-filters="sRGB">
<feFlood flood-opacity="0" result="BackgroundImageFix"/>
<feBlend mode="normal" in="SourceGraphic" in2="BackgroundImageFix" result="shape"/>
<feColorMatrix in="SourceAlpha" type="matrix" values="0 0 0 0 0 0 0 0 0 0 0 0 0 0 0 0 0 0 127 0" result="hardAlpha"/>
<feOffset dy="-8.06461"/>
<feGaussianBlur stdDeviation="7.48857"/>
<feComposite in2="hardAlpha" operator="arithmetic" k2="-1" k3="1"/>
<feColorMatrix type="matrix" values="0 0 0 0 0.708628 0 0 0 0 0.186858 0 0 0 0 0.954167 0 0 0 0.22 0"/>
<feBlend mode="normal" in2="shape" result="effect1_innerShadow_2_950"/>
</filter>
<filter id="filter8_f_2_950" x="128.728" y="73.1145" width="95.113" height="91.8271" filterUnits="userSpaceOnUse" color-interpolation-filters="sRGB">
<feFlood flood-opacity="0" result="BackgroundImageFix"/>
<feBlend mode="normal" in="SourceGraphic" in2="BackgroundImageFix" result="shape"/>
<feGaussianBlur stdDeviation="16" result="effect1_foregroundBlur_2_950"/>
</filter>
<filter id="filter9_d_2_950" x="26.1489" y="38.6702" width="99.7021" height="99.7021" filterUnits="userSpaceOnUse" color-interpolation-filters="sRGB">
<feFlood flood-opacity="0" result="BackgroundImageFix"/>
<feColorMatrix in="SourceAlpha" type="matrix" values="0 0 0 0 0 0 0 0 0 0 0 0 0 0 0 0 0 0 127 0" result="hardAlpha"/>
<feOffset dy="3.02128"/>
<feGaussianBlur stdDeviation="7.17553"/>
<feColorMatrix type="matrix" values="0 0 0 0 0 0 0 0 0 0 0 0 0 0 0 0 0 0 0.25 0"/>
<feBlend mode="normal" in2="BackgroundImageFix" result="effect1_dropShadow_2_950"/>
<feBlend mode="normal" in="SourceGraphic" in2="effect1_dropShadow_2_950" result="shape"/>
</filter>
<filter id="filter10_i_2_950" x="40.5" y="46.45" width="71" height="74.55" filterUnits="userSpaceOnUse" color-interpolation-filters="sRGB">
<feFlood flood-opacity="0" result="BackgroundImageFix"/>
<feBlend mode="normal" in="SourceGraphic" in2="BackgroundImageFix" result="shape"/>
<feColorMatrix in="SourceAlpha" type="matrix" values="0 0 0 0 0 0 0 0 0 0 0 0 0 0 0 0 0 0 127 0" result="hardAlpha"/>
<feOffset dy="-3.55"/>
<feGaussianBlur stdDeviation="8.875"/>
<feComposite in2="hardAlpha" operator="arithmetic" k2="-1" k3="1"/>
<feColorMatrix type="matrix" values="0 0 0 0 0 0 0 0 0 0 0 0 0 0 0 0 0 0 0.25 0"/>
<feBlend mode="normal" in2="shape" result="effect1_innerShadow_2_950"/>
</filter>
<filter id="filter11_i_2_950" x="46" y="51.45" width="60" height="64.55" filterUnits="userSpaceOnUse" color-interpolation-filters="sRGB">
<feFlood flood-opacity="0" result="BackgroundImageFix"/>
<feBlend mode="normal" in="SourceGraphic" in2="BackgroundImageFix" result="shape"/>
<feColorMatrix in="SourceAlpha" type="matrix" values="0 0 0 0 0 0 0 0 0 0 0 0 0 0 0 0 0 0 127 0" result="hardAlpha"/>
<feOffset dy="-3.55"/>
<feGaussianBlur stdDeviation="8.875"/>
<feComposite in2="hardAlpha" operator="arithmetic" k2="-1" k3="1"/>
<feColorMatrix type="matrix" values="0 0 0 0 0 0 0 0 0 0 0 0 0 0 0 0 0 0 0.25 0"/>
<feBlend mode="normal" in2="shape" result="effect1_innerShadow_2_950"/>
</filter>
<filter id="filter12_i_2_950" x="54" y="64" width="37.5" height="36" filterUnits="userSpaceOnUse" color-interpolation-filters="sRGB">
<feFlood flood-opacity="0" result="BackgroundImageFix"/>
<feBlend mode="normal" in="SourceGraphic" in2="BackgroundImageFix" result="shape"/>
<feColorMatrix in="SourceAlpha" type="matrix" values="0 0 0 0 0 0 0 0 0 0 0 0 0 0 0 0 0 0 127 0" result="hardAlpha"/>
<feMorphology radius="31.2004" operator="dilate" in="SourceAlpha" result="effect1_innerShadow_2_950"/>
<feOffset dy="-6"/>
<feGaussianBlur stdDeviation="12.2088"/>
<feComposite in2="hardAlpha" operator="arithmetic" k2="-1" k3="1"/>
<feColorMatrix type="matrix" values="0 0 0 0 0.958333 0 0 0 0 0.958333 0 0 0 0 0.958333 0 0 0 0.28 0"/>
<feBlend mode="normal" in2="shape" result="effect1_innerShadow_2_950"/>
</filter>
<filter id="filter13_i_2_950" x="47.0001" y="95.0667" width="58" height="62.0646" filterUnits="userSpaceOnUse" color-interpolation-filters="sRGB">
<feFlood flood-opacity="0" result="BackgroundImageFix"/>
<feBlend mode="normal" in="SourceGraphic" in2="BackgroundImageFix" result="shape"/>
<feColorMatrix in="SourceAlpha" type="matrix" values="0 0 0 0 0 0 0 0 0 0 0 0 0 0 0 0 0 0 127 0" result="hardAlpha"/>
<feOffset dy="-8.06461"/>
<feGaussianBlur stdDeviation="7.48857"/>
<feComposite in2="hardAlpha" operator="arithmetic" k2="-1" k3="1"/>
<feColorMatrix type="matrix" values="0 0 0 0 0.708628 0 0 0 0 0.186858 0 0 0 0 0.954167 0 0 0 0.22 0"/>
<feBlend mode="normal" in2="shape" result="effect1_innerShadow_2_950"/>
</filter>
<filter id="filter14_f_2_950" x="33.7284" y="73.1145" width="95.113" height="91.8271" filterUnits="userSpaceOnUse" color-interpolation-filters="sRGB">
<feFlood flood-opacity="0" result="BackgroundImageFix"/>
<feBlend mode="normal" in="SourceGraphic" in2="BackgroundImageFix" result="shape"/>
<feGaussianBlur stdDeviation="16" result="effect1_foregroundBlur_2_950"/>
</filter>
<filter id="filter15_diiii_2_950" x="26.7242" y="118.333" width="194.552" height="127.167" filterUnits="userSpaceOnUse" color-interpolation-filters="sRGB">
<feFlood flood-opacity="0" result="BackgroundImageFix"/>
<feColorMatrix in="SourceAlpha" type="matrix" values="0 0 0 0 0 0 0 0 0 0 0 0 0 0 0 0 0 0 127 0" result="hardAlpha"/>
<feOffset dy="16.6667"/>
<feGaussianBlur stdDeviation="16.6667"/>
<feColorMatrix type="matrix" values="0 0 0 0 0.0298758 0 0 0 0 0.0216858 0 0 0 0 0.0308333 0 0 0 0.24 0"/>
<feBlend mode="normal" in2="BackgroundImageFix" result="effect1_dropShadow_2_950"/>
<feBlend mode="normal" in="SourceGraphic" in2="effect1_dropShadow_2_950" result="shape"/>
<feColorMatrix in="SourceAlpha" type="matrix" values="0 0 0 0 0 0 0 0 0 0 0 0 0 0 0 0 0 0 127 0" result="hardAlpha"/>
<feOffset dy="5.18518"/>
<feGaussianBlur stdDeviation="2.59259"/>
<feComposite in2="hardAlpha" operator="arithmetic" k2="-1" k3="1"/>
<feColorMatrix type="matrix" values="0 0 0 0 0.17328 0 0 0 0 0.125777 0 0 0 0 0.178833 0 0 0 1 0"/>
<feBlend mode="normal" in2="shape" result="effect2_innerShadow_2_950"/>
<feColorMatrix in="SourceAlpha" type="matrix" values="0 0 0 0 0 0 0 0 0 0 0 0 0 0 0 0 0 0 127 0" result="hardAlpha"/>
<feOffset dy="-2.59259"/>
<feGaussianBlur stdDeviation="1.2963"/>
<feComposite in2="hardAlpha" operator="arithmetic" k2="-1" k3="1"/>
<feColorMatrix type="matrix" values="0 0 0 0 0.119503 0 0 0 0 0.086743 0 0 0 0 0.123333 0 0 0 1 0"/>
<feBlend mode="normal" in2="effect2_innerShadow_2_950" result="effect3_innerShadow_2_950"/>
<feColorMatrix in="SourceAlpha" type="matrix" values="0 0 0 0 0 0 0 0 0 0 0 0 0 0 0 0 0 0 127 0" result="hardAlpha"/>
<feMorphology radius="26.45" operator="dilate" in="SourceAlpha" result="effect4_innerShadow_2_950"/>
<feOffset dx="9.2" dy="-9"/>
<feGaussianBlur stdDeviation="10.35"/>
<feComposite in2="hardAlpha" operator="arithmetic" k2="-1" k3="1"/>
<feColorMatrix type="matrix" values="0 0 0 0 0.462111 0 0 0 0 0.203767 0 0 0 0 0.504167 0 0 0 0.35 0"/>
<feBlend mode="normal" in2="effect3_innerShadow_2_950" result="effect4_innerShadow_2_950"/>
<feColorMatrix in="SourceAlpha" type="matrix" values="0 0 0 0 0 0 0 0 0 0 0 0 0 0 0 0 0 0 127 0" result="hardAlpha"/>
<feMorphology radius="26.45" operator="dilate" in="SourceAlpha" result="effect5_innerShadow_2_950"/>
<feOffset dx="9.2" dy="-9"/>
<feGaussianBlur stdDeviation="10.35"/>
<feComposite in2="hardAlpha" operator="arithmetic" k2="-1" k3="1"/>
<feColorMatrix type="matrix" values="0 0 0 0 0.462111 0 0 0 0 0.203767 0 0 0 0 0.504167 0 0 0 0.35 0"/>
<feBlend mode="normal" in2="effect4_innerShadow_2_950" result="effect5_innerShadow_2_950"/>
</filter>
<radialGradient id="paint0_radial_2_950" cx="0" cy="0" r="1" gradientUnits="userSpaceOnUse" gradientTransform="translate(109.5 16) rotate(86.5167) scale(230.426)">
<stop stop-color="#FFBB0C"/>
<stop offset="1" stop-color="#FFC907"/>
</radialGradient>
<linearGradient id="paint1_linear_2_950" x1="171" y1="157.131" x2="170.929" y2="103.171" gradientUnits="userSpaceOnUse">
<stop stop-color="#3FEEC4"/>
<stop offset="1" stop-color="#43BBFF"/>
</linearGradient>
<linearGradient id="paint2_linear_2_950" x1="76.0001" y1="157.131" x2="75.9287" y2="103.171" gradientUnits="userSpaceOnUse">
<stop stop-color="#3FEEC4"/>
<stop offset="1" stop-color="#43BBFF"/>
</linearGradient>
<linearGradient id="paint3_linear_2_950" x1="124" y1="74.5" x2="124" y2="195.5" gradientUnits="userSpaceOnUse">
<stop stop-color="#201721"/>
<stop offset="1" stop-color="#2B1F2C"/>
</linearGradient>
<clipPath id="clip0_2_950">
<rect width="246" height="246" fill="white" transform="translate(0.5)"/>
</clipPath>
<clipPath id="clip1_2_950">
<rect width="71" height="71" rx="35.5" transform="matrix(1 0 0 -1 135.5 121)" fill="white"/>
</clipPath>
<clipPath id="clip2_2_950">
<rect width="71" height="71" rx="35.5" transform="matrix(1 0 0 -1 40.5 121)" fill="white"/>
</clipPath>
</defs>
</svg>
