<svg width="247" height="246" viewBox="0 0 247 246" fill="none" xmlns="http://www.w3.org/2000/svg">
<g clip-path="url(#clip0_2_1170)">
<g filter="url(#filter0_iii_2_1170)">
<path d="M0.5 115C0.5 51.4872 51.9873 0 115.5 0H127.5C193.222 0 246.5 53.2781 246.5 119V127C246.5 192.722 193.222 246 127.5 246H123.5C55.569 246 0.5 190.931 0.5 123V115Z" fill="url(#paint0_radial_2_1170)"/>
</g>
<g filter="url(#filter1_i_2_1170)">
<path d="M102.04 140.5C106.16 140.5 109.581 137.122 108.697 133.098C107.294 126.711 104.091 120.801 99.3952 116.105C92.9252 109.635 84.15 106 75 106C65.85 106 57.0748 109.635 50.6048 116.105C46.1509 120.559 43.0406 126.105 41.5346 132.114C40.3974 136.652 44.2924 140.5 48.9706 140.5C53.3564 140.5 56.7631 136.781 58.6273 132.811C59.5089 130.934 60.715 129.204 62.2097 127.71C65.6019 124.318 70.2027 122.412 75 122.412C79.7973 122.412 84.3981 124.318 87.7903 127.71C89.0423 128.962 90.0918 130.378 90.9178 131.909C93.2658 136.26 97.0961 140.5 102.04 140.5Z" fill="#C4C4C4"/>
<path d="M102.04 140.5C106.16 140.5 109.581 137.122 108.697 133.098C107.294 126.711 104.091 120.801 99.3952 116.105C92.9252 109.635 84.15 106 75 106C65.85 106 57.0748 109.635 50.6048 116.105C46.1509 120.559 43.0406 126.105 41.5346 132.114C40.3974 136.652 44.2924 140.5 48.9706 140.5C53.3564 140.5 56.7631 136.781 58.6273 132.811C59.5089 130.934 60.715 129.204 62.2097 127.71C65.6019 124.318 70.2027 122.412 75 122.412C79.7973 122.412 84.3981 124.318 87.7903 127.71C89.0423 128.962 90.0918 130.378 90.9178 131.909C93.2658 136.26 97.0961 140.5 102.04 140.5Z" fill="#221725"/>
</g>
<g filter="url(#filter2_i_2_1170)">
<path d="M199.04 140.5C203.16 140.5 206.581 137.122 205.697 133.098C204.294 126.711 201.091 120.801 196.395 116.105C189.925 109.635 181.15 106 172 106C162.85 106 154.075 109.635 147.605 116.105C143.151 120.559 140.041 126.105 138.535 132.114C137.397 136.652 141.292 140.5 145.971 140.5C150.356 140.5 153.763 136.781 155.627 132.811C156.509 130.934 157.715 129.204 159.21 127.71C162.602 124.318 167.203 122.412 172 122.412C176.797 122.412 181.398 124.318 184.79 127.71C186.042 128.962 187.092 130.378 187.918 131.909C190.266 136.26 194.096 140.5 199.04 140.5Z" fill="#C4C4C4"/>
<path d="M199.04 140.5C203.16 140.5 206.581 137.122 205.697 133.098C204.294 126.711 201.091 120.801 196.395 116.105C189.925 109.635 181.15 106 172 106C162.85 106 154.075 109.635 147.605 116.105C143.151 120.559 140.041 126.105 138.535 132.114C137.397 136.652 141.292 140.5 145.971 140.5C150.356 140.5 153.763 136.781 155.627 132.811C156.509 130.934 157.715 129.204 159.21 127.71C162.602 124.318 167.203 122.412 172 122.412C176.797 122.412 181.398 124.318 184.79 127.71C186.042 128.962 187.092 130.378 187.918 131.909C190.266 136.26 194.096 140.5 199.04 140.5Z" fill="#221725"/>
</g>
<g filter="url(#filter3_diiii_2_1170)">
<mask id="path-4-inside-1_2_1170" fill="white">
<path d="M77.0352 189.398C72.9691 186.824 71.8807 181.312 75.2263 177.852C80.0896 172.823 85.836 168.583 92.2368 165.325C101.349 160.687 111.518 158.177 121.884 158.009C132.249 157.841 142.505 160.019 151.783 164.358C158.308 167.41 164.214 171.468 169.263 176.343C172.722 179.683 171.826 185.224 167.853 187.931C164.208 190.415 159.306 189.564 156.045 186.593C152.554 183.412 148.549 180.743 144.163 178.691C137.342 175.501 129.801 173.899 122.179 174.023C114.558 174.147 107.081 175.992 100.381 179.402C96.0877 181.587 92.1949 184.374 88.8301 187.653C85.6612 190.742 80.7739 191.765 77.0352 189.398Z"/>
</mask>
<path d="M77.0352 189.398C72.9691 186.824 71.8807 181.312 75.2263 177.852C80.0896 172.823 85.836 168.583 92.2368 165.325C101.349 160.687 111.518 158.177 121.884 158.009C132.249 157.841 142.505 160.019 151.783 164.358C158.308 167.41 164.214 171.468 169.263 176.343C172.722 179.683 171.826 185.224 167.853 187.931C164.208 190.415 159.306 189.564 156.045 186.593C152.554 183.412 148.549 180.743 144.163 178.691C137.342 175.501 129.801 173.899 122.179 174.023C114.558 174.147 107.081 175.992 100.381 179.402C96.0877 181.587 92.1949 184.374 88.8301 187.653C85.6612 190.742 80.7739 191.765 77.0352 189.398Z" stroke="url(#paint1_linear_2_1170)" stroke-width="22" stroke-linejoin="round" mask="url(#path-4-inside-1_2_1170)"/>
</g>
<g filter="url(#filter4_i_2_1170)">
<path d="M33.8896 -2.79991e-06L56.7542 51.4345C56.7542 51.4345 88.4694 107.944 33.8896 110.323C-20.6901 112.703 8.07479 51.4345 8.07479 51.4345L33.8896 -2.79991e-06Z" fill="url(#paint2_linear_2_1170)"/>
</g>
<g filter="url(#filter5_f_2_1170)">
<ellipse cx="39.1691" cy="77.8935" rx="15.8533" ry="29.414" transform="rotate(17.6497 39.1691 77.8935)" fill="white" fill-opacity="0.81"/>
</g>
</g>
<defs>
<filter id="filter0_iii_2_1170" x="-10.5" y="-18" width="278" height="280" filterUnits="userSpaceOnUse" color-interpolation-filters="sRGB">
<feFlood flood-opacity="0" result="BackgroundImageFix"/>
<feBlend mode="normal" in="SourceGraphic" in2="BackgroundImageFix" result="shape"/>
<feColorMatrix in="SourceAlpha" type="matrix" values="0 0 0 0 0 0 0 0 0 0 0 0 0 0 0 0 0 0 127 0" result="hardAlpha"/>
<feMorphology radius="8" operator="erode" in="SourceAlpha" result="effect1_innerShadow_2_1170"/>
<feOffset dx="21" dy="13"/>
<feGaussianBlur stdDeviation="24"/>
<feComposite in2="hardAlpha" operator="arithmetic" k2="-1" k3="1"/>
<feColorMatrix type="matrix" values="0 0 0 0 0.682806 0 0 0 0 0.0652778 0 0 0 0 0.783333 0 0 0 0.14 0"/>
<feBlend mode="normal" in2="shape" result="effect1_innerShadow_2_1170"/>
<feColorMatrix in="SourceAlpha" type="matrix" values="0 0 0 0 0 0 0 0 0 0 0 0 0 0 0 0 0 0 127 0" result="hardAlpha"/>
<feOffset dy="-18"/>
<feGaussianBlur stdDeviation="15.5"/>
<feComposite in2="hardAlpha" operator="arithmetic" k2="-1" k3="1"/>
<feColorMatrix type="matrix" values="0 0 0 0 0.943639 0 0 0 0 0.223611 0 0 0 0 0.958333 0 0 0 0.44 0"/>
<feBlend mode="normal" in2="effect1_innerShadow_2_1170" result="effect2_innerShadow_2_1170"/>
<feColorMatrix in="SourceAlpha" type="matrix" values="0 0 0 0 0 0 0 0 0 0 0 0 0 0 0 0 0 0 127 0" result="hardAlpha"/>
<feOffset dx="-11" dy="16"/>
<feGaussianBlur stdDeviation="15.5"/>
<feComposite in2="hardAlpha" operator="arithmetic" k2="-1" k3="1"/>
<feColorMatrix type="matrix" values="0 0 0 0 1 0 0 0 0 1 0 0 0 0 1 0 0 0 0.59 0"/>
<feBlend mode="normal" in2="effect2_innerShadow_2_1170" result="effect3_innerShadow_2_1170"/>
</filter>
<filter id="filter1_i_2_1170" x="41.3352" y="106" width="67.5018" height="34.5" filterUnits="userSpaceOnUse" color-interpolation-filters="sRGB">
<feFlood flood-opacity="0" result="BackgroundImageFix"/>
<feBlend mode="normal" in="SourceGraphic" in2="BackgroundImageFix" result="shape"/>
<feColorMatrix in="SourceAlpha" type="matrix" values="0 0 0 0 0 0 0 0 0 0 0 0 0 0 0 0 0 0 127 0" result="hardAlpha"/>
<feMorphology radius="26.45" operator="dilate" in="SourceAlpha" result="effect1_innerShadow_2_1170"/>
<feOffset dx="9.2" dy="-7"/>
<feGaussianBlur stdDeviation="10.35"/>
<feComposite in2="hardAlpha" operator="arithmetic" k2="-1" k3="1"/>
<feColorMatrix type="matrix" values="0 0 0 0 0.462111 0 0 0 0 0.203767 0 0 0 0 0.504167 0 0 0 0.35 0"/>
<feBlend mode="normal" in2="shape" result="effect1_innerShadow_2_1170"/>
</filter>
<filter id="filter2_i_2_1170" x="138.335" y="106" width="67.5018" height="34.5" filterUnits="userSpaceOnUse" color-interpolation-filters="sRGB">
<feFlood flood-opacity="0" result="BackgroundImageFix"/>
<feBlend mode="normal" in="SourceGraphic" in2="BackgroundImageFix" result="shape"/>
<feColorMatrix in="SourceAlpha" type="matrix" values="0 0 0 0 0 0 0 0 0 0 0 0 0 0 0 0 0 0 127 0" result="hardAlpha"/>
<feMorphology radius="26.45" operator="dilate" in="SourceAlpha" result="effect1_innerShadow_2_1170"/>
<feOffset dx="9.2" dy="-9"/>
<feGaussianBlur stdDeviation="10.35"/>
<feComposite in2="hardAlpha" operator="arithmetic" k2="-1" k3="1"/>
<feColorMatrix type="matrix" values="0 0 0 0 0.462111 0 0 0 0 0.203767 0 0 0 0 0.504167 0 0 0 0.35 0"/>
<feBlend mode="normal" in2="shape" result="effect1_innerShadow_2_1170"/>
</filter>
<filter id="filter3_diiii_2_1170" x="39.9131" y="141.333" width="164.832" height="99.3674" filterUnits="userSpaceOnUse" color-interpolation-filters="sRGB">
<feFlood flood-opacity="0" result="BackgroundImageFix"/>
<feColorMatrix in="SourceAlpha" type="matrix" values="0 0 0 0 0 0 0 0 0 0 0 0 0 0 0 0 0 0 127 0" result="hardAlpha"/>
<feOffset dy="16.6667"/>
<feGaussianBlur stdDeviation="16.6667"/>
<feColorMatrix type="matrix" values="0 0 0 0 0.0298758 0 0 0 0 0.0216858 0 0 0 0 0.0308333 0 0 0 0.24 0"/>
<feBlend mode="normal" in2="BackgroundImageFix" result="effect1_dropShadow_2_1170"/>
<feBlend mode="normal" in="SourceGraphic" in2="effect1_dropShadow_2_1170" result="shape"/>
<feColorMatrix in="SourceAlpha" type="matrix" values="0 0 0 0 0 0 0 0 0 0 0 0 0 0 0 0 0 0 127 0" result="hardAlpha"/>
<feOffset dy="5.18518"/>
<feGaussianBlur stdDeviation="2.59259"/>
<feComposite in2="hardAlpha" operator="arithmetic" k2="-1" k3="1"/>
<feColorMatrix type="matrix" values="0 0 0 0 0.17328 0 0 0 0 0.125777 0 0 0 0 0.178833 0 0 0 1 0"/>
<feBlend mode="normal" in2="shape" result="effect2_innerShadow_2_1170"/>
<feColorMatrix in="SourceAlpha" type="matrix" values="0 0 0 0 0 0 0 0 0 0 0 0 0 0 0 0 0 0 127 0" result="hardAlpha"/>
<feOffset dy="-2.59259"/>
<feGaussianBlur stdDeviation="1.2963"/>
<feComposite in2="hardAlpha" operator="arithmetic" k2="-1" k3="1"/>
<feColorMatrix type="matrix" values="0 0 0 0 0.119503 0 0 0 0 0.086743 0 0 0 0 0.123333 0 0 0 1 0"/>
<feBlend mode="normal" in2="effect2_innerShadow_2_1170" result="effect3_innerShadow_2_1170"/>
<feColorMatrix in="SourceAlpha" type="matrix" values="0 0 0 0 0 0 0 0 0 0 0 0 0 0 0 0 0 0 127 0" result="hardAlpha"/>
<feMorphology radius="26.45" operator="dilate" in="SourceAlpha" result="effect4_innerShadow_2_1170"/>
<feOffset dx="9.2" dy="-9"/>
<feGaussianBlur stdDeviation="10.35"/>
<feComposite in2="hardAlpha" operator="arithmetic" k2="-1" k3="1"/>
<feColorMatrix type="matrix" values="0 0 0 0 0.462111 0 0 0 0 0.203767 0 0 0 0 0.504167 0 0 0 0.35 0"/>
<feBlend mode="normal" in2="effect3_innerShadow_2_1170" result="effect4_innerShadow_2_1170"/>
<feColorMatrix in="SourceAlpha" type="matrix" values="0 0 0 0 0 0 0 0 0 0 0 0 0 0 0 0 0 0 127 0" result="hardAlpha"/>
<feMorphology radius="26.45" operator="dilate" in="SourceAlpha" result="effect5_innerShadow_2_1170"/>
<feOffset dx="9.2" dy="-9"/>
<feGaussianBlur stdDeviation="10.35"/>
<feComposite in2="hardAlpha" operator="arithmetic" k2="-1" k3="1"/>
<feColorMatrix type="matrix" values="0 0 0 0 0.462111 0 0 0 0 0.203767 0 0 0 0 0.504167 0 0 0 0.35 0"/>
<feBlend mode="normal" in2="effect4_innerShadow_2_1170" result="effect5_innerShadow_2_1170"/>
</filter>
<filter id="filter4_i_2_1170" x="0.500122" y="-9.08427" width="65.4167" height="119.475" filterUnits="userSpaceOnUse" color-interpolation-filters="sRGB">
<feFlood flood-opacity="0" result="BackgroundImageFix"/>
<feBlend mode="normal" in="SourceGraphic" in2="BackgroundImageFix" result="shape"/>
<feColorMatrix in="SourceAlpha" type="matrix" values="0 0 0 0 0 0 0 0 0 0 0 0 0 0 0 0 0 0 127 0" result="hardAlpha"/>
<feOffset dy="-9.08427"/>
<feGaussianBlur stdDeviation="8.4354"/>
<feComposite in2="hardAlpha" operator="arithmetic" k2="-1" k3="1"/>
<feColorMatrix type="matrix" values="0 0 0 0 0.708628 0 0 0 0 0.186858 0 0 0 0 0.954167 0 0 0 0.22 0"/>
<feBlend mode="normal" in2="shape" result="effect1_innerShadow_2_1170"/>
</filter>
<filter id="filter5_f_2_1170" x="-14.4227" y="13.4044" width="107.183" height="128.978" filterUnits="userSpaceOnUse" color-interpolation-filters="sRGB">
<feFlood flood-opacity="0" result="BackgroundImageFix"/>
<feBlend mode="normal" in="SourceGraphic" in2="BackgroundImageFix" result="shape"/>
<feGaussianBlur stdDeviation="18.023" result="effect1_foregroundBlur_2_1170"/>
</filter>
<radialGradient id="paint0_radial_2_1170" cx="0" cy="0" r="1" gradientUnits="userSpaceOnUse" gradientTransform="translate(109.5 16) rotate(86.5167) scale(230.426)">
<stop stop-color="#FFBB0C"/>
<stop offset="1" stop-color="#FFC907"/>
</radialGradient>
<linearGradient id="paint1_linear_2_1170" x1="123" y1="279" x2="123" y2="158" gradientUnits="userSpaceOnUse">
<stop stop-color="#201721"/>
<stop offset="1" stop-color="#2B1F2C"/>
</linearGradient>
<linearGradient id="paint2_linear_2_1170" x1="33.2085" y1="-2.85011e-06" x2="32.9439" y2="110.309" gradientUnits="userSpaceOnUse">
<stop stop-color="#3FEEC4"/>
<stop offset="1" stop-color="#43BBFF"/>
</linearGradient>
<clipPath id="clip0_2_1170">
<rect width="246" height="246" fill="white" transform="translate(0.5)"/>
</clipPath>
</defs>
</svg>
