<svg width="246" height="246" viewBox="0 0 246 246" fill="none" xmlns="http://www.w3.org/2000/svg">
<g clip-path="url(#clip0_2_1314)">
<g filter="url(#filter0_iii_2_1314)">
<path d="M0 115C0 51.4872 51.4873 0 115 0H127C192.722 0 246 53.2781 246 119V127C246 192.722 192.722 246 127 246H123C55.069 246 0 190.931 0 123V115Z" fill="url(#paint0_radial_2_1314)"/>
</g>
<g filter="url(#filter1_ii_2_1314)">
<mask id="path-2-inside-1_2_1314" fill="white">
<path d="M178.213 114.527C182.947 114.869 186.554 119.034 185.458 123.652C183.369 132.449 179.202 140.734 173.218 147.878C165.337 157.287 154.658 164.292 142.532 168.008C130.406 171.725 117.377 171.984 105.093 168.755C95.7517 166.299 87.16 161.91 79.9294 155.951C76.2321 152.904 76.6807 147.328 80.4149 144.326C83.8295 141.582 88.7497 142.033 92.2061 144.725C97.3062 148.697 103.261 151.64 109.702 153.333C118.733 155.707 128.313 155.516 137.229 152.784C146.144 150.051 153.996 144.901 159.791 137.982C163.724 133.287 166.59 127.92 168.251 122.214C169.559 117.72 173.545 114.19 178.213 114.527Z"/>
</mask>
<path d="M178.213 114.527C182.947 114.869 186.554 119.034 185.458 123.652C183.369 132.449 179.202 140.734 173.218 147.878C165.337 157.287 154.658 164.292 142.532 168.008C130.406 171.725 117.377 171.984 105.093 168.755C95.7517 166.299 87.16 161.91 79.9294 155.951C76.2321 152.904 76.6807 147.328 80.4149 144.326C83.8295 141.582 88.7497 142.033 92.2061 144.725C97.3062 148.697 103.261 151.64 109.702 153.333C118.733 155.707 128.313 155.516 137.229 152.784C146.144 150.051 153.996 144.901 159.791 137.982C163.724 133.287 166.59 127.92 168.251 122.214C169.559 117.72 173.545 114.19 178.213 114.527Z" stroke="url(#paint1_linear_2_1314)" stroke-width="22" stroke-linejoin="round" mask="url(#path-2-inside-1_2_1314)"/>
</g>
<g filter="url(#filter2_i_2_1314)">
<path d="M193.54 107.5C197.66 107.5 201.081 104.122 200.197 100.098C198.794 93.7112 195.591 87.8008 190.895 83.1048C184.425 76.6348 175.65 73 166.5 73C157.35 73 148.575 76.6348 142.105 83.1048C137.651 87.5587 134.541 93.105 133.035 99.114C131.897 103.652 135.792 107.5 140.471 107.5C144.856 107.5 148.263 103.781 150.127 99.8113C151.009 97.9338 152.215 96.2045 153.71 94.7097C157.102 91.3176 161.703 89.4118 166.5 89.4118C171.297 89.4118 175.898 91.3176 179.29 94.7097C180.542 95.9618 181.592 97.3785 182.418 98.9089C184.766 103.26 188.596 107.5 193.54 107.5Z" fill="#C4C4C4"/>
<path d="M193.54 107.5C197.66 107.5 201.081 104.122 200.197 100.098C198.794 93.7112 195.591 87.8008 190.895 83.1048C184.425 76.6348 175.65 73 166.5 73C157.35 73 148.575 76.6348 142.105 83.1048C137.651 87.5587 134.541 93.105 133.035 99.114C131.897 103.652 135.792 107.5 140.471 107.5C144.856 107.5 148.263 103.781 150.127 99.8113C151.009 97.9338 152.215 96.2045 153.71 94.7097C157.102 91.3176 161.703 89.4118 166.5 89.4118C171.297 89.4118 175.898 91.3176 179.29 94.7097C180.542 95.9618 181.592 97.3785 182.418 98.9089C184.766 103.26 188.596 107.5 193.54 107.5Z" fill="#221725"/>
</g>
<g filter="url(#filter3_d_2_1314)">
<g filter="url(#filter4_i_2_1314)">
<path fill-rule="evenodd" clip-rule="evenodd" d="M86.9469 122.524C96.0529 116.097 102 105.493 102 93.5C102 73.8939 86.1061 58 66.5 58C46.8939 58 31 73.8939 31 93.5C31 105.241 36.6996 115.65 45.4828 122.113C50.8481 117.081 58.0642 114 66 114C74.1497 114 81.5403 117.25 86.9469 122.524Z" fill="#FAFAFA"/>
</g>
<g filter="url(#filter5_i_2_1314)">
<rect x="47.6172" y="74.6169" width="37.7471" height="37.7471" rx="18.8736" fill="#2C2F36"/>
</g>
</g>
</g>
<defs>
<filter id="filter0_iii_2_1314" x="-11" y="-18" width="278" height="280" filterUnits="userSpaceOnUse" color-interpolation-filters="sRGB">
<feFlood flood-opacity="0" result="BackgroundImageFix"/>
<feBlend mode="normal" in="SourceGraphic" in2="BackgroundImageFix" result="shape"/>
<feColorMatrix in="SourceAlpha" type="matrix" values="0 0 0 0 0 0 0 0 0 0 0 0 0 0 0 0 0 0 127 0" result="hardAlpha"/>
<feMorphology radius="8" operator="erode" in="SourceAlpha" result="effect1_innerShadow_2_1314"/>
<feOffset dx="21" dy="13"/>
<feGaussianBlur stdDeviation="24"/>
<feComposite in2="hardAlpha" operator="arithmetic" k2="-1" k3="1"/>
<feColorMatrix type="matrix" values="0 0 0 0 0.682806 0 0 0 0 0.0652778 0 0 0 0 0.783333 0 0 0 0.14 0"/>
<feBlend mode="normal" in2="shape" result="effect1_innerShadow_2_1314"/>
<feColorMatrix in="SourceAlpha" type="matrix" values="0 0 0 0 0 0 0 0 0 0 0 0 0 0 0 0 0 0 127 0" result="hardAlpha"/>
<feOffset dy="-18"/>
<feGaussianBlur stdDeviation="15.5"/>
<feComposite in2="hardAlpha" operator="arithmetic" k2="-1" k3="1"/>
<feColorMatrix type="matrix" values="0 0 0 0 0.943639 0 0 0 0 0.223611 0 0 0 0 0.958333 0 0 0 0.44 0"/>
<feBlend mode="normal" in2="effect1_innerShadow_2_1314" result="effect2_innerShadow_2_1314"/>
<feColorMatrix in="SourceAlpha" type="matrix" values="0 0 0 0 0 0 0 0 0 0 0 0 0 0 0 0 0 0 127 0" result="hardAlpha"/>
<feOffset dx="-11" dy="16"/>
<feGaussianBlur stdDeviation="15.5"/>
<feComposite in2="hardAlpha" operator="arithmetic" k2="-1" k3="1"/>
<feColorMatrix type="matrix" values="0 0 0 0 1 0 0 0 0 1 0 0 0 0 1 0 0 0 0.59 0"/>
<feBlend mode="normal" in2="effect2_innerShadow_2_1314" result="effect3_innerShadow_2_1314"/>
</filter>
<filter id="filter1_ii_2_1314" x="77.3744" y="114.505" width="108.281" height="56.4954" filterUnits="userSpaceOnUse" color-interpolation-filters="sRGB">
<feFlood flood-opacity="0" result="BackgroundImageFix"/>
<feBlend mode="normal" in="SourceGraphic" in2="BackgroundImageFix" result="shape"/>
<feColorMatrix in="SourceAlpha" type="matrix" values="0 0 0 0 0 0 0 0 0 0 0 0 0 0 0 0 0 0 127 0" result="hardAlpha"/>
<feMorphology radius="26.45" operator="dilate" in="SourceAlpha" result="effect1_innerShadow_2_1314"/>
<feOffset dy="-20"/>
<feGaussianBlur stdDeviation="7"/>
<feComposite in2="hardAlpha" operator="arithmetic" k2="-1" k3="1"/>
<feColorMatrix type="matrix" values="0 0 0 0 0.3625 0 0 0 0 0.3625 0 0 0 0 0.3625 0 0 0 0.97 0"/>
<feBlend mode="normal" in2="shape" result="effect1_innerShadow_2_1314"/>
<feColorMatrix in="SourceAlpha" type="matrix" values="0 0 0 0 0 0 0 0 0 0 0 0 0 0 0 0 0 0 127 0" result="hardAlpha"/>
<feMorphology radius="26.45" operator="dilate" in="SourceAlpha" result="effect2_innerShadow_2_1314"/>
<feOffset dx="9.2" dy="-9"/>
<feGaussianBlur stdDeviation="10.35"/>
<feComposite in2="hardAlpha" operator="arithmetic" k2="-1" k3="1"/>
<feColorMatrix type="matrix" values="0 0 0 0 0.462111 0 0 0 0 0.203767 0 0 0 0 0.504167 0 0 0 0.35 0"/>
<feBlend mode="normal" in2="effect1_innerShadow_2_1314" result="effect2_innerShadow_2_1314"/>
</filter>
<filter id="filter2_i_2_1314" x="132.835" y="73" width="67.5018" height="34.5" filterUnits="userSpaceOnUse" color-interpolation-filters="sRGB">
<feFlood flood-opacity="0" result="BackgroundImageFix"/>
<feBlend mode="normal" in="SourceGraphic" in2="BackgroundImageFix" result="shape"/>
<feColorMatrix in="SourceAlpha" type="matrix" values="0 0 0 0 0 0 0 0 0 0 0 0 0 0 0 0 0 0 127 0" result="hardAlpha"/>
<feMorphology radius="26.45" operator="dilate" in="SourceAlpha" result="effect1_innerShadow_2_1314"/>
<feOffset dx="9.2" dy="-9"/>
<feGaussianBlur stdDeviation="10.35"/>
<feComposite in2="hardAlpha" operator="arithmetic" k2="-1" k3="1"/>
<feColorMatrix type="matrix" values="0 0 0 0 0.462111 0 0 0 0 0.203767 0 0 0 0 0.504167 0 0 0 0.35 0"/>
<feBlend mode="normal" in2="shape" result="effect1_innerShadow_2_1314"/>
</filter>
<filter id="filter3_d_2_1314" x="15" y="46" width="103" height="96.5239" filterUnits="userSpaceOnUse" color-interpolation-filters="sRGB">
<feFlood flood-opacity="0" result="BackgroundImageFix"/>
<feColorMatrix in="SourceAlpha" type="matrix" values="0 0 0 0 0 0 0 0 0 0 0 0 0 0 0 0 0 0 127 0" result="hardAlpha"/>
<feOffset dy="4"/>
<feGaussianBlur stdDeviation="8"/>
<feColorMatrix type="matrix" values="0 0 0 0 0 0 0 0 0 0 0 0 0 0 0 0 0 0 0.25 0"/>
<feBlend mode="normal" in2="BackgroundImageFix" result="effect1_dropShadow_2_1314"/>
<feBlend mode="normal" in="SourceGraphic" in2="effect1_dropShadow_2_1314" result="shape"/>
</filter>
<filter id="filter4_i_2_1314" x="31" y="54.45" width="71" height="68.0739" filterUnits="userSpaceOnUse" color-interpolation-filters="sRGB">
<feFlood flood-opacity="0" result="BackgroundImageFix"/>
<feBlend mode="normal" in="SourceGraphic" in2="BackgroundImageFix" result="shape"/>
<feColorMatrix in="SourceAlpha" type="matrix" values="0 0 0 0 0 0 0 0 0 0 0 0 0 0 0 0 0 0 127 0" result="hardAlpha"/>
<feOffset dy="-3.55"/>
<feGaussianBlur stdDeviation="8.875"/>
<feComposite in2="hardAlpha" operator="arithmetic" k2="-1" k3="1"/>
<feColorMatrix type="matrix" values="0 0 0 0 0 0 0 0 0 0 0 0 0 0 0 0 0 0 0.25 0"/>
<feBlend mode="normal" in2="shape" result="effect1_innerShadow_2_1314"/>
</filter>
<filter id="filter5_i_2_1314" x="47.6172" y="74.6169" width="37.7471" height="37.7471" filterUnits="userSpaceOnUse" color-interpolation-filters="sRGB">
<feFlood flood-opacity="0" result="BackgroundImageFix"/>
<feBlend mode="normal" in="SourceGraphic" in2="BackgroundImageFix" result="shape"/>
<feColorMatrix in="SourceAlpha" type="matrix" values="0 0 0 0 0 0 0 0 0 0 0 0 0 0 0 0 0 0 127 0" result="hardAlpha"/>
<feMorphology radius="31.2004" operator="dilate" in="SourceAlpha" result="effect1_innerShadow_2_1314"/>
<feOffset dx="10.8523" dy="-32.5569"/>
<feGaussianBlur stdDeviation="12.2088"/>
<feComposite in2="hardAlpha" operator="arithmetic" k2="-1" k3="1"/>
<feColorMatrix type="matrix" values="0 0 0 0 0.462111 0 0 0 0 0.203767 0 0 0 0 0.504167 0 0 0 0.35 0"/>
<feBlend mode="normal" in2="shape" result="effect1_innerShadow_2_1314"/>
</filter>
<radialGradient id="paint0_radial_2_1314" cx="0" cy="0" r="1" gradientUnits="userSpaceOnUse" gradientTransform="translate(109 16) rotate(86.5167) scale(230.426)">
<stop stop-color="#FFBB0C"/>
<stop offset="1" stop-color="#FFC907"/>
</radialGradient>
<linearGradient id="paint1_linear_2_1314" x1="87.398" y1="103.298" x2="127.504" y2="167.893" gradientUnits="userSpaceOnUse">
<stop stop-color="#402C41"/>
<stop offset="1" stop-color="#0C0B0E"/>
</linearGradient>
<clipPath id="clip0_2_1314">
<rect width="246" height="246" fill="white"/>
</clipPath>
</defs>
</svg>
