<svg width="247" height="246" viewBox="0 0 247 246" fill="none" xmlns="http://www.w3.org/2000/svg">
<g clip-path="url(#clip0_2_1278)">
<g filter="url(#filter0_iii_2_1278)">
<path d="M0.5 115C0.5 51.4872 51.9873 0 115.5 0H127.5C193.222 0 246.5 53.2781 246.5 119V127C246.5 192.722 193.222 246 127.5 246H123.5C55.569 246 0.5 190.931 0.5 123V115Z" fill="url(#paint0_radial_2_1278)"/>
</g>
<g filter="url(#filter1_f_2_1278)">
<circle cx="60" cy="132.5" r="35.5" fill="#FF4242"/>
</g>
<g filter="url(#filter2_f_2_1278)">
<circle cx="189" cy="132.5" r="35.5" fill="#FF4242"/>
</g>
<g filter="url(#filter3_i_2_1278)">
<path d="M102.04 97.5C106.16 97.5 109.581 94.1218 108.697 90.0978C107.294 83.7112 104.091 77.8008 99.3952 73.1048C92.9252 66.6348 84.15 63 75 63C65.85 63 57.0748 66.6348 50.6048 73.1048C46.1509 77.5587 43.0406 83.105 41.5346 89.114C40.3974 93.6519 44.2924 97.5 48.9706 97.5C53.3564 97.5 56.7631 93.7812 58.6273 89.8113C59.5089 87.9338 60.715 86.2045 62.2097 84.7097C65.6019 81.3176 70.2027 79.4118 75 79.4118C79.7973 79.4118 84.3981 81.3176 87.7903 84.7097C89.0423 85.9618 90.0918 87.3785 90.9178 88.9089C93.2658 93.2597 97.0961 97.5 102.04 97.5Z" fill="#C4C4C4"/>
<path d="M102.04 97.5C106.16 97.5 109.581 94.1218 108.697 90.0978C107.294 83.7112 104.091 77.8008 99.3952 73.1048C92.9252 66.6348 84.15 63 75 63C65.85 63 57.0748 66.6348 50.6048 73.1048C46.1509 77.5587 43.0406 83.105 41.5346 89.114C40.3974 93.6519 44.2924 97.5 48.9706 97.5C53.3564 97.5 56.7631 93.7812 58.6273 89.8113C59.5089 87.9338 60.715 86.2045 62.2097 84.7097C65.6019 81.3176 70.2027 79.4118 75 79.4118C79.7973 79.4118 84.3981 81.3176 87.7903 84.7097C89.0423 85.9618 90.0918 87.3785 90.9178 88.9089C93.2658 93.2597 97.0961 97.5 102.04 97.5Z" fill="#221725"/>
</g>
<g filter="url(#filter4_i_2_1278)">
<path d="M199.04 97.5C203.16 97.5 206.581 94.1218 205.697 90.0978C204.294 83.7112 201.091 77.8008 196.395 73.1048C189.925 66.6348 181.15 63 172 63C162.85 63 154.075 66.6348 147.605 73.1048C143.151 77.5587 140.041 83.105 138.535 89.114C137.397 93.6519 141.292 97.5 145.971 97.5C150.356 97.5 153.763 93.7812 155.627 89.8113C156.509 87.9338 157.715 86.2045 159.21 84.7097C162.602 81.3176 167.203 79.4118 172 79.4118C176.797 79.4118 181.398 81.3176 184.79 84.7097C186.042 85.9618 187.092 87.3785 187.918 88.9089C190.266 93.2597 194.096 97.5 199.04 97.5Z" fill="#C4C4C4"/>
<path d="M199.04 97.5C203.16 97.5 206.581 94.1218 205.697 90.0978C204.294 83.7112 201.091 77.8008 196.395 73.1048C189.925 66.6348 181.15 63 172 63C162.85 63 154.075 66.6348 147.605 73.1048C143.151 77.5587 140.041 83.105 138.535 89.114C137.397 93.6519 141.292 97.5 145.971 97.5C150.356 97.5 153.763 93.7812 155.627 89.8113C156.509 87.9338 157.715 86.2045 159.21 84.7097C162.602 81.3176 167.203 79.4118 172 79.4118C176.797 79.4118 181.398 81.3176 184.79 84.7097C186.042 85.9618 187.092 87.3785 187.918 88.9089C190.266 93.2597 194.096 97.5 199.04 97.5Z" fill="#221725"/>
</g>
<g filter="url(#filter5_diiii_2_1278)">
<mask id="path-6-inside-1_2_1278" fill="white">
<path d="M179.962 102.5C184.678 102.5 188.565 106.344 187.859 111.006C187.099 116.026 185.668 120.947 183.59 125.652C180.349 132.993 175.598 139.662 169.608 145.28C163.619 150.898 156.509 155.354 148.683 158.395C140.858 161.435 132.47 163 124 163C115.53 163 107.142 161.435 99.3169 158.395C91.4914 155.354 84.381 150.898 78.3916 145.28C72.4022 139.662 67.6512 132.993 64.4098 125.652C62.332 120.947 60.9006 116.026 60.1406 111.006C59.4348 106.344 63.3225 102.5 68.0377 102.5C72.753 102.5 76.4891 106.361 77.4448 110.978C78.0493 113.899 78.9659 116.762 80.1854 119.523C82.5687 124.92 86.062 129.824 90.4658 133.955C94.8695 138.085 100.098 141.362 105.851 143.597C111.605 145.833 117.772 146.983 124 146.983C130.228 146.983 136.395 145.833 142.149 143.597C147.902 141.362 153.13 138.085 157.534 133.955C161.938 129.824 165.431 124.92 167.815 119.523C169.034 116.762 169.951 113.899 170.555 110.978C171.511 106.361 175.247 102.5 179.962 102.5Z"/>
</mask>
<path d="M179.962 102.5C184.678 102.5 188.565 106.344 187.859 111.006C187.099 116.026 185.668 120.947 183.59 125.652C180.349 132.993 175.598 139.662 169.608 145.28C163.619 150.898 156.509 155.354 148.683 158.395C140.858 161.435 132.47 163 124 163C115.53 163 107.142 161.435 99.3169 158.395C91.4914 155.354 84.381 150.898 78.3916 145.28C72.4022 139.662 67.6512 132.993 64.4098 125.652C62.332 120.947 60.9006 116.026 60.1406 111.006C59.4348 106.344 63.3225 102.5 68.0377 102.5C72.753 102.5 76.4891 106.361 77.4448 110.978C78.0493 113.899 78.9659 116.762 80.1854 119.523C82.5687 124.92 86.062 129.824 90.4658 133.955C94.8695 138.085 100.098 141.362 105.851 143.597C111.605 145.833 117.772 146.983 124 146.983C130.228 146.983 136.395 145.833 142.149 143.597C147.902 141.362 153.13 138.085 157.534 133.955C161.938 129.824 165.431 124.92 167.815 119.523C169.034 116.762 169.951 113.899 170.555 110.978C171.511 106.361 175.247 102.5 179.962 102.5Z" stroke="url(#paint1_linear_2_1278)" stroke-width="22" stroke-linejoin="round" mask="url(#path-6-inside-1_2_1278)"/>
</g>
<g filter="url(#filter6_ii_2_1278)">
<path d="M82.7943 26.2728C81.6766 23.6754 80.0649 21.3218 78.0496 19.3435C76.0328 17.3594 73.6549 15.7826 71.0452 14.6989C68.3391 13.5707 65.4367 12.9933 62.5065 13.0001C58.3956 13.0001 54.3847 14.1298 50.8992 16.2638C50.0653 16.7743 49.2732 17.335 48.5227 17.9459C47.7722 17.335 46.98 16.7743 46.1462 16.2638C42.6607 14.1298 38.6498 13.0001 34.5389 13.0001C31.5787 13.0001 28.7102 13.5691 26.0002 14.6989C23.3819 15.7868 21.022 17.3518 18.9958 19.3435C16.9778 21.3195 15.3658 23.6738 14.2511 26.2728C13.092 28.9759 12.5 31.8463 12.5 34.8005C12.5 37.5872 13.067 40.4911 14.1927 43.4453C15.135 45.9141 16.4858 48.4749 18.2119 51.0608C20.947 55.1531 24.7077 59.4211 29.3773 63.7477C37.1155 70.9197 44.7787 75.8739 45.1039 76.0748L47.0801 77.3468C47.9557 77.9075 49.0814 77.9075 49.9569 77.3468L51.9332 76.0748C52.2584 75.8655 59.9132 70.9197 67.6597 63.7477C72.3293 59.4211 76.09 55.1531 78.8251 51.0608C80.5512 48.4749 81.9104 45.9141 82.8443 43.4453C83.97 40.4911 84.537 37.5872 84.537 34.8005C84.5454 31.8463 83.9533 28.9759 82.7943 26.2728Z" fill="#FA043F"/>
</g>
<g filter="url(#filter7_f_2_1278)">
<ellipse cx="64.4653" cy="48.3076" rx="9.58292" ry="23.1312" transform="rotate(31.4444 64.4653 48.3076)" fill="white" fill-opacity="0.81"/>
</g>
<g filter="url(#filter8_ii_2_1278)">
<path d="M14.2772 181.535C15.417 178.886 17.0605 176.486 19.1156 174.469C21.1722 172.445 23.5971 170.838 26.2583 169.732C29.0178 168.582 31.9775 167.993 34.9657 168C39.1578 168 43.2478 169.152 46.8022 171.328C47.6525 171.849 48.4603 172.421 49.2256 173.044C49.9909 172.421 50.7987 171.849 51.6491 171.328C55.2034 169.152 59.2935 168 63.4856 168C66.5043 168 69.4294 168.58 72.1929 169.732C74.863 170.842 77.2694 172.438 79.3357 174.469C81.3935 176.484 83.0373 178.885 84.174 181.535C85.356 184.291 85.9597 187.219 85.9597 190.231C85.9597 193.073 85.3815 196.034 84.2336 199.047C83.2727 201.564 81.8952 204.175 80.135 206.812C77.3459 210.986 73.5109 215.338 68.7491 219.75C60.8581 227.063 53.0436 232.116 52.712 232.32L50.6967 233.618C49.8039 234.189 48.6559 234.189 47.7631 233.618L45.7478 232.32C45.4162 232.107 37.6102 227.063 29.7106 219.75C24.9488 215.338 21.1138 210.986 18.3248 206.812C16.5646 204.175 15.1786 201.564 14.2262 199.047C13.0783 196.034 12.5 193.073 12.5 190.231C12.4915 187.219 13.0953 184.291 14.2772 181.535Z" fill="#FA043F"/>
</g>
<g filter="url(#filter9_f_2_1278)">
<ellipse cx="9.77217" cy="23.588" rx="9.77217" ry="23.588" transform="matrix(-0.853146 0.521671 0.521671 0.853146 29.0001 178.783)" fill="white" fill-opacity="0.81"/>
</g>
<g filter="url(#filter10_ii_2_1278)">
<path d="M239.545 156.547C238.319 153.701 236.553 151.121 234.344 148.953C232.134 146.778 229.527 145.05 226.667 143.862C223.701 142.626 220.52 141.993 217.309 142C212.803 142 208.407 143.238 204.587 145.577C203.673 146.137 202.804 146.751 201.982 147.421C201.159 146.751 200.291 146.137 199.377 145.577C195.557 143.238 191.161 142 186.655 142C183.411 142 180.267 142.624 177.297 143.862C174.427 145.054 171.84 146.77 169.62 148.953C167.408 151.118 165.641 153.699 164.419 156.547C163.149 159.51 162.5 162.656 162.5 165.894C162.5 168.948 163.121 172.131 164.355 175.369C165.388 178.075 166.869 180.881 168.76 183.716C171.758 188.201 175.88 192.879 180.998 197.621C189.479 205.482 197.878 210.912 198.235 211.132L200.401 212.526C201.36 213.14 202.594 213.14 203.554 212.526L205.72 211.132C206.076 210.902 214.466 205.482 222.957 197.621C228.075 192.879 232.196 188.201 235.194 183.716C237.086 180.881 238.576 178.075 239.599 175.369C240.833 172.131 241.455 168.948 241.455 165.894C241.464 162.656 240.815 159.51 239.545 156.547Z" fill="#FA043F"/>
</g>
<g filter="url(#filter11_f_2_1278)">
<ellipse cx="219.455" cy="180.698" rx="10.5031" ry="25.3524" transform="rotate(31.4444 219.455 180.698)" fill="white" fill-opacity="0.81"/>
</g>
</g>
<defs>
<filter id="filter0_iii_2_1278" x="-10.5" y="-18" width="278" height="280" filterUnits="userSpaceOnUse" color-interpolation-filters="sRGB">
<feFlood flood-opacity="0" result="BackgroundImageFix"/>
<feBlend mode="normal" in="SourceGraphic" in2="BackgroundImageFix" result="shape"/>
<feColorMatrix in="SourceAlpha" type="matrix" values="0 0 0 0 0 0 0 0 0 0 0 0 0 0 0 0 0 0 127 0" result="hardAlpha"/>
<feMorphology radius="8" operator="erode" in="SourceAlpha" result="effect1_innerShadow_2_1278"/>
<feOffset dx="21" dy="13"/>
<feGaussianBlur stdDeviation="24"/>
<feComposite in2="hardAlpha" operator="arithmetic" k2="-1" k3="1"/>
<feColorMatrix type="matrix" values="0 0 0 0 0.682806 0 0 0 0 0.0652778 0 0 0 0 0.783333 0 0 0 0.14 0"/>
<feBlend mode="normal" in2="shape" result="effect1_innerShadow_2_1278"/>
<feColorMatrix in="SourceAlpha" type="matrix" values="0 0 0 0 0 0 0 0 0 0 0 0 0 0 0 0 0 0 127 0" result="hardAlpha"/>
<feOffset dy="-18"/>
<feGaussianBlur stdDeviation="15.5"/>
<feComposite in2="hardAlpha" operator="arithmetic" k2="-1" k3="1"/>
<feColorMatrix type="matrix" values="0 0 0 0 0.943639 0 0 0 0 0.223611 0 0 0 0 0.958333 0 0 0 0.44 0"/>
<feBlend mode="normal" in2="effect1_innerShadow_2_1278" result="effect2_innerShadow_2_1278"/>
<feColorMatrix in="SourceAlpha" type="matrix" values="0 0 0 0 0 0 0 0 0 0 0 0 0 0 0 0 0 0 127 0" result="hardAlpha"/>
<feOffset dx="-11" dy="16"/>
<feGaussianBlur stdDeviation="15.5"/>
<feComposite in2="hardAlpha" operator="arithmetic" k2="-1" k3="1"/>
<feColorMatrix type="matrix" values="0 0 0 0 1 0 0 0 0 1 0 0 0 0 1 0 0 0 0.59 0"/>
<feBlend mode="normal" in2="effect2_innerShadow_2_1278" result="effect3_innerShadow_2_1278"/>
</filter>
<filter id="filter1_f_2_1278" x="-25.8605" y="46.6395" width="171.721" height="171.721" filterUnits="userSpaceOnUse" color-interpolation-filters="sRGB">
<feFlood flood-opacity="0" result="BackgroundImageFix"/>
<feBlend mode="normal" in="SourceGraphic" in2="BackgroundImageFix" result="shape"/>
<feGaussianBlur stdDeviation="25.1802" result="effect1_foregroundBlur_2_1278"/>
</filter>
<filter id="filter2_f_2_1278" x="103.14" y="46.6395" width="171.721" height="171.721" filterUnits="userSpaceOnUse" color-interpolation-filters="sRGB">
<feFlood flood-opacity="0" result="BackgroundImageFix"/>
<feBlend mode="normal" in="SourceGraphic" in2="BackgroundImageFix" result="shape"/>
<feGaussianBlur stdDeviation="25.1802" result="effect1_foregroundBlur_2_1278"/>
</filter>
<filter id="filter3_i_2_1278" x="41.3353" y="63" width="67.5018" height="34.5" filterUnits="userSpaceOnUse" color-interpolation-filters="sRGB">
<feFlood flood-opacity="0" result="BackgroundImageFix"/>
<feBlend mode="normal" in="SourceGraphic" in2="BackgroundImageFix" result="shape"/>
<feColorMatrix in="SourceAlpha" type="matrix" values="0 0 0 0 0 0 0 0 0 0 0 0 0 0 0 0 0 0 127 0" result="hardAlpha"/>
<feMorphology radius="26.45" operator="dilate" in="SourceAlpha" result="effect1_innerShadow_2_1278"/>
<feOffset dx="9.2" dy="-7"/>
<feGaussianBlur stdDeviation="10.35"/>
<feComposite in2="hardAlpha" operator="arithmetic" k2="-1" k3="1"/>
<feColorMatrix type="matrix" values="0 0 0 0 0.462111 0 0 0 0 0.203767 0 0 0 0 0.504167 0 0 0 0.35 0"/>
<feBlend mode="normal" in2="shape" result="effect1_innerShadow_2_1278"/>
</filter>
<filter id="filter4_i_2_1278" x="138.335" y="63" width="67.5018" height="34.5" filterUnits="userSpaceOnUse" color-interpolation-filters="sRGB">
<feFlood flood-opacity="0" result="BackgroundImageFix"/>
<feBlend mode="normal" in="SourceGraphic" in2="BackgroundImageFix" result="shape"/>
<feColorMatrix in="SourceAlpha" type="matrix" values="0 0 0 0 0 0 0 0 0 0 0 0 0 0 0 0 0 0 127 0" result="hardAlpha"/>
<feMorphology radius="26.45" operator="dilate" in="SourceAlpha" result="effect1_innerShadow_2_1278"/>
<feOffset dx="9.2" dy="-9"/>
<feGaussianBlur stdDeviation="10.35"/>
<feComposite in2="hardAlpha" operator="arithmetic" k2="-1" k3="1"/>
<feColorMatrix type="matrix" values="0 0 0 0 0.462111 0 0 0 0 0.203767 0 0 0 0 0.504167 0 0 0 0.35 0"/>
<feBlend mode="normal" in2="shape" result="effect1_innerShadow_2_1278"/>
</filter>
<filter id="filter5_diiii_2_1278" x="26.7242" y="85.8333" width="194.552" height="127.167" filterUnits="userSpaceOnUse" color-interpolation-filters="sRGB">
<feFlood flood-opacity="0" result="BackgroundImageFix"/>
<feColorMatrix in="SourceAlpha" type="matrix" values="0 0 0 0 0 0 0 0 0 0 0 0 0 0 0 0 0 0 127 0" result="hardAlpha"/>
<feOffset dy="16.6667"/>
<feGaussianBlur stdDeviation="16.6667"/>
<feColorMatrix type="matrix" values="0 0 0 0 0.0298758 0 0 0 0 0.0216858 0 0 0 0 0.0308333 0 0 0 0.24 0"/>
<feBlend mode="normal" in2="BackgroundImageFix" result="effect1_dropShadow_2_1278"/>
<feBlend mode="normal" in="SourceGraphic" in2="effect1_dropShadow_2_1278" result="shape"/>
<feColorMatrix in="SourceAlpha" type="matrix" values="0 0 0 0 0 0 0 0 0 0 0 0 0 0 0 0 0 0 127 0" result="hardAlpha"/>
<feOffset dy="5.18518"/>
<feGaussianBlur stdDeviation="2.59259"/>
<feComposite in2="hardAlpha" operator="arithmetic" k2="-1" k3="1"/>
<feColorMatrix type="matrix" values="0 0 0 0 0.17328 0 0 0 0 0.125777 0 0 0 0 0.178833 0 0 0 1 0"/>
<feBlend mode="normal" in2="shape" result="effect2_innerShadow_2_1278"/>
<feColorMatrix in="SourceAlpha" type="matrix" values="0 0 0 0 0 0 0 0 0 0 0 0 0 0 0 0 0 0 127 0" result="hardAlpha"/>
<feOffset dy="-2.59259"/>
<feGaussianBlur stdDeviation="1.2963"/>
<feComposite in2="hardAlpha" operator="arithmetic" k2="-1" k3="1"/>
<feColorMatrix type="matrix" values="0 0 0 0 0.119503 0 0 0 0 0.086743 0 0 0 0 0.123333 0 0 0 1 0"/>
<feBlend mode="normal" in2="effect2_innerShadow_2_1278" result="effect3_innerShadow_2_1278"/>
<feColorMatrix in="SourceAlpha" type="matrix" values="0 0 0 0 0 0 0 0 0 0 0 0 0 0 0 0 0 0 127 0" result="hardAlpha"/>
<feMorphology radius="26.45" operator="dilate" in="SourceAlpha" result="effect4_innerShadow_2_1278"/>
<feOffset dx="9.2" dy="-9"/>
<feGaussianBlur stdDeviation="10.35"/>
<feComposite in2="hardAlpha" operator="arithmetic" k2="-1" k3="1"/>
<feColorMatrix type="matrix" values="0 0 0 0 0.462111 0 0 0 0 0.203767 0 0 0 0 0.504167 0 0 0 0.35 0"/>
<feBlend mode="normal" in2="effect3_innerShadow_2_1278" result="effect4_innerShadow_2_1278"/>
<feColorMatrix in="SourceAlpha" type="matrix" values="0 0 0 0 0 0 0 0 0 0 0 0 0 0 0 0 0 0 127 0" result="hardAlpha"/>
<feMorphology radius="26.45" operator="dilate" in="SourceAlpha" result="effect5_innerShadow_2_1278"/>
<feOffset dx="9.2" dy="-9"/>
<feGaussianBlur stdDeviation="10.35"/>
<feComposite in2="hardAlpha" operator="arithmetic" k2="-1" k3="1"/>
<feColorMatrix type="matrix" values="0 0 0 0 0.462111 0 0 0 0 0.203767 0 0 0 0 0.504167 0 0 0 0.35 0"/>
<feBlend mode="normal" in2="effect4_innerShadow_2_1278" result="effect5_innerShadow_2_1278"/>
</filter>
<filter id="filter6_ii_2_1278" x="10.5173" y="6.39109" width="75.3416" height="76.6634" filterUnits="userSpaceOnUse" color-interpolation-filters="sRGB">
<feFlood flood-opacity="0" result="BackgroundImageFix"/>
<feBlend mode="normal" in="SourceGraphic" in2="BackgroundImageFix" result="shape"/>
<feColorMatrix in="SourceAlpha" type="matrix" values="0 0 0 0 0 0 0 0 0 0 0 0 0 0 0 0 0 0 127 0" result="hardAlpha"/>
<feOffset dx="1.32178" dy="-6.60891"/>
<feGaussianBlur stdDeviation="7.60025"/>
<feComposite in2="hardAlpha" operator="arithmetic" k2="-1" k3="1"/>
<feColorMatrix type="matrix" values="0 0 0 0 0.796575 0 0 0 0 0.16125 0 0 0 0 0.9 0 0 0 0.6 0"/>
<feBlend mode="normal" in2="shape" result="effect1_innerShadow_2_1278"/>
<feColorMatrix in="SourceAlpha" type="matrix" values="0 0 0 0 0 0 0 0 0 0 0 0 0 0 0 0 0 0 127 0" result="hardAlpha"/>
<feOffset dx="-1.98267" dy="5.28713"/>
<feGaussianBlur stdDeviation="3.96535"/>
<feComposite in2="hardAlpha" operator="arithmetic" k2="-1" k3="1"/>
<feColorMatrix type="matrix" values="0 0 0 0 1 0 0 0 0 1 0 0 0 0 1 0 0 0 0.6 0"/>
<feBlend mode="normal" in2="effect1_innerShadow_2_1278" result="effect2_innerShadow_2_1278"/>
</filter>
<filter id="filter7_f_2_1278" x="28.7397" y="6.79668" width="71.4513" height="83.022" filterUnits="userSpaceOnUse" color-interpolation-filters="sRGB">
<feFlood flood-opacity="0" result="BackgroundImageFix"/>
<feBlend mode="normal" in="SourceGraphic" in2="BackgroundImageFix" result="shape"/>
<feGaussianBlur stdDeviation="10.5743" result="effect1_foregroundBlur_2_1278"/>
</filter>
<filter id="filter8_ii_2_1278" x="10.4781" y="161.261" width="76.8295" height="78.1774" filterUnits="userSpaceOnUse" color-interpolation-filters="sRGB">
<feFlood flood-opacity="0" result="BackgroundImageFix"/>
<feBlend mode="normal" in="SourceGraphic" in2="BackgroundImageFix" result="shape"/>
<feColorMatrix in="SourceAlpha" type="matrix" values="0 0 0 0 0 0 0 0 0 0 0 0 0 0 0 0 0 0 127 0" result="hardAlpha"/>
<feOffset dx="1.34789" dy="-6.73943"/>
<feGaussianBlur stdDeviation="7.75034"/>
<feComposite in2="hardAlpha" operator="arithmetic" k2="-1" k3="1"/>
<feColorMatrix type="matrix" values="0 0 0 0 0.796575 0 0 0 0 0.16125 0 0 0 0 0.9 0 0 0 0.6 0"/>
<feBlend mode="normal" in2="shape" result="effect1_innerShadow_2_1278"/>
<feColorMatrix in="SourceAlpha" type="matrix" values="0 0 0 0 0 0 0 0 0 0 0 0 0 0 0 0 0 0 127 0" result="hardAlpha"/>
<feOffset dx="-2.02183" dy="5.39154"/>
<feGaussianBlur stdDeviation="4.04366"/>
<feComposite in2="hardAlpha" operator="arithmetic" k2="-1" k3="1"/>
<feColorMatrix type="matrix" values="0 0 0 0 1 0 0 0 0 1 0 0 0 0 1 0 0 0 0.6 0"/>
<feBlend mode="normal" in2="effect1_innerShadow_2_1278" result="effect2_innerShadow_2_1278"/>
</filter>
<filter id="filter9_f_2_1278" x="-3.46302" y="161.674" width="72.8624" height="84.6616" filterUnits="userSpaceOnUse" color-interpolation-filters="sRGB">
<feFlood flood-opacity="0" result="BackgroundImageFix"/>
<feBlend mode="normal" in="SourceGraphic" in2="BackgroundImageFix" result="shape"/>
<feGaussianBlur stdDeviation="10.7831" result="effect1_foregroundBlur_2_1278"/>
</filter>
<filter id="filter10_ii_2_1278" x="160.327" y="134.756" width="82.5765" height="84.0252" filterUnits="userSpaceOnUse" color-interpolation-filters="sRGB">
<feFlood flood-opacity="0" result="BackgroundImageFix"/>
<feBlend mode="normal" in="SourceGraphic" in2="BackgroundImageFix" result="shape"/>
<feColorMatrix in="SourceAlpha" type="matrix" values="0 0 0 0 0 0 0 0 0 0 0 0 0 0 0 0 0 0 127 0" result="hardAlpha"/>
<feOffset dx="1.44871" dy="-7.24355"/>
<feGaussianBlur stdDeviation="8.33008"/>
<feComposite in2="hardAlpha" operator="arithmetic" k2="-1" k3="1"/>
<feColorMatrix type="matrix" values="0 0 0 0 0.796575 0 0 0 0 0.16125 0 0 0 0 0.9 0 0 0 0.6 0"/>
<feBlend mode="normal" in2="shape" result="effect1_innerShadow_2_1278"/>
<feColorMatrix in="SourceAlpha" type="matrix" values="0 0 0 0 0 0 0 0 0 0 0 0 0 0 0 0 0 0 127 0" result="hardAlpha"/>
<feOffset dx="-2.17307" dy="5.79484"/>
<feGaussianBlur stdDeviation="4.34613"/>
<feComposite in2="hardAlpha" operator="arithmetic" k2="-1" k3="1"/>
<feColorMatrix type="matrix" values="0 0 0 0 1 0 0 0 0 1 0 0 0 0 1 0 0 0 0.6 0"/>
<feBlend mode="normal" in2="effect1_innerShadow_2_1278" result="effect2_innerShadow_2_1278"/>
</filter>
<filter id="filter11_f_2_1278" x="180.299" y="135.201" width="78.3126" height="90.9945" filterUnits="userSpaceOnUse" color-interpolation-filters="sRGB">
<feFlood flood-opacity="0" result="BackgroundImageFix"/>
<feBlend mode="normal" in="SourceGraphic" in2="BackgroundImageFix" result="shape"/>
<feGaussianBlur stdDeviation="11.5897" result="effect1_foregroundBlur_2_1278"/>
</filter>
<radialGradient id="paint0_radial_2_1278" cx="0" cy="0" r="1" gradientUnits="userSpaceOnUse" gradientTransform="translate(109.5 16) rotate(86.5167) scale(230.426)">
<stop stop-color="#FFBB0C"/>
<stop offset="1" stop-color="#FFC907"/>
</radialGradient>
<linearGradient id="paint1_linear_2_1278" x1="124" y1="42" x2="124" y2="163" gradientUnits="userSpaceOnUse">
<stop stop-color="#201721"/>
<stop offset="1" stop-color="#2B1F2C"/>
</linearGradient>
<clipPath id="clip0_2_1278">
<rect width="246" height="246" fill="white" transform="translate(0.5)"/>
</clipPath>
</defs>
</svg>
