<svg width="247" height="246" viewBox="0 0 247 246" fill="none" xmlns="http://www.w3.org/2000/svg">
<g clip-path="url(#clip0_2_1294)">
<g filter="url(#filter0_iii_2_1294)">
<path d="M0.5 115C0.5 51.4872 51.9873 0 115.5 0H127.5C193.222 0 246.5 53.2781 246.5 119V127C246.5 192.722 193.222 246 127.5 246H123.5C55.569 246 0.5 190.931 0.5 123V115Z" fill="url(#paint0_radial_2_1294)"/>
</g>
<g filter="url(#filter1_i_2_1294)">
<path d="M102.04 115.5C106.16 115.5 109.581 112.122 108.697 108.098C107.294 101.711 104.091 95.8008 99.3952 91.1048C92.9252 84.6348 84.15 81 75 81C65.85 81 57.0748 84.6348 50.6048 91.1048C46.1509 95.5587 43.0406 101.105 41.5346 107.114C40.3974 111.652 44.2924 115.5 48.9706 115.5C53.3564 115.5 56.7631 111.781 58.6273 107.811C59.5089 105.934 60.715 104.204 62.2097 102.71C65.6019 99.3176 70.2027 97.4118 75 97.4118C79.7973 97.4118 84.3981 99.3176 87.7903 102.71C89.0423 103.962 90.0918 105.378 90.9178 106.909C93.2658 111.26 97.0961 115.5 102.04 115.5Z" fill="#C4C4C4"/>
<path d="M102.04 115.5C106.16 115.5 109.581 112.122 108.697 108.098C107.294 101.711 104.091 95.8008 99.3952 91.1048C92.9252 84.6348 84.15 81 75 81C65.85 81 57.0748 84.6348 50.6048 91.1048C46.1509 95.5587 43.0406 101.105 41.5346 107.114C40.3974 111.652 44.2924 115.5 48.9706 115.5C53.3564 115.5 56.7631 111.781 58.6273 107.811C59.5089 105.934 60.715 104.204 62.2097 102.71C65.6019 99.3176 70.2027 97.4118 75 97.4118C79.7973 97.4118 84.3981 99.3176 87.7903 102.71C89.0423 103.962 90.0918 105.378 90.9178 106.909C93.2658 111.26 97.0961 115.5 102.04 115.5Z" fill="#221725"/>
</g>
<g filter="url(#filter2_i_2_1294)">
<path d="M199.04 115.5C203.16 115.5 206.581 112.122 205.697 108.098C204.294 101.711 201.091 95.8008 196.395 91.1048C189.925 84.6348 181.15 81 172 81C162.85 81 154.075 84.6348 147.605 91.1048C143.151 95.5587 140.041 101.105 138.535 107.114C137.397 111.652 141.292 115.5 145.971 115.5C150.356 115.5 153.763 111.781 155.627 107.811C156.509 105.934 157.715 104.204 159.21 102.71C162.602 99.3176 167.203 97.4118 172 97.4118C176.797 97.4118 181.398 99.3176 184.79 102.71C186.042 103.962 187.092 105.378 187.918 106.909C190.266 111.26 194.096 115.5 199.04 115.5Z" fill="#C4C4C4"/>
<path d="M199.04 115.5C203.16 115.5 206.581 112.122 205.697 108.098C204.294 101.711 201.091 95.8008 196.395 91.1048C189.925 84.6348 181.15 81 172 81C162.85 81 154.075 84.6348 147.605 91.1048C143.151 95.5587 140.041 101.105 138.535 107.114C137.397 111.652 141.292 115.5 145.971 115.5C150.356 115.5 153.763 111.781 155.627 107.811C156.509 105.934 157.715 104.204 159.21 102.71C162.602 99.3176 167.203 97.4118 172 97.4118C176.797 97.4118 181.398 99.3176 184.79 102.71C186.042 103.962 187.092 105.378 187.918 106.909C190.266 111.26 194.096 115.5 199.04 115.5Z" fill="#221725"/>
</g>
<g filter="url(#filter3_iii_2_1294)">
<path d="M177.144 145.251L136 166.5L168.116 187.952C168.369 188.121 168.495 188.205 168.594 188.27C181.429 196.66 198.731 190.998 204.123 176.645C204.165 176.533 204.217 176.391 204.321 176.106C204.434 175.795 204.491 175.64 204.532 175.524C209.847 160.433 198.417 144.689 182.422 145.07C182.299 145.073 182.134 145.078 181.804 145.09L177.144 145.251Z" fill="#C4C4C4"/>
<path d="M177.144 145.251L136 166.5L168.116 187.952C168.369 188.121 168.495 188.205 168.594 188.27C181.429 196.66 198.731 190.998 204.123 176.645C204.165 176.533 204.217 176.391 204.321 176.106C204.434 175.795 204.491 175.64 204.532 175.524C209.847 160.433 198.417 144.689 182.422 145.07C182.299 145.073 182.134 145.078 181.804 145.09L177.144 145.251Z" fill="url(#paint1_radial_2_1294)"/>
</g>
<path d="M160.943 152.907C162.935 150.762 166.688 151.586 168.005 154.2C169.338 156.845 171.248 159.923 173.84 162.553C177.435 166.2 184.067 170.173 188.78 172.759C191.052 174.006 191.148 177.327 188.904 178.624C187.566 179.398 185.92 179.399 184.601 178.592C181.095 176.448 174.099 171.993 169.933 168.155C165.78 164.329 162.445 159.98 160.594 157.365C159.62 155.988 159.796 154.143 160.943 152.907Z" fill="black" fill-opacity="0.21"/>
<g filter="url(#filter4_ii_2_1294)">
<mask id="path-6-inside-1_2_1294" fill="white">
<path d="M178.713 126.527C183.447 126.869 187.054 131.034 185.958 135.652C183.869 144.449 179.702 152.734 173.718 159.878C165.837 169.287 155.158 176.292 143.032 180.008C130.906 183.725 117.877 183.984 105.593 180.755C96.2517 178.299 87.66 173.91 80.4294 167.951C76.7321 164.904 77.1807 159.328 80.9149 156.326C84.3295 153.582 89.2497 154.033 92.7061 156.725C97.8062 160.697 103.761 163.64 110.202 165.333C119.233 167.707 128.813 167.516 137.729 164.784C146.644 162.051 154.496 156.901 160.291 149.982C164.224 145.287 167.09 139.92 168.751 134.214C170.059 129.72 174.045 126.19 178.713 126.527Z"/>
</mask>
<path d="M178.713 126.527C183.447 126.869 187.054 131.034 185.958 135.652C183.869 144.449 179.702 152.734 173.718 159.878C165.837 169.287 155.158 176.292 143.032 180.008C130.906 183.725 117.877 183.984 105.593 180.755C96.2517 178.299 87.66 173.91 80.4294 167.951C76.7321 164.904 77.1807 159.328 80.9149 156.326C84.3295 153.582 89.2497 154.033 92.7061 156.725C97.8062 160.697 103.761 163.64 110.202 165.333C119.233 167.707 128.813 167.516 137.729 164.784C146.644 162.051 154.496 156.901 160.291 149.982C164.224 145.287 167.09 139.92 168.751 134.214C170.059 129.72 174.045 126.19 178.713 126.527Z" stroke="url(#paint2_linear_2_1294)" stroke-width="22" stroke-linejoin="round" mask="url(#path-6-inside-1_2_1294)"/>
</g>
</g>
<defs>
<filter id="filter0_iii_2_1294" x="-10.5" y="-18" width="278" height="280" filterUnits="userSpaceOnUse" color-interpolation-filters="sRGB">
<feFlood flood-opacity="0" result="BackgroundImageFix"/>
<feBlend mode="normal" in="SourceGraphic" in2="BackgroundImageFix" result="shape"/>
<feColorMatrix in="SourceAlpha" type="matrix" values="0 0 0 0 0 0 0 0 0 0 0 0 0 0 0 0 0 0 127 0" result="hardAlpha"/>
<feMorphology radius="8" operator="erode" in="SourceAlpha" result="effect1_innerShadow_2_1294"/>
<feOffset dx="21" dy="13"/>
<feGaussianBlur stdDeviation="24"/>
<feComposite in2="hardAlpha" operator="arithmetic" k2="-1" k3="1"/>
<feColorMatrix type="matrix" values="0 0 0 0 0.682806 0 0 0 0 0.0652778 0 0 0 0 0.783333 0 0 0 0.14 0"/>
<feBlend mode="normal" in2="shape" result="effect1_innerShadow_2_1294"/>
<feColorMatrix in="SourceAlpha" type="matrix" values="0 0 0 0 0 0 0 0 0 0 0 0 0 0 0 0 0 0 127 0" result="hardAlpha"/>
<feOffset dy="-18"/>
<feGaussianBlur stdDeviation="15.5"/>
<feComposite in2="hardAlpha" operator="arithmetic" k2="-1" k3="1"/>
<feColorMatrix type="matrix" values="0 0 0 0 0.943639 0 0 0 0 0.223611 0 0 0 0 0.958333 0 0 0 0.44 0"/>
<feBlend mode="normal" in2="effect1_innerShadow_2_1294" result="effect2_innerShadow_2_1294"/>
<feColorMatrix in="SourceAlpha" type="matrix" values="0 0 0 0 0 0 0 0 0 0 0 0 0 0 0 0 0 0 127 0" result="hardAlpha"/>
<feOffset dx="-11" dy="16"/>
<feGaussianBlur stdDeviation="15.5"/>
<feComposite in2="hardAlpha" operator="arithmetic" k2="-1" k3="1"/>
<feColorMatrix type="matrix" values="0 0 0 0 1 0 0 0 0 1 0 0 0 0 1 0 0 0 0.59 0"/>
<feBlend mode="normal" in2="effect2_innerShadow_2_1294" result="effect3_innerShadow_2_1294"/>
</filter>
<filter id="filter1_i_2_1294" x="41.3352" y="81" width="67.5017" height="34.5" filterUnits="userSpaceOnUse" color-interpolation-filters="sRGB">
<feFlood flood-opacity="0" result="BackgroundImageFix"/>
<feBlend mode="normal" in="SourceGraphic" in2="BackgroundImageFix" result="shape"/>
<feColorMatrix in="SourceAlpha" type="matrix" values="0 0 0 0 0 0 0 0 0 0 0 0 0 0 0 0 0 0 127 0" result="hardAlpha"/>
<feMorphology radius="26.45" operator="dilate" in="SourceAlpha" result="effect1_innerShadow_2_1294"/>
<feOffset dx="9.2" dy="-7"/>
<feGaussianBlur stdDeviation="10.35"/>
<feComposite in2="hardAlpha" operator="arithmetic" k2="-1" k3="1"/>
<feColorMatrix type="matrix" values="0 0 0 0 0.462111 0 0 0 0 0.203767 0 0 0 0 0.504167 0 0 0 0.35 0"/>
<feBlend mode="normal" in2="shape" result="effect1_innerShadow_2_1294"/>
</filter>
<filter id="filter2_i_2_1294" x="138.335" y="81" width="67.5017" height="34.5" filterUnits="userSpaceOnUse" color-interpolation-filters="sRGB">
<feFlood flood-opacity="0" result="BackgroundImageFix"/>
<feBlend mode="normal" in="SourceGraphic" in2="BackgroundImageFix" result="shape"/>
<feColorMatrix in="SourceAlpha" type="matrix" values="0 0 0 0 0 0 0 0 0 0 0 0 0 0 0 0 0 0 127 0" result="hardAlpha"/>
<feMorphology radius="26.45" operator="dilate" in="SourceAlpha" result="effect1_innerShadow_2_1294"/>
<feOffset dx="9.2" dy="-9"/>
<feGaussianBlur stdDeviation="10.35"/>
<feComposite in2="hardAlpha" operator="arithmetic" k2="-1" k3="1"/>
<feColorMatrix type="matrix" values="0 0 0 0 0.462111 0 0 0 0 0.203767 0 0 0 0 0.504167 0 0 0 0.35 0"/>
<feBlend mode="normal" in2="shape" result="effect1_innerShadow_2_1294"/>
</filter>
<filter id="filter3_iii_2_1294" x="132.734" y="134.175" width="73.1164" height="62.3635" filterUnits="userSpaceOnUse" color-interpolation-filters="sRGB">
<feFlood flood-opacity="0" result="BackgroundImageFix"/>
<feBlend mode="normal" in="SourceGraphic" in2="BackgroundImageFix" result="shape"/>
<feColorMatrix in="SourceAlpha" type="matrix" values="0 0 0 0 0 0 0 0 0 0 0 0 0 0 0 0 0 0 127 0" result="hardAlpha"/>
<feOffset dy="4.35512"/>
<feGaussianBlur stdDeviation="5.4439"/>
<feComposite in2="hardAlpha" operator="arithmetic" k2="-1" k3="1"/>
<feColorMatrix type="matrix" values="0 0 0 0 0 0 0 0 0 0 0 0 0 0 0 0 0 0 0.25 0"/>
<feBlend mode="normal" in2="shape" result="effect1_innerShadow_2_1294"/>
<feColorMatrix in="SourceAlpha" type="matrix" values="0 0 0 0 0 0 0 0 0 0 0 0 0 0 0 0 0 0 127 0" result="hardAlpha"/>
<feOffset dx="-3.26634" dy="4.35512"/>
<feGaussianBlur stdDeviation="2.17756"/>
<feComposite in2="hardAlpha" operator="arithmetic" k2="-1" k3="1"/>
<feColorMatrix type="matrix" values="0 0 0 0 1 0 0 0 0 1 0 0 0 0 1 0 0 0 0.29 0"/>
<feBlend mode="normal" in2="effect1_innerShadow_2_1294" result="effect2_innerShadow_2_1294"/>
<feColorMatrix in="SourceAlpha" type="matrix" values="0 0 0 0 0 0 0 0 0 0 0 0 0 0 0 0 0 0 127 0" result="hardAlpha"/>
<feOffset dy="-10.8878"/>
<feGaussianBlur stdDeviation="5.4439"/>
<feComposite in2="hardAlpha" operator="arithmetic" k2="-1" k3="1"/>
<feColorMatrix type="matrix" values="0 0 0 0 0.828932 0 0 0 0 0.0596354 0 0 0 0 0.954167 0 0 0 0.6 0"/>
<feBlend mode="normal" in2="effect2_innerShadow_2_1294" result="effect3_innerShadow_2_1294"/>
</filter>
<filter id="filter4_ii_2_1294" x="77.8743" y="126.505" width="108.281" height="56.4952" filterUnits="userSpaceOnUse" color-interpolation-filters="sRGB">
<feFlood flood-opacity="0" result="BackgroundImageFix"/>
<feBlend mode="normal" in="SourceGraphic" in2="BackgroundImageFix" result="shape"/>
<feColorMatrix in="SourceAlpha" type="matrix" values="0 0 0 0 0 0 0 0 0 0 0 0 0 0 0 0 0 0 127 0" result="hardAlpha"/>
<feMorphology radius="26.45" operator="dilate" in="SourceAlpha" result="effect1_innerShadow_2_1294"/>
<feOffset dy="-20"/>
<feGaussianBlur stdDeviation="7"/>
<feComposite in2="hardAlpha" operator="arithmetic" k2="-1" k3="1"/>
<feColorMatrix type="matrix" values="0 0 0 0 0.3625 0 0 0 0 0.3625 0 0 0 0 0.3625 0 0 0 0.97 0"/>
<feBlend mode="normal" in2="shape" result="effect1_innerShadow_2_1294"/>
<feColorMatrix in="SourceAlpha" type="matrix" values="0 0 0 0 0 0 0 0 0 0 0 0 0 0 0 0 0 0 127 0" result="hardAlpha"/>
<feMorphology radius="26.45" operator="dilate" in="SourceAlpha" result="effect2_innerShadow_2_1294"/>
<feOffset dx="9.2" dy="-9"/>
<feGaussianBlur stdDeviation="10.35"/>
<feComposite in2="hardAlpha" operator="arithmetic" k2="-1" k3="1"/>
<feColorMatrix type="matrix" values="0 0 0 0 0.462111 0 0 0 0 0.203767 0 0 0 0 0.504167 0 0 0 0.35 0"/>
<feBlend mode="normal" in2="effect1_innerShadow_2_1294" result="effect2_innerShadow_2_1294"/>
</filter>
<radialGradient id="paint0_radial_2_1294" cx="0" cy="0" r="1" gradientUnits="userSpaceOnUse" gradientTransform="translate(109.5 16) rotate(86.5167) scale(230.426)">
<stop stop-color="#FFBB0C"/>
<stop offset="1" stop-color="#FFC907"/>
</radialGradient>
<radialGradient id="paint1_radial_2_1294" cx="0" cy="0" r="1" gradientUnits="userSpaceOnUse" gradientTransform="translate(159.489 162.42) rotate(64.8545) scale(50.1444 41.4853)">
<stop stop-color="#FC4141"/>
<stop offset="1" stop-color="#FF0F0F"/>
</radialGradient>
<linearGradient id="paint2_linear_2_1294" x1="87.898" y1="115.298" x2="128.004" y2="179.893" gradientUnits="userSpaceOnUse">
<stop stop-color="#402C41"/>
<stop offset="1" stop-color="#0C0B0E"/>
</linearGradient>
<clipPath id="clip0_2_1294">
<rect width="246" height="246" fill="white" transform="translate(0.5)"/>
</clipPath>
</defs>
</svg>
