<svg width="247" height="246" viewBox="0 0 247 246" fill="none" xmlns="http://www.w3.org/2000/svg">
<g clip-path="url(#clip0_2_1318)">
<g filter="url(#filter0_iii_2_1318)">
<path d="M0.5 115C0.5 51.4872 51.9873 0 115.5 0H127.5C193.222 0 246.5 53.2781 246.5 119V127C246.5 192.722 193.222 246 127.5 246H123.5C55.569 246 0.5 190.931 0.5 123V115Z" fill="url(#paint0_radial_2_1318)"/>
</g>
<g filter="url(#filter1_dii_2_1318)">
<path d="M24.5 73.3444C24.5 77.0202 27.4928 80.0455 31.1361 79.5577C35.421 78.9839 39.6228 77.8555 43.6342 76.194C49.7004 73.6812 55.2124 69.9983 59.8553 65.3553C64.4983 60.7124 68.1812 55.2005 70.694 49.1342C72.3555 45.1228 73.4839 40.921 74.0577 36.6361C74.5455 32.9928 71.5202 30 67.8444 30C64.1685 30 61.2498 33.0038 60.5867 36.6192C60.1211 39.1571 59.3881 41.6449 58.3959 44.0402C56.5522 48.4914 53.8497 52.536 50.4428 55.9428C47.036 59.3497 42.9914 62.0522 38.5402 63.8959C36.1449 64.8881 33.6571 65.6211 31.1192 66.0867C27.5038 66.7498 24.5 69.6685 24.5 73.3444Z" fill="url(#paint1_linear_2_1318)"/>
</g>
<g filter="url(#filter2_dii_2_1318)">
<path d="M220.5 73.3444C220.5 77.0202 217.507 80.0455 213.864 79.5577C209.579 78.9839 205.377 77.8555 201.366 76.194C195.3 73.6812 189.788 69.9983 185.145 65.3553C180.502 60.7124 176.819 55.2005 174.306 49.1342C172.644 45.1228 171.516 40.921 170.942 36.6361C170.454 32.9928 173.48 30 177.156 30C180.831 30 183.75 33.0038 184.413 36.6192C184.879 39.1571 185.612 41.6449 186.604 44.0402C188.448 48.4914 191.15 52.536 194.557 55.9428C197.964 59.3497 202.009 62.0522 206.46 63.8959C208.855 64.8881 211.343 65.6211 213.881 66.0867C217.496 66.7498 220.5 69.6685 220.5 73.3444Z" fill="url(#paint2_linear_2_1318)"/>
</g>
<mask id="mask0_2_1318" style="mask-type:alpha" maskUnits="userSpaceOnUse" x="96" y="147" width="53" height="71">
<rect x="96.5" y="147" width="52" height="71" rx="24.4177" fill="url(#paint3_linear_2_1318)"/>
</mask>
<g mask="url(#mask0_2_1318)">
<g filter="url(#filter3_i_2_1318)">
<rect x="96.5" y="147" width="52" height="71" rx="24.4177" fill="url(#paint4_linear_2_1318)"/>
</g>
<g filter="url(#filter4_i_2_1318)">
<path d="M54.9587 160.68C52.1775 154.302 56.6592 147 63.6171 147H187.271C188.78 147 185.009 147 186.028 147.177C190.762 147.999 196.891 158.489 195.283 163.016C194.937 163.991 200.075 154.873 198.02 158.52C195.411 163.149 195.018 171 189.704 171H59.362C55.5072 171 56.4996 164.213 54.9587 160.68Z" fill="white"/>
</g>
</g>
<g filter="url(#filter5_dii_2_1318)">
<path d="M53.5 103H88.5C88.5 103 78.5 176.5 88.5 216C90.7547 224.906 98.9549 234.545 104.68 240.428C106.618 242.42 105.215 246 102.435 246H40.116C37.3925 246 35.9741 242.566 37.8131 240.557C43.231 234.638 51.1632 224.839 53.5 216C65 172.5 53.5 103 53.5 103Z" fill="url(#paint5_linear_2_1318)"/>
</g>
<g filter="url(#filter6_dii_2_1318)">
<path d="M155.5 103H190.5C190.5 103 180.5 176.5 190.5 216C192.755 224.906 200.955 234.545 206.68 240.428C208.618 242.42 207.215 246 204.435 246H142.116C139.393 246 137.974 242.566 139.813 240.557C145.231 234.638 153.163 224.839 155.5 216C167 172.5 155.5 103 155.5 103Z" fill="url(#paint6_linear_2_1318)"/>
</g>
<g filter="url(#filter7_i_2_1318)">
<path d="M104.04 123.5C108.16 123.5 111.581 120.122 110.697 116.098C109.294 109.711 106.091 103.801 101.395 99.1048C94.9252 92.6348 86.15 89 77 89C67.85 89 59.0748 92.6348 52.6048 99.1048C48.1509 103.559 45.0406 109.105 43.5346 115.114C42.3974 119.652 46.2924 123.5 50.9706 123.5C55.3564 123.5 58.7631 119.781 60.6273 115.811C61.5089 113.934 62.715 112.204 64.2097 110.71C67.6019 107.318 72.2027 105.412 77 105.412C81.7973 105.412 86.3981 107.318 89.7903 110.71C91.0423 111.962 92.0918 113.378 92.9178 114.909C95.2658 119.26 99.0961 123.5 104.04 123.5Z" fill="#C4C4C4"/>
<path d="M104.04 123.5C108.16 123.5 111.581 120.122 110.697 116.098C109.294 109.711 106.091 103.801 101.395 99.1048C94.9252 92.6348 86.15 89 77 89C67.85 89 59.0748 92.6348 52.6048 99.1048C48.1509 103.559 45.0406 109.105 43.5346 115.114C42.3974 119.652 46.2924 123.5 50.9706 123.5C55.3564 123.5 58.7631 119.781 60.6273 115.811C61.5089 113.934 62.715 112.204 64.2097 110.71C67.6019 107.318 72.2027 105.412 77 105.412C81.7973 105.412 86.3981 107.318 89.7903 110.71C91.0423 111.962 92.0918 113.378 92.9178 114.909C95.2658 119.26 99.0961 123.5 104.04 123.5Z" fill="#221725"/>
</g>
<g filter="url(#filter8_i_2_1318)">
<path d="M201.04 123.5C205.16 123.5 208.581 120.122 207.697 116.098C206.294 109.711 203.091 103.801 198.395 99.1048C191.925 92.6348 183.15 89 174 89C164.85 89 156.075 92.6348 149.605 99.1048C145.151 103.559 142.041 109.105 140.535 115.114C139.397 119.652 143.292 123.5 147.971 123.5C152.356 123.5 155.763 119.781 157.627 115.811C158.509 113.934 159.715 112.204 161.21 110.71C164.602 107.318 169.203 105.412 174 105.412C178.797 105.412 183.398 107.318 186.79 110.71C188.042 111.962 189.092 113.378 189.918 114.909C192.266 119.26 196.096 123.5 201.04 123.5Z" fill="#C4C4C4"/>
<path d="M201.04 123.5C205.16 123.5 208.581 120.122 207.697 116.098C206.294 109.711 203.091 103.801 198.395 99.1048C191.925 92.6348 183.15 89 174 89C164.85 89 156.075 92.6348 149.605 99.1048C145.151 103.559 142.041 109.105 140.535 115.114C139.397 119.652 143.292 123.5 147.971 123.5C152.356 123.5 155.763 119.781 157.627 115.811C158.509 113.934 159.715 112.204 161.21 110.71C164.602 107.318 169.203 105.412 174 105.412C178.797 105.412 183.398 107.318 186.79 110.71C188.042 111.962 189.092 113.378 189.918 114.909C192.266 119.26 196.096 123.5 201.04 123.5Z" fill="#221725"/>
</g>
</g>
<defs>
<filter id="filter0_iii_2_1318" x="-10.5" y="-18" width="278" height="280" filterUnits="userSpaceOnUse" color-interpolation-filters="sRGB">
<feFlood flood-opacity="0" result="BackgroundImageFix"/>
<feBlend mode="normal" in="SourceGraphic" in2="BackgroundImageFix" result="shape"/>
<feColorMatrix in="SourceAlpha" type="matrix" values="0 0 0 0 0 0 0 0 0 0 0 0 0 0 0 0 0 0 127 0" result="hardAlpha"/>
<feMorphology radius="8" operator="erode" in="SourceAlpha" result="effect1_innerShadow_2_1318"/>
<feOffset dx="21" dy="13"/>
<feGaussianBlur stdDeviation="24"/>
<feComposite in2="hardAlpha" operator="arithmetic" k2="-1" k3="1"/>
<feColorMatrix type="matrix" values="0 0 0 0 0.682806 0 0 0 0 0.0652778 0 0 0 0 0.783333 0 0 0 0.14 0"/>
<feBlend mode="normal" in2="shape" result="effect1_innerShadow_2_1318"/>
<feColorMatrix in="SourceAlpha" type="matrix" values="0 0 0 0 0 0 0 0 0 0 0 0 0 0 0 0 0 0 127 0" result="hardAlpha"/>
<feOffset dy="-18"/>
<feGaussianBlur stdDeviation="15.5"/>
<feComposite in2="hardAlpha" operator="arithmetic" k2="-1" k3="1"/>
<feColorMatrix type="matrix" values="0 0 0 0 0.943639 0 0 0 0 0.223611 0 0 0 0 0.958333 0 0 0 0.44 0"/>
<feBlend mode="normal" in2="effect1_innerShadow_2_1318" result="effect2_innerShadow_2_1318"/>
<feColorMatrix in="SourceAlpha" type="matrix" values="0 0 0 0 0 0 0 0 0 0 0 0 0 0 0 0 0 0 127 0" result="hardAlpha"/>
<feOffset dx="-11" dy="16"/>
<feGaussianBlur stdDeviation="15.5"/>
<feComposite in2="hardAlpha" operator="arithmetic" k2="-1" k3="1"/>
<feColorMatrix type="matrix" values="0 0 0 0 1 0 0 0 0 1 0 0 0 0 1 0 0 0 0.59 0"/>
<feBlend mode="normal" in2="effect2_innerShadow_2_1318" result="effect3_innerShadow_2_1318"/>
</filter>
<filter id="filter1_dii_2_1318" x="3.5" y="18" width="103.609" height="103.609" filterUnits="userSpaceOnUse" color-interpolation-filters="sRGB">
<feFlood flood-opacity="0" result="BackgroundImageFix"/>
<feColorMatrix in="SourceAlpha" type="matrix" values="0 0 0 0 0 0 0 0 0 0 0 0 0 0 0 0 0 0 127 0" result="hardAlpha"/>
<feOffset dx="6" dy="15"/>
<feGaussianBlur stdDeviation="13.5"/>
<feColorMatrix type="matrix" values="0 0 0 0 0.0313726 0 0 0 0 0.02 0 0 0 0 0.0352941 0 0 0 0.25 0"/>
<feBlend mode="normal" in2="BackgroundImageFix" result="effect1_dropShadow_2_1318"/>
<feBlend mode="normal" in="SourceGraphic" in2="effect1_dropShadow_2_1318" result="shape"/>
<feColorMatrix in="SourceAlpha" type="matrix" values="0 0 0 0 0 0 0 0 0 0 0 0 0 0 0 0 0 0 127 0" result="hardAlpha"/>
<feOffset dy="4.44444"/>
<feGaussianBlur stdDeviation="2.22222"/>
<feComposite in2="hardAlpha" operator="arithmetic" k2="-1" k3="1"/>
<feColorMatrix type="matrix" values="0 0 0 0 0.181961 0 0 0 0 0.116 0 0 0 0 0.204706 0 0 0 1 0"/>
<feBlend mode="normal" in2="shape" result="effect2_innerShadow_2_1318"/>
<feColorMatrix in="SourceAlpha" type="matrix" values="0 0 0 0 0 0 0 0 0 0 0 0 0 0 0 0 0 0 127 0" result="hardAlpha"/>
<feOffset dy="-4.44444"/>
<feGaussianBlur stdDeviation="2.22222"/>
<feComposite in2="hardAlpha" operator="arithmetic" k2="-1" k3="1"/>
<feColorMatrix type="matrix" values="0 0 0 0 0.12549 0 0 0 0 0.08 0 0 0 0 0.141176 0 0 0 1 0"/>
<feBlend mode="normal" in2="effect2_innerShadow_2_1318" result="effect3_innerShadow_2_1318"/>
</filter>
<filter id="filter2_dii_2_1318" x="149.891" y="18" width="103.609" height="103.609" filterUnits="userSpaceOnUse" color-interpolation-filters="sRGB">
<feFlood flood-opacity="0" result="BackgroundImageFix"/>
<feColorMatrix in="SourceAlpha" type="matrix" values="0 0 0 0 0 0 0 0 0 0 0 0 0 0 0 0 0 0 127 0" result="hardAlpha"/>
<feOffset dx="6" dy="15"/>
<feGaussianBlur stdDeviation="13.5"/>
<feColorMatrix type="matrix" values="0 0 0 0 0.0313726 0 0 0 0 0.02 0 0 0 0 0.0352941 0 0 0 0.25 0"/>
<feBlend mode="normal" in2="BackgroundImageFix" result="effect1_dropShadow_2_1318"/>
<feBlend mode="normal" in="SourceGraphic" in2="effect1_dropShadow_2_1318" result="shape"/>
<feColorMatrix in="SourceAlpha" type="matrix" values="0 0 0 0 0 0 0 0 0 0 0 0 0 0 0 0 0 0 127 0" result="hardAlpha"/>
<feOffset dy="4.44444"/>
<feGaussianBlur stdDeviation="2.22222"/>
<feComposite in2="hardAlpha" operator="arithmetic" k2="-1" k3="1"/>
<feColorMatrix type="matrix" values="0 0 0 0 0.181961 0 0 0 0 0.116 0 0 0 0 0.204706 0 0 0 1 0"/>
<feBlend mode="normal" in2="shape" result="effect2_innerShadow_2_1318"/>
<feColorMatrix in="SourceAlpha" type="matrix" values="0 0 0 0 0 0 0 0 0 0 0 0 0 0 0 0 0 0 127 0" result="hardAlpha"/>
<feOffset dy="-4.44444"/>
<feGaussianBlur stdDeviation="2.22222"/>
<feComposite in2="hardAlpha" operator="arithmetic" k2="-1" k3="1"/>
<feColorMatrix type="matrix" values="0 0 0 0 0.12549 0 0 0 0 0.08 0 0 0 0 0.141176 0 0 0 1 0"/>
<feBlend mode="normal" in2="effect2_innerShadow_2_1318" result="effect3_innerShadow_2_1318"/>
</filter>
<filter id="filter3_i_2_1318" x="96.5" y="147" width="52" height="71" filterUnits="userSpaceOnUse" color-interpolation-filters="sRGB">
<feFlood flood-opacity="0" result="BackgroundImageFix"/>
<feBlend mode="normal" in="SourceGraphic" in2="BackgroundImageFix" result="shape"/>
<feColorMatrix in="SourceAlpha" type="matrix" values="0 0 0 0 0 0 0 0 0 0 0 0 0 0 0 0 0 0 127 0" result="hardAlpha"/>
<feMorphology radius="31.2004" operator="dilate" in="SourceAlpha" result="effect1_innerShadow_2_1318"/>
<feOffset dx="10.8523" dy="-32.5569"/>
<feGaussianBlur stdDeviation="12.2088"/>
<feComposite in2="hardAlpha" operator="arithmetic" k2="-1" k3="1"/>
<feColorMatrix type="matrix" values="0 0 0 0 0.462111 0 0 0 0 0.203767 0 0 0 0 0.504167 0 0 0 0.35 0"/>
<feBlend mode="normal" in2="shape" result="effect1_innerShadow_2_1318"/>
</filter>
<filter id="filter4_i_2_1318" x="54.1227" y="144" width="144.384" height="27" filterUnits="userSpaceOnUse" color-interpolation-filters="sRGB">
<feFlood flood-opacity="0" result="BackgroundImageFix"/>
<feBlend mode="normal" in="SourceGraphic" in2="BackgroundImageFix" result="shape"/>
<feColorMatrix in="SourceAlpha" type="matrix" values="0 0 0 0 0 0 0 0 0 0 0 0 0 0 0 0 0 0 127 0" result="hardAlpha"/>
<feOffset dy="-3"/>
<feGaussianBlur stdDeviation="8"/>
<feComposite in2="hardAlpha" operator="arithmetic" k2="-1" k3="1"/>
<feColorMatrix type="matrix" values="0 0 0 0 0 0 0 0 0 0 0 0 0 0 0 0 0 0 0.47 0"/>
<feBlend mode="normal" in2="shape" result="effect1_innerShadow_2_1318"/>
</filter>
<filter id="filter5_dii_2_1318" x="19.3225" y="80.3387" width="103.917" height="178.323" filterUnits="userSpaceOnUse" color-interpolation-filters="sRGB">
<feFlood flood-opacity="0" result="BackgroundImageFix"/>
<feColorMatrix in="SourceAlpha" type="matrix" values="0 0 0 0 0 0 0 0 0 0 0 0 0 0 0 0 0 0 127 0" result="hardAlpha"/>
<feOffset dy="-5"/>
<feGaussianBlur stdDeviation="8.83064"/>
<feColorMatrix type="matrix" values="0 0 0 0 0 0 0 0 0 0 0 0 0 0 0 0 0 0 0.25 0"/>
<feBlend mode="normal" in2="BackgroundImageFix" result="effect1_dropShadow_2_1318"/>
<feBlend mode="normal" in="SourceGraphic" in2="effect1_dropShadow_2_1318" result="shape"/>
<feColorMatrix in="SourceAlpha" type="matrix" values="0 0 0 0 0 0 0 0 0 0 0 0 0 0 0 0 0 0 127 0" result="hardAlpha"/>
<feOffset dy="-3"/>
<feGaussianBlur stdDeviation="5"/>
<feComposite in2="hardAlpha" operator="arithmetic" k2="-1" k3="1"/>
<feColorMatrix type="matrix" values="0 0 0 0 0.3625 0 0 0 0 0.3625 0 0 0 0 0.3625 0 0 0 0.29 0"/>
<feBlend mode="normal" in2="shape" result="effect2_innerShadow_2_1318"/>
<feColorMatrix in="SourceAlpha" type="matrix" values="0 0 0 0 0 0 0 0 0 0 0 0 0 0 0 0 0 0 127 0" result="hardAlpha"/>
<feOffset dx="1" dy="-11"/>
<feGaussianBlur stdDeviation="6"/>
<feComposite in2="hardAlpha" operator="arithmetic" k2="-1" k3="1"/>
<feColorMatrix type="matrix" values="0 0 0 0 0.8775 0 0 0 0 0.125 0 0 0 0 1 0 0 0 0.28 0"/>
<feBlend mode="normal" in2="effect2_innerShadow_2_1318" result="effect3_innerShadow_2_1318"/>
</filter>
<filter id="filter6_dii_2_1318" x="121.322" y="80.3387" width="103.917" height="178.323" filterUnits="userSpaceOnUse" color-interpolation-filters="sRGB">
<feFlood flood-opacity="0" result="BackgroundImageFix"/>
<feColorMatrix in="SourceAlpha" type="matrix" values="0 0 0 0 0 0 0 0 0 0 0 0 0 0 0 0 0 0 127 0" result="hardAlpha"/>
<feOffset dy="-5"/>
<feGaussianBlur stdDeviation="8.83064"/>
<feColorMatrix type="matrix" values="0 0 0 0 0 0 0 0 0 0 0 0 0 0 0 0 0 0 0.25 0"/>
<feBlend mode="normal" in2="BackgroundImageFix" result="effect1_dropShadow_2_1318"/>
<feBlend mode="normal" in="SourceGraphic" in2="effect1_dropShadow_2_1318" result="shape"/>
<feColorMatrix in="SourceAlpha" type="matrix" values="0 0 0 0 0 0 0 0 0 0 0 0 0 0 0 0 0 0 127 0" result="hardAlpha"/>
<feOffset dy="-3"/>
<feGaussianBlur stdDeviation="5"/>
<feComposite in2="hardAlpha" operator="arithmetic" k2="-1" k3="1"/>
<feColorMatrix type="matrix" values="0 0 0 0 0.3625 0 0 0 0 0.3625 0 0 0 0 0.3625 0 0 0 0.29 0"/>
<feBlend mode="normal" in2="shape" result="effect2_innerShadow_2_1318"/>
<feColorMatrix in="SourceAlpha" type="matrix" values="0 0 0 0 0 0 0 0 0 0 0 0 0 0 0 0 0 0 127 0" result="hardAlpha"/>
<feOffset dx="1" dy="-11"/>
<feGaussianBlur stdDeviation="6"/>
<feComposite in2="hardAlpha" operator="arithmetic" k2="-1" k3="1"/>
<feColorMatrix type="matrix" values="0 0 0 0 0.8775 0 0 0 0 0.125 0 0 0 0 1 0 0 0 0.28 0"/>
<feBlend mode="normal" in2="effect2_innerShadow_2_1318" result="effect3_innerShadow_2_1318"/>
</filter>
<filter id="filter7_i_2_1318" x="43.3353" y="89" width="67.5018" height="34.5" filterUnits="userSpaceOnUse" color-interpolation-filters="sRGB">
<feFlood flood-opacity="0" result="BackgroundImageFix"/>
<feBlend mode="normal" in="SourceGraphic" in2="BackgroundImageFix" result="shape"/>
<feColorMatrix in="SourceAlpha" type="matrix" values="0 0 0 0 0 0 0 0 0 0 0 0 0 0 0 0 0 0 127 0" result="hardAlpha"/>
<feMorphology radius="26.45" operator="dilate" in="SourceAlpha" result="effect1_innerShadow_2_1318"/>
<feOffset dx="9.2" dy="-7"/>
<feGaussianBlur stdDeviation="10.35"/>
<feComposite in2="hardAlpha" operator="arithmetic" k2="-1" k3="1"/>
<feColorMatrix type="matrix" values="0 0 0 0 0.462111 0 0 0 0 0.203767 0 0 0 0 0.504167 0 0 0 0.35 0"/>
<feBlend mode="normal" in2="shape" result="effect1_innerShadow_2_1318"/>
</filter>
<filter id="filter8_i_2_1318" x="140.335" y="89" width="67.5018" height="34.5" filterUnits="userSpaceOnUse" color-interpolation-filters="sRGB">
<feFlood flood-opacity="0" result="BackgroundImageFix"/>
<feBlend mode="normal" in="SourceGraphic" in2="BackgroundImageFix" result="shape"/>
<feColorMatrix in="SourceAlpha" type="matrix" values="0 0 0 0 0 0 0 0 0 0 0 0 0 0 0 0 0 0 127 0" result="hardAlpha"/>
<feMorphology radius="26.45" operator="dilate" in="SourceAlpha" result="effect1_innerShadow_2_1318"/>
<feOffset dx="9.2" dy="-9"/>
<feGaussianBlur stdDeviation="10.35"/>
<feComposite in2="hardAlpha" operator="arithmetic" k2="-1" k3="1"/>
<feColorMatrix type="matrix" values="0 0 0 0 0.462111 0 0 0 0 0.203767 0 0 0 0 0.504167 0 0 0 0.35 0"/>
<feBlend mode="normal" in2="shape" result="effect1_innerShadow_2_1318"/>
</filter>
<radialGradient id="paint0_radial_2_1318" cx="0" cy="0" r="1" gradientUnits="userSpaceOnUse" gradientTransform="translate(109.5 16) rotate(86.5167) scale(230.426)">
<stop stop-color="#FFBB0C"/>
<stop offset="1" stop-color="#FFC907"/>
</radialGradient>
<linearGradient id="paint1_linear_2_1318" x1="24.5" y1="-20" x2="24.5" y2="80" gradientUnits="userSpaceOnUse">
<stop stop-color="#2D1D32"/>
<stop offset="1" stop-color="#221526"/>
</linearGradient>
<linearGradient id="paint2_linear_2_1318" x1="220.5" y1="-20" x2="220.5" y2="80" gradientUnits="userSpaceOnUse">
<stop stop-color="#2D1D32"/>
<stop offset="1" stop-color="#221526"/>
</linearGradient>
<linearGradient id="paint3_linear_2_1318" x1="122.5" y1="147" x2="176.869" y2="189.032" gradientUnits="userSpaceOnUse">
<stop stop-color="#FF20C1"/>
<stop offset="1" stop-color="#3A2EC0"/>
</linearGradient>
<linearGradient id="paint4_linear_2_1318" x1="122.5" y1="147" x2="176.869" y2="189.032" gradientUnits="userSpaceOnUse">
<stop stop-color="#FF20C1"/>
<stop offset="1" stop-color="#3A2EC0"/>
</linearGradient>
<linearGradient id="paint5_linear_2_1318" x1="71.5" y1="103" x2="71.8723" y2="245.894" gradientUnits="userSpaceOnUse">
<stop stop-color="#3FEEC4"/>
<stop offset="1" stop-color="#43BBFF"/>
</linearGradient>
<linearGradient id="paint6_linear_2_1318" x1="173.5" y1="103" x2="173.872" y2="245.894" gradientUnits="userSpaceOnUse">
<stop stop-color="#3FEEC4"/>
<stop offset="1" stop-color="#43BBFF"/>
</linearGradient>
<clipPath id="clip0_2_1318">
<rect width="246" height="246" fill="white" transform="translate(0.5)"/>
</clipPath>
</defs>
</svg>
