<svg width="246" height="246" viewBox="0 0 246 246" fill="none" xmlns="http://www.w3.org/2000/svg">
<g clip-path="url(#clip0_2_1242)">
<g filter="url(#filter0_iii_2_1242)">
<path d="M0 115C0 51.4872 51.4873 0 115 0H127C192.722 0 246 53.2781 246 119V127C246 192.722 192.722 246 127 246H123C55.069 246 0 190.931 0 123V115Z" fill="url(#paint0_radial_2_1242)"/>
</g>
<g filter="url(#filter1_f_2_1242)">
<circle cx="59.5" cy="132.5" r="35.5" fill="#FF4242"/>
</g>
<g filter="url(#filter2_f_2_1242)">
<circle cx="188.5" cy="132.5" r="35.5" fill="#FF4242"/>
</g>
<g filter="url(#filter3_i_2_1242)">
<path d="M101.54 97.5C105.66 97.5 109.081 94.1218 108.197 90.0978C106.794 83.7112 103.591 77.8008 98.8952 73.1048C92.4252 66.6348 83.65 63 74.5 63C65.35 63 56.5748 66.6348 50.1048 73.1048C45.6509 77.5587 42.5406 83.105 41.0346 89.114C39.8974 93.6519 43.7924 97.5 48.4706 97.5C52.8564 97.5 56.2631 93.7812 58.1273 89.8113C59.0089 87.9338 60.215 86.2045 61.7097 84.7097C65.1019 81.3176 69.7027 79.4118 74.5 79.4118C79.2973 79.4118 83.8981 81.3176 87.2903 84.7097C88.5423 85.9618 89.5918 87.3785 90.4178 88.9089C92.7658 93.2597 96.5961 97.5 101.54 97.5Z" fill="#C4C4C4"/>
<path d="M101.54 97.5C105.66 97.5 109.081 94.1218 108.197 90.0978C106.794 83.7112 103.591 77.8008 98.8952 73.1048C92.4252 66.6348 83.65 63 74.5 63C65.35 63 56.5748 66.6348 50.1048 73.1048C45.6509 77.5587 42.5406 83.105 41.0346 89.114C39.8974 93.6519 43.7924 97.5 48.4706 97.5C52.8564 97.5 56.2631 93.7812 58.1273 89.8113C59.0089 87.9338 60.215 86.2045 61.7097 84.7097C65.1019 81.3176 69.7027 79.4118 74.5 79.4118C79.2973 79.4118 83.8981 81.3176 87.2903 84.7097C88.5423 85.9618 89.5918 87.3785 90.4178 88.9089C92.7658 93.2597 96.5961 97.5 101.54 97.5Z" fill="#221725"/>
</g>
<g filter="url(#filter4_i_2_1242)">
<path d="M198.54 97.5C202.66 97.5 206.081 94.1218 205.197 90.0978C203.794 83.7112 200.591 77.8008 195.895 73.1048C189.425 66.6348 180.65 63 171.5 63C162.35 63 153.575 66.6348 147.105 73.1048C142.651 77.5587 139.541 83.105 138.035 89.114C136.897 93.6519 140.792 97.5 145.471 97.5C149.856 97.5 153.263 93.7812 155.127 89.8113C156.009 87.9338 157.215 86.2045 158.71 84.7097C162.102 81.3176 166.703 79.4118 171.5 79.4118C176.297 79.4118 180.898 81.3176 184.29 84.7097C185.542 85.9618 186.592 87.3785 187.418 88.9089C189.766 93.2597 193.596 97.5 198.54 97.5Z" fill="#C4C4C4"/>
<path d="M198.54 97.5C202.66 97.5 206.081 94.1218 205.197 90.0978C203.794 83.7112 200.591 77.8008 195.895 73.1048C189.425 66.6348 180.65 63 171.5 63C162.35 63 153.575 66.6348 147.105 73.1048C142.651 77.5587 139.541 83.105 138.035 89.114C136.897 93.6519 140.792 97.5 145.471 97.5C149.856 97.5 153.263 93.7812 155.127 89.8113C156.009 87.9338 157.215 86.2045 158.71 84.7097C162.102 81.3176 166.703 79.4118 171.5 79.4118C176.297 79.4118 180.898 81.3176 184.29 84.7097C185.542 85.9618 186.592 87.3785 187.418 88.9089C189.766 93.2597 193.596 97.5 198.54 97.5Z" fill="#221725"/>
</g>
<g filter="url(#filter5_diiii_2_1242)">
<mask id="path-6-inside-1_2_1242" fill="white">
<path d="M179.462 112.5C184.178 112.5 188.065 116.344 187.359 121.006C186.599 126.026 185.168 130.947 183.09 135.652C179.849 142.993 175.098 149.662 169.108 155.28C163.119 160.898 156.009 165.354 148.183 168.395C140.358 171.435 131.97 173 123.5 173C115.03 173 106.642 171.435 98.8169 168.395C90.9914 165.354 83.881 160.898 77.8916 155.28C71.9022 149.662 67.1512 142.993 63.9098 135.652C61.832 130.947 60.4006 126.026 59.6406 121.006C58.9348 116.344 62.8225 112.5 67.5377 112.5C72.253 112.5 75.9891 116.361 76.9448 120.978C77.5493 123.899 78.4659 126.762 79.6854 129.523C82.0687 134.92 85.562 139.824 89.9658 143.955C94.3695 148.085 99.5976 151.362 105.351 153.597C111.105 155.833 117.272 156.983 123.5 156.983C129.728 156.983 135.895 155.833 141.649 153.597C147.402 151.362 152.63 148.085 157.034 143.955C161.438 139.824 164.931 134.92 167.315 129.523C168.534 126.762 169.451 123.899 170.055 120.978C171.011 116.361 174.747 112.5 179.462 112.5Z"/>
</mask>
<path d="M179.462 112.5C184.178 112.5 188.065 116.344 187.359 121.006C186.599 126.026 185.168 130.947 183.09 135.652C179.849 142.993 175.098 149.662 169.108 155.28C163.119 160.898 156.009 165.354 148.183 168.395C140.358 171.435 131.97 173 123.5 173C115.03 173 106.642 171.435 98.8169 168.395C90.9914 165.354 83.881 160.898 77.8916 155.28C71.9022 149.662 67.1512 142.993 63.9098 135.652C61.832 130.947 60.4006 126.026 59.6406 121.006C58.9348 116.344 62.8225 112.5 67.5377 112.5C72.253 112.5 75.9891 116.361 76.9448 120.978C77.5493 123.899 78.4659 126.762 79.6854 129.523C82.0687 134.92 85.562 139.824 89.9658 143.955C94.3695 148.085 99.5976 151.362 105.351 153.597C111.105 155.833 117.272 156.983 123.5 156.983C129.728 156.983 135.895 155.833 141.649 153.597C147.402 151.362 152.63 148.085 157.034 143.955C161.438 139.824 164.931 134.92 167.315 129.523C168.534 126.762 169.451 123.899 170.055 120.978C171.011 116.361 174.747 112.5 179.462 112.5Z" stroke="url(#paint1_linear_2_1242)" stroke-width="22" stroke-linejoin="round" mask="url(#path-6-inside-1_2_1242)"/>
</g>
<g clip-path="url(#clip1_2_1242)" filter="url(#filter6_d_2_1242)">
<g filter="url(#filter7_iii_2_1242)">
<path d="M76.5881 174.624C79.8999 178.14 85.435 178.306 88.951 174.994L119.915 145.828C123.553 142.401 123.725 136.673 120.298 133.035C116.871 129.396 111.143 129.225 107.505 132.652L76.9835 161.401C73.2229 164.943 73.0459 170.863 76.5881 174.624Z" fill="url(#paint2_radial_2_1242)"/>
</g>
<g filter="url(#filter8_iii_2_1242)">
<path d="M60.4336 168.868C64.272 172.027 69.9953 171.519 73.2169 167.733L95.2048 141.895C98.5385 137.977 98.0211 132.152 94.0492 128.883C90.0773 125.615 84.1549 126.14 80.8212 130.058L59.2392 155.419C55.7935 159.468 56.3282 165.49 60.4336 168.868Z" fill="url(#paint3_radial_2_1242)"/>
</g>
<g filter="url(#filter9_iii_2_1242)">
<path d="M85.7684 188.77C89.0802 192.286 94.6153 192.451 98.1313 189.14L137.879 151.7C141.517 148.273 141.689 142.545 138.262 138.907C134.835 135.269 129.107 135.097 125.469 138.524L86.1638 175.547C82.4032 179.089 82.2262 185.009 85.7684 188.77Z" fill="url(#paint4_radial_2_1242)"/>
</g>
<g filter="url(#filter10_iii_2_1242)">
<path d="M105.228 194.998C108.624 198.604 114.301 198.774 117.907 195.377L142.435 172.274C146.167 168.759 146.342 162.884 142.827 159.153C139.313 155.421 133.438 155.246 129.707 158.761L105.633 181.436C101.776 185.069 101.595 191.141 105.228 194.998Z" fill="url(#paint5_radial_2_1242)"/>
</g>
<g filter="url(#filter11_iii_2_1242)">
<path d="M81.7202 213.195C83.4468 219.058 89.5655 222.301 95.3867 220.437L141.613 205.637C147.637 203.708 151.072 197.226 149.285 191.159C147.498 185.091 141.167 181.736 135.143 183.665L89.65 198.23C83.4238 200.224 79.8735 206.923 81.7202 213.195Z" fill="url(#paint6_radial_2_1242)"/>
</g>
<g filter="url(#filter12_ii_2_1242)">
<path d="M59.6844 218.274C67.7074 226.791 80.1961 229.391 90.9518 224.783L109.08 217.017C121.077 211.877 124.442 196.452 115.675 186.782L90.6618 159.192C79.2204 146.572 58.8352 148.609 50.1179 163.244L43.0382 175.13C37.5368 184.366 38.8259 196.13 46.1968 203.955L59.6844 218.274Z" fill="url(#paint7_radial_2_1242)"/>
</g>
</g>
</g>
<defs>
<filter id="filter0_iii_2_1242" x="-11" y="-18" width="278" height="280" filterUnits="userSpaceOnUse" color-interpolation-filters="sRGB">
<feFlood flood-opacity="0" result="BackgroundImageFix"/>
<feBlend mode="normal" in="SourceGraphic" in2="BackgroundImageFix" result="shape"/>
<feColorMatrix in="SourceAlpha" type="matrix" values="0 0 0 0 0 0 0 0 0 0 0 0 0 0 0 0 0 0 127 0" result="hardAlpha"/>
<feMorphology radius="8" operator="erode" in="SourceAlpha" result="effect1_innerShadow_2_1242"/>
<feOffset dx="21" dy="13"/>
<feGaussianBlur stdDeviation="24"/>
<feComposite in2="hardAlpha" operator="arithmetic" k2="-1" k3="1"/>
<feColorMatrix type="matrix" values="0 0 0 0 0.682806 0 0 0 0 0.0652778 0 0 0 0 0.783333 0 0 0 0.14 0"/>
<feBlend mode="normal" in2="shape" result="effect1_innerShadow_2_1242"/>
<feColorMatrix in="SourceAlpha" type="matrix" values="0 0 0 0 0 0 0 0 0 0 0 0 0 0 0 0 0 0 127 0" result="hardAlpha"/>
<feOffset dy="-18"/>
<feGaussianBlur stdDeviation="15.5"/>
<feComposite in2="hardAlpha" operator="arithmetic" k2="-1" k3="1"/>
<feColorMatrix type="matrix" values="0 0 0 0 0.943639 0 0 0 0 0.223611 0 0 0 0 0.958333 0 0 0 0.44 0"/>
<feBlend mode="normal" in2="effect1_innerShadow_2_1242" result="effect2_innerShadow_2_1242"/>
<feColorMatrix in="SourceAlpha" type="matrix" values="0 0 0 0 0 0 0 0 0 0 0 0 0 0 0 0 0 0 127 0" result="hardAlpha"/>
<feOffset dx="-11" dy="16"/>
<feGaussianBlur stdDeviation="15.5"/>
<feComposite in2="hardAlpha" operator="arithmetic" k2="-1" k3="1"/>
<feColorMatrix type="matrix" values="0 0 0 0 1 0 0 0 0 1 0 0 0 0 1 0 0 0 0.59 0"/>
<feBlend mode="normal" in2="effect2_innerShadow_2_1242" result="effect3_innerShadow_2_1242"/>
</filter>
<filter id="filter1_f_2_1242" x="-26.3605" y="46.6395" width="171.721" height="171.721" filterUnits="userSpaceOnUse" color-interpolation-filters="sRGB">
<feFlood flood-opacity="0" result="BackgroundImageFix"/>
<feBlend mode="normal" in="SourceGraphic" in2="BackgroundImageFix" result="shape"/>
<feGaussianBlur stdDeviation="25.1802" result="effect1_foregroundBlur_2_1242"/>
</filter>
<filter id="filter2_f_2_1242" x="102.64" y="46.6395" width="171.721" height="171.721" filterUnits="userSpaceOnUse" color-interpolation-filters="sRGB">
<feFlood flood-opacity="0" result="BackgroundImageFix"/>
<feBlend mode="normal" in="SourceGraphic" in2="BackgroundImageFix" result="shape"/>
<feGaussianBlur stdDeviation="25.1802" result="effect1_foregroundBlur_2_1242"/>
</filter>
<filter id="filter3_i_2_1242" x="40.8353" y="63" width="67.5018" height="34.5" filterUnits="userSpaceOnUse" color-interpolation-filters="sRGB">
<feFlood flood-opacity="0" result="BackgroundImageFix"/>
<feBlend mode="normal" in="SourceGraphic" in2="BackgroundImageFix" result="shape"/>
<feColorMatrix in="SourceAlpha" type="matrix" values="0 0 0 0 0 0 0 0 0 0 0 0 0 0 0 0 0 0 127 0" result="hardAlpha"/>
<feMorphology radius="26.45" operator="dilate" in="SourceAlpha" result="effect1_innerShadow_2_1242"/>
<feOffset dx="9.2" dy="-7"/>
<feGaussianBlur stdDeviation="10.35"/>
<feComposite in2="hardAlpha" operator="arithmetic" k2="-1" k3="1"/>
<feColorMatrix type="matrix" values="0 0 0 0 0.462111 0 0 0 0 0.203767 0 0 0 0 0.504167 0 0 0 0.35 0"/>
<feBlend mode="normal" in2="shape" result="effect1_innerShadow_2_1242"/>
</filter>
<filter id="filter4_i_2_1242" x="137.835" y="63" width="67.5018" height="34.5" filterUnits="userSpaceOnUse" color-interpolation-filters="sRGB">
<feFlood flood-opacity="0" result="BackgroundImageFix"/>
<feBlend mode="normal" in="SourceGraphic" in2="BackgroundImageFix" result="shape"/>
<feColorMatrix in="SourceAlpha" type="matrix" values="0 0 0 0 0 0 0 0 0 0 0 0 0 0 0 0 0 0 127 0" result="hardAlpha"/>
<feMorphology radius="26.45" operator="dilate" in="SourceAlpha" result="effect1_innerShadow_2_1242"/>
<feOffset dx="9.2" dy="-9"/>
<feGaussianBlur stdDeviation="10.35"/>
<feComposite in2="hardAlpha" operator="arithmetic" k2="-1" k3="1"/>
<feColorMatrix type="matrix" values="0 0 0 0 0.462111 0 0 0 0 0.203767 0 0 0 0 0.504167 0 0 0 0.35 0"/>
<feBlend mode="normal" in2="shape" result="effect1_innerShadow_2_1242"/>
</filter>
<filter id="filter5_diiii_2_1242" x="26.2242" y="95.8333" width="194.552" height="127.167" filterUnits="userSpaceOnUse" color-interpolation-filters="sRGB">
<feFlood flood-opacity="0" result="BackgroundImageFix"/>
<feColorMatrix in="SourceAlpha" type="matrix" values="0 0 0 0 0 0 0 0 0 0 0 0 0 0 0 0 0 0 127 0" result="hardAlpha"/>
<feOffset dy="16.6667"/>
<feGaussianBlur stdDeviation="16.6667"/>
<feColorMatrix type="matrix" values="0 0 0 0 0.0298758 0 0 0 0 0.0216858 0 0 0 0 0.0308333 0 0 0 0.24 0"/>
<feBlend mode="normal" in2="BackgroundImageFix" result="effect1_dropShadow_2_1242"/>
<feBlend mode="normal" in="SourceGraphic" in2="effect1_dropShadow_2_1242" result="shape"/>
<feColorMatrix in="SourceAlpha" type="matrix" values="0 0 0 0 0 0 0 0 0 0 0 0 0 0 0 0 0 0 127 0" result="hardAlpha"/>
<feOffset dy="5.18518"/>
<feGaussianBlur stdDeviation="2.59259"/>
<feComposite in2="hardAlpha" operator="arithmetic" k2="-1" k3="1"/>
<feColorMatrix type="matrix" values="0 0 0 0 0.17328 0 0 0 0 0.125777 0 0 0 0 0.178833 0 0 0 1 0"/>
<feBlend mode="normal" in2="shape" result="effect2_innerShadow_2_1242"/>
<feColorMatrix in="SourceAlpha" type="matrix" values="0 0 0 0 0 0 0 0 0 0 0 0 0 0 0 0 0 0 127 0" result="hardAlpha"/>
<feOffset dy="-2.59259"/>
<feGaussianBlur stdDeviation="1.2963"/>
<feComposite in2="hardAlpha" operator="arithmetic" k2="-1" k3="1"/>
<feColorMatrix type="matrix" values="0 0 0 0 0.119503 0 0 0 0 0.086743 0 0 0 0 0.123333 0 0 0 1 0"/>
<feBlend mode="normal" in2="effect2_innerShadow_2_1242" result="effect3_innerShadow_2_1242"/>
<feColorMatrix in="SourceAlpha" type="matrix" values="0 0 0 0 0 0 0 0 0 0 0 0 0 0 0 0 0 0 127 0" result="hardAlpha"/>
<feMorphology radius="26.45" operator="dilate" in="SourceAlpha" result="effect4_innerShadow_2_1242"/>
<feOffset dx="9.2" dy="-9"/>
<feGaussianBlur stdDeviation="10.35"/>
<feComposite in2="hardAlpha" operator="arithmetic" k2="-1" k3="1"/>
<feColorMatrix type="matrix" values="0 0 0 0 0.462111 0 0 0 0 0.203767 0 0 0 0 0.504167 0 0 0 0.35 0"/>
<feBlend mode="normal" in2="effect3_innerShadow_2_1242" result="effect4_innerShadow_2_1242"/>
<feColorMatrix in="SourceAlpha" type="matrix" values="0 0 0 0 0 0 0 0 0 0 0 0 0 0 0 0 0 0 127 0" result="hardAlpha"/>
<feMorphology radius="26.45" operator="dilate" in="SourceAlpha" result="effect5_innerShadow_2_1242"/>
<feOffset dx="9.2" dy="-9"/>
<feGaussianBlur stdDeviation="10.35"/>
<feComposite in2="hardAlpha" operator="arithmetic" k2="-1" k3="1"/>
<feColorMatrix type="matrix" values="0 0 0 0 0.462111 0 0 0 0 0.203767 0 0 0 0 0.504167 0 0 0 0.35 0"/>
<feBlend mode="normal" in2="effect4_innerShadow_2_1242" result="effect5_innerShadow_2_1242"/>
</filter>
<filter id="filter6_d_2_1242" x="-13.7118" y="68.3213" width="222.454" height="222.454" filterUnits="userSpaceOnUse" color-interpolation-filters="sRGB">
<feFlood flood-opacity="0" result="BackgroundImageFix"/>
<feColorMatrix in="SourceAlpha" type="matrix" values="0 0 0 0 0 0 0 0 0 0 0 0 0 0 0 0 0 0 127 0" result="hardAlpha"/>
<feOffset dx="5.30386" dy="-0.662982"/>
<feGaussianBlur stdDeviation="5.50781"/>
<feColorMatrix type="matrix" values="0 0 0 0 0.879167 0 0 0 0 0.223455 0 0 0 0 0.223455 0 0 0 0.47 0"/>
<feBlend mode="normal" in2="BackgroundImageFix" result="effect1_dropShadow_2_1242"/>
<feBlend mode="normal" in="SourceGraphic" in2="effect1_dropShadow_2_1242" result="shape"/>
</filter>
<filter id="filter7_iii_2_1242" x="69.7456" y="123.158" width="61.2185" height="60.4663" filterUnits="userSpaceOnUse" color-interpolation-filters="sRGB">
<feFlood flood-opacity="0" result="BackgroundImageFix"/>
<feBlend mode="normal" in="SourceGraphic" in2="BackgroundImageFix" result="shape"/>
<feColorMatrix in="SourceAlpha" type="matrix" values="0 0 0 0 0 0 0 0 0 0 0 0 0 0 0 0 0 0 127 0" result="hardAlpha"/>
<feMorphology radius="3.12538" operator="erode" in="SourceAlpha" result="effect1_innerShadow_2_1242"/>
<feOffset dx="8.20413" dy="5.07875"/>
<feGaussianBlur stdDeviation="9.37615"/>
<feComposite in2="hardAlpha" operator="arithmetic" k2="-1" k3="1"/>
<feColorMatrix type="matrix" values="0 0 0 0 0.682806 0 0 0 0 0.0652778 0 0 0 0 0.783333 0 0 0 0.14 0"/>
<feBlend mode="normal" in2="shape" result="effect1_innerShadow_2_1242"/>
<feColorMatrix in="SourceAlpha" type="matrix" values="0 0 0 0 0 0 0 0 0 0 0 0 0 0 0 0 0 0 127 0" result="hardAlpha"/>
<feOffset dy="-7.03211"/>
<feGaussianBlur stdDeviation="6.05543"/>
<feComposite in2="hardAlpha" operator="arithmetic" k2="-1" k3="1"/>
<feColorMatrix type="matrix" values="0 0 0 0 0.943639 0 0 0 0 0.223611 0 0 0 0 0.958333 0 0 0 0.44 0"/>
<feBlend mode="normal" in2="effect1_innerShadow_2_1242" result="effect2_innerShadow_2_1242"/>
<feColorMatrix in="SourceAlpha" type="matrix" values="0 0 0 0 0 0 0 0 0 0 0 0 0 0 0 0 0 0 127 0" result="hardAlpha"/>
<feOffset dx="-4.2974" dy="6.25077"/>
<feGaussianBlur stdDeviation="6.05543"/>
<feComposite in2="hardAlpha" operator="arithmetic" k2="-1" k3="1"/>
<feColorMatrix type="matrix" values="0 0 0 0 1 0 0 0 0 1 0 0 0 0 1 0 0 0 0.59 0"/>
<feBlend mode="normal" in2="effect2_innerShadow_2_1242" result="effect3_innerShadow_2_1242"/>
</filter>
<filter id="filter8_iii_2_1242" x="52.6703" y="119.706" width="52.9362" height="57.486" filterUnits="userSpaceOnUse" color-interpolation-filters="sRGB">
<feFlood flood-opacity="0" result="BackgroundImageFix"/>
<feBlend mode="normal" in="SourceGraphic" in2="BackgroundImageFix" result="shape"/>
<feColorMatrix in="SourceAlpha" type="matrix" values="0 0 0 0 0 0 0 0 0 0 0 0 0 0 0 0 0 0 127 0" result="hardAlpha"/>
<feMorphology radius="3.12538" operator="erode" in="SourceAlpha" result="effect1_innerShadow_2_1242"/>
<feOffset dx="8.20413" dy="5.07875"/>
<feGaussianBlur stdDeviation="9.37615"/>
<feComposite in2="hardAlpha" operator="arithmetic" k2="-1" k3="1"/>
<feColorMatrix type="matrix" values="0 0 0 0 0.682806 0 0 0 0 0.0652778 0 0 0 0 0.783333 0 0 0 0.14 0"/>
<feBlend mode="normal" in2="shape" result="effect1_innerShadow_2_1242"/>
<feColorMatrix in="SourceAlpha" type="matrix" values="0 0 0 0 0 0 0 0 0 0 0 0 0 0 0 0 0 0 127 0" result="hardAlpha"/>
<feOffset dy="-7.03211"/>
<feGaussianBlur stdDeviation="6.05543"/>
<feComposite in2="hardAlpha" operator="arithmetic" k2="-1" k3="1"/>
<feColorMatrix type="matrix" values="0 0 0 0 0.943639 0 0 0 0 0.223611 0 0 0 0 0.958333 0 0 0 0.44 0"/>
<feBlend mode="normal" in2="effect1_innerShadow_2_1242" result="effect2_innerShadow_2_1242"/>
<feColorMatrix in="SourceAlpha" type="matrix" values="0 0 0 0 0 0 0 0 0 0 0 0 0 0 0 0 0 0 127 0" result="hardAlpha"/>
<feOffset dx="-4.2974" dy="6.25077"/>
<feGaussianBlur stdDeviation="6.05543"/>
<feComposite in2="hardAlpha" operator="arithmetic" k2="-1" k3="1"/>
<feColorMatrix type="matrix" values="0 0 0 0 1 0 0 0 0 1 0 0 0 0 1 0 0 0 0.59 0"/>
<feBlend mode="normal" in2="effect2_innerShadow_2_1242" result="effect3_innerShadow_2_1242"/>
</filter>
<filter id="filter9_iii_2_1242" x="78.9259" y="129.03" width="70.0021" height="68.74" filterUnits="userSpaceOnUse" color-interpolation-filters="sRGB">
<feFlood flood-opacity="0" result="BackgroundImageFix"/>
<feBlend mode="normal" in="SourceGraphic" in2="BackgroundImageFix" result="shape"/>
<feColorMatrix in="SourceAlpha" type="matrix" values="0 0 0 0 0 0 0 0 0 0 0 0 0 0 0 0 0 0 127 0" result="hardAlpha"/>
<feMorphology radius="3.12538" operator="erode" in="SourceAlpha" result="effect1_innerShadow_2_1242"/>
<feOffset dx="8.20413" dy="5.07875"/>
<feGaussianBlur stdDeviation="9.37615"/>
<feComposite in2="hardAlpha" operator="arithmetic" k2="-1" k3="1"/>
<feColorMatrix type="matrix" values="0 0 0 0 0.682806 0 0 0 0 0.0652778 0 0 0 0 0.783333 0 0 0 0.14 0"/>
<feBlend mode="normal" in2="shape" result="effect1_innerShadow_2_1242"/>
<feColorMatrix in="SourceAlpha" type="matrix" values="0 0 0 0 0 0 0 0 0 0 0 0 0 0 0 0 0 0 127 0" result="hardAlpha"/>
<feOffset dy="-7.03211"/>
<feGaussianBlur stdDeviation="6.05543"/>
<feComposite in2="hardAlpha" operator="arithmetic" k2="-1" k3="1"/>
<feColorMatrix type="matrix" values="0 0 0 0 0.943639 0 0 0 0 0.223611 0 0 0 0 0.958333 0 0 0 0.44 0"/>
<feBlend mode="normal" in2="effect1_innerShadow_2_1242" result="effect2_innerShadow_2_1242"/>
<feColorMatrix in="SourceAlpha" type="matrix" values="0 0 0 0 0 0 0 0 0 0 0 0 0 0 0 0 0 0 127 0" result="hardAlpha"/>
<feOffset dx="-4.2974" dy="6.25077"/>
<feGaussianBlur stdDeviation="6.05543"/>
<feComposite in2="hardAlpha" operator="arithmetic" k2="-1" k3="1"/>
<feColorMatrix type="matrix" values="0 0 0 0 1 0 0 0 0 1 0 0 0 0 1 0 0 0 0.59 0"/>
<feBlend mode="normal" in2="effect2_innerShadow_2_1242" result="effect3_innerShadow_2_1242"/>
</filter>
<filter id="filter10_iii_2_1242" x="98.3202" y="149.203" width="55.2368" height="54.8653" filterUnits="userSpaceOnUse" color-interpolation-filters="sRGB">
<feFlood flood-opacity="0" result="BackgroundImageFix"/>
<feBlend mode="normal" in="SourceGraphic" in2="BackgroundImageFix" result="shape"/>
<feColorMatrix in="SourceAlpha" type="matrix" values="0 0 0 0 0 0 0 0 0 0 0 0 0 0 0 0 0 0 127 0" result="hardAlpha"/>
<feMorphology radius="3.12538" operator="erode" in="SourceAlpha" result="effect1_innerShadow_2_1242"/>
<feOffset dx="8.20413" dy="5.07875"/>
<feGaussianBlur stdDeviation="9.37615"/>
<feComposite in2="hardAlpha" operator="arithmetic" k2="-1" k3="1"/>
<feColorMatrix type="matrix" values="0 0 0 0 0.682806 0 0 0 0 0.0652778 0 0 0 0 0.783333 0 0 0 0.14 0"/>
<feBlend mode="normal" in2="shape" result="effect1_innerShadow_2_1242"/>
<feColorMatrix in="SourceAlpha" type="matrix" values="0 0 0 0 0 0 0 0 0 0 0 0 0 0 0 0 0 0 127 0" result="hardAlpha"/>
<feOffset dy="-7.03211"/>
<feGaussianBlur stdDeviation="6.05543"/>
<feComposite in2="hardAlpha" operator="arithmetic" k2="-1" k3="1"/>
<feColorMatrix type="matrix" values="0 0 0 0 0.943639 0 0 0 0 0.223611 0 0 0 0 0.958333 0 0 0 0.44 0"/>
<feBlend mode="normal" in2="effect1_innerShadow_2_1242" result="effect2_innerShadow_2_1242"/>
<feColorMatrix in="SourceAlpha" type="matrix" values="0 0 0 0 0 0 0 0 0 0 0 0 0 0 0 0 0 0 127 0" result="hardAlpha"/>
<feOffset dx="-4.2974" dy="6.25077"/>
<feGaussianBlur stdDeviation="6.05543"/>
<feComposite in2="hardAlpha" operator="arithmetic" k2="-1" k3="1"/>
<feColorMatrix type="matrix" values="0 0 0 0 1 0 0 0 0 1 0 0 0 0 1 0 0 0 0.59 0"/>
<feBlend mode="normal" in2="effect2_innerShadow_2_1242" result="effect3_innerShadow_2_1242"/>
</filter>
<filter id="filter11_iii_2_1242" x="76.9343" y="176.088" width="81.0275" height="51.126" filterUnits="userSpaceOnUse" color-interpolation-filters="sRGB">
<feFlood flood-opacity="0" result="BackgroundImageFix"/>
<feBlend mode="normal" in="SourceGraphic" in2="BackgroundImageFix" result="shape"/>
<feColorMatrix in="SourceAlpha" type="matrix" values="0 0 0 0 0 0 0 0 0 0 0 0 0 0 0 0 0 0 127 0" result="hardAlpha"/>
<feMorphology radius="3.12538" operator="erode" in="SourceAlpha" result="effect1_innerShadow_2_1242"/>
<feOffset dx="8.20413" dy="5.07875"/>
<feGaussianBlur stdDeviation="9.37615"/>
<feComposite in2="hardAlpha" operator="arithmetic" k2="-1" k3="1"/>
<feColorMatrix type="matrix" values="0 0 0 0 0.682806 0 0 0 0 0.0652778 0 0 0 0 0.783333 0 0 0 0.14 0"/>
<feBlend mode="normal" in2="shape" result="effect1_innerShadow_2_1242"/>
<feColorMatrix in="SourceAlpha" type="matrix" values="0 0 0 0 0 0 0 0 0 0 0 0 0 0 0 0 0 0 127 0" result="hardAlpha"/>
<feOffset dy="-7.03211"/>
<feGaussianBlur stdDeviation="6.05543"/>
<feComposite in2="hardAlpha" operator="arithmetic" k2="-1" k3="1"/>
<feColorMatrix type="matrix" values="0 0 0 0 0.943639 0 0 0 0 0.223611 0 0 0 0 0.958333 0 0 0 0.44 0"/>
<feBlend mode="normal" in2="effect1_innerShadow_2_1242" result="effect2_innerShadow_2_1242"/>
<feColorMatrix in="SourceAlpha" type="matrix" values="0 0 0 0 0 0 0 0 0 0 0 0 0 0 0 0 0 0 127 0" result="hardAlpha"/>
<feOffset dx="-4.2974" dy="6.25077"/>
<feGaussianBlur stdDeviation="6.05543"/>
<feComposite in2="hardAlpha" operator="arithmetic" k2="-1" k3="1"/>
<feColorMatrix type="matrix" values="0 0 0 0 1 0 0 0 0 1 0 0 0 0 1 0 0 0 0.59 0"/>
<feBlend mode="normal" in2="effect2_innerShadow_2_1242" result="effect3_innerShadow_2_1242"/>
</filter>
<filter id="filter12_ii_2_1242" x="39.6467" y="143.838" width="89.1632" height="88.2776" filterUnits="userSpaceOnUse" color-interpolation-filters="sRGB">
<feFlood flood-opacity="0" result="BackgroundImageFix"/>
<feBlend mode="normal" in="SourceGraphic" in2="BackgroundImageFix" result="shape"/>
<feColorMatrix in="SourceAlpha" type="matrix" values="0 0 0 0 0 0 0 0 0 0 0 0 0 0 0 0 0 0 127 0" result="hardAlpha"/>
<feOffset dx="8.20413" dy="5.07875"/>
<feGaussianBlur stdDeviation="9.37615"/>
<feComposite in2="hardAlpha" operator="arithmetic" k2="-1" k3="1"/>
<feColorMatrix type="matrix" values="0 0 0 0 0.682806 0 0 0 0 0.0652778 0 0 0 0 0.783333 0 0 0 0.14 0"/>
<feBlend mode="normal" in2="shape" result="effect1_innerShadow_2_1242"/>
<feColorMatrix in="SourceAlpha" type="matrix" values="0 0 0 0 0 0 0 0 0 0 0 0 0 0 0 0 0 0 127 0" result="hardAlpha"/>
<feOffset dy="-7.03211"/>
<feGaussianBlur stdDeviation="6.05543"/>
<feComposite in2="hardAlpha" operator="arithmetic" k2="-1" k3="1"/>
<feColorMatrix type="matrix" values="0 0 0 0 0.943639 0 0 0 0 0.223611 0 0 0 0 0.958333 0 0 0 0.44 0"/>
<feBlend mode="normal" in2="effect1_innerShadow_2_1242" result="effect2_innerShadow_2_1242"/>
</filter>
<radialGradient id="paint0_radial_2_1242" cx="0" cy="0" r="1" gradientUnits="userSpaceOnUse" gradientTransform="translate(109 16) rotate(86.5167) scale(230.426)">
<stop stop-color="#FFBB0C"/>
<stop offset="1" stop-color="#FFC907"/>
</radialGradient>
<linearGradient id="paint1_linear_2_1242" x1="123.5" y1="52" x2="123.5" y2="173" gradientUnits="userSpaceOnUse">
<stop stop-color="#201721"/>
<stop offset="1" stop-color="#2B1F2C"/>
</linearGradient>
<radialGradient id="paint2_radial_2_1242" cx="0" cy="0" r="1" gradientUnits="userSpaceOnUse" gradientTransform="translate(101.237 161.804) rotate(-121.818) scale(17.2676 55.4877)">
<stop stop-color="#FFBB0C"/>
<stop offset="1" stop-color="#FFC907"/>
</radialGradient>
<radialGradient id="paint3_radial_2_1242" cx="0" cy="0" r="1" gradientUnits="userSpaceOnUse" gradientTransform="translate(81.45 156.189) rotate(-130.835) scale(17.6198 48.4524)">
<stop stop-color="#FFBB0C"/>
<stop offset="1" stop-color="#FFC907"/>
</radialGradient>
<radialGradient id="paint4_radial_2_1242" cx="0" cy="0" r="1" gradientUnits="userSpaceOnUse" gradientTransform="translate(114.309 172.284) rotate(-119.603) scale(17.4172 66.0134)">
<stop stop-color="#FFBB0C"/>
<stop offset="1" stop-color="#FFC907"/>
</radialGradient>
<radialGradient id="paint5_radial_2_1242" cx="0" cy="0" r="1" gradientUnits="userSpaceOnUse" gradientTransform="translate(127.305 184.867) rotate(-123.621) scale(17.6063 48.0562)">
<stop stop-color="#FFBB0C"/>
<stop offset="1" stop-color="#FFC907"/>
</radialGradient>
<radialGradient id="paint6_radial_2_1242" cx="0" cy="0" r="1" gradientUnits="userSpaceOnUse" gradientTransform="translate(114.411 212.782) rotate(-95.7632) scale(21.8864 65.2272)">
<stop stop-color="#FFBB0C"/>
<stop offset="1" stop-color="#FFC907"/>
</radialGradient>
<radialGradient id="paint7_radial_2_1242" cx="0" cy="0" r="1" gradientUnits="userSpaceOnUse" gradientTransform="translate(94.2348 224.808) rotate(-130.306) scale(84.5818 72.4299)">
<stop stop-color="#FFBB0C"/>
<stop offset="1" stop-color="#FAD553"/>
</radialGradient>
<clipPath id="clip0_2_1242">
<rect width="246" height="246" fill="white"/>
</clipPath>
<clipPath id="clip1_2_1242">
<rect width="141.784" height="141.784" fill="white" transform="matrix(-0.685657 -0.727925 -0.727925 0.685657 192.423 183.208)"/>
</clipPath>
</defs>
</svg>
