<svg width="247" height="246" viewBox="0 0 247 246" fill="none" xmlns="http://www.w3.org/2000/svg">
<g clip-path="url(#clip0_2_1130)">
<path d="M22.6031 139.354C9.19859 133.988 9.1986 115.012 22.6031 109.646L25.6578 108.423C34.9896 104.687 38.6056 93.3731 33.1702 84.9175L31.9951 83.0895C24.4099 71.2897 34.6002 56.1357 48.3896 58.7093L57.5773 60.424C66.6578 62.1188 75.2829 55.7938 76.3961 46.6239L77.2806 39.3383C78.8813 26.1537 94.9208 20.5468 104.387 29.8628L112.777 38.1199C119.004 44.2483 128.996 44.2483 135.223 38.1199L143.613 29.8628C153.079 20.5468 169.119 26.1536 170.719 39.3383L171.604 46.6239C172.717 55.7938 181.342 62.1188 190.423 60.424L199.61 58.7092C213.4 56.1357 223.59 71.2897 216.005 83.0895L214.83 84.9175C209.394 93.3731 213.01 104.687 222.342 108.423L225.397 109.646C238.801 115.012 238.801 133.988 225.397 139.354L222.342 140.577C213.01 144.313 209.394 155.627 214.83 164.082L216.005 165.911C223.59 177.71 213.4 192.864 199.61 190.291L190.423 188.576C181.342 186.881 172.717 193.206 171.604 202.376L170.719 209.662C169.119 222.846 153.079 228.453 143.613 219.137L135.223 210.88C128.996 204.752 119.004 204.752 112.777 210.88L104.387 219.137C94.9208 228.453 78.8813 222.846 77.2806 209.662L76.3961 202.376C75.2829 193.206 66.6578 186.881 57.5773 188.576L48.3896 190.291C34.6002 192.864 24.4099 177.71 31.9951 165.911L33.1702 164.082C38.6056 155.627 34.9896 144.313 25.6578 140.577L22.6031 139.354Z" fill="#C4C4C4"/>
<path d="M22.6031 139.354C9.19859 133.988 9.1986 115.012 22.6031 109.646L25.6578 108.423C34.9896 104.687 38.6056 93.3731 33.1702 84.9175L31.9951 83.0895C24.4099 71.2897 34.6002 56.1357 48.3896 58.7093L57.5773 60.424C66.6578 62.1188 75.2829 55.7938 76.3961 46.6239L77.2806 39.3383C78.8813 26.1537 94.9208 20.5468 104.387 29.8628L112.777 38.1199C119.004 44.2483 128.996 44.2483 135.223 38.1199L143.613 29.8628C153.079 20.5468 169.119 26.1536 170.719 39.3383L171.604 46.6239C172.717 55.7938 181.342 62.1188 190.423 60.424L199.61 58.7092C213.4 56.1357 223.59 71.2897 216.005 83.0895L214.83 84.9175C209.394 93.3731 213.01 104.687 222.342 108.423L225.397 109.646C238.801 115.012 238.801 133.988 225.397 139.354L222.342 140.577C213.01 144.313 209.394 155.627 214.83 164.082L216.005 165.911C223.59 177.71 213.4 192.864 199.61 190.291L190.423 188.576C181.342 186.881 172.717 193.206 171.604 202.376L170.719 209.662C169.119 222.846 153.079 228.453 143.613 219.137L135.223 210.88C128.996 204.752 119.004 204.752 112.777 210.88L104.387 219.137C94.9208 228.453 78.8813 222.846 77.2806 209.662L76.3961 202.376C75.2829 193.206 66.6578 186.881 57.5773 188.576L48.3896 190.291C34.6002 192.864 24.4099 177.71 31.9951 165.911L33.1702 164.082C38.6056 155.627 34.9896 144.313 25.6578 140.577L22.6031 139.354Z" fill="url(#paint0_radial_2_1130)"/>
<g filter="url(#filter0_iii_2_1130)">
<rect x="84.5" y="39" width="78" height="153" fill="url(#paint1_linear_2_1130)"/>
</g>
<g filter="url(#filter1_iii_2_1130)">
<path d="M123.5 246H127.5C193.222 246 246.5 192.722 246.5 127V121C246.5 108.85 236.65 99 224.5 99H22.5C10.3497 99 0.5 108.85 0.5 121V123C0.5 190.931 55.569 246 123.5 246Z" fill="url(#paint2_radial_2_1130)"/>
</g>
<g filter="url(#filter2_iii_2_1130)">
<circle cx="52" cy="74.5" r="15.5" fill="url(#paint3_radial_2_1130)"/>
</g>
<g filter="url(#filter3_iii_2_1130)">
<path d="M187.556 13.8923C188.017 8.52351 194.118 5.6674 198.537 8.75134L214.871 20.1509C219.289 23.2348 218.713 29.9459 213.833 32.2307L195.793 40.6766C190.913 42.9615 185.389 39.1066 185.851 33.7378L187.556 13.8923Z" fill="url(#paint4_radial_2_1130)"/>
</g>
<g filter="url(#filter4_d_2_1130)">
<g filter="url(#filter5_i_2_1130)">
<circle cx="81" cy="141.5" r="35.5" fill="#FAFAFA"/>
</g>
<g filter="url(#filter6_i_2_1130)">
<rect x="62.1171" y="122.617" width="37.7471" height="37.7471" rx="18.8736" fill="#2C2F36"/>
</g>
</g>
<g filter="url(#filter7_d_2_1130)">
<g filter="url(#filter8_i_2_1130)">
<circle cx="167" cy="141.5" r="35.5" fill="#FAFAFA"/>
</g>
<g filter="url(#filter9_i_2_1130)">
<rect x="148.117" y="122.617" width="37.7471" height="37.7471" rx="18.8736" fill="#2C2F36"/>
</g>
</g>
<g filter="url(#filter10_diiii_2_1130)">
<path d="M165.5 222.5C165.5 211.494 161.128 200.938 153.345 193.155C145.562 185.372 135.006 181 124 181C112.994 181 102.438 185.372 94.6551 193.155C86.8723 200.938 82.5 211.494 82.5 222.5L124 222.5H165.5Z" fill="url(#paint5_linear_2_1130)"/>
</g>
<g clip-path="url(#clip1_2_1130)">
<g filter="url(#filter11_iii_2_1130)">
<path fill-rule="evenodd" clip-rule="evenodd" d="M184.5 47.5C184.5 29.5785 170.846 14.7588 153.104 12.3443C147.699 5.43182 139.359 1 130 1C117.134 1 106.193 9.37545 102.159 21.0573C99.719 20.368 97.151 20 94.5 20C78.4837 20 65.5 33.4315 65.5 50C65.5 68.2254 80.2746 83 98.5 83H124H148H151.775L151.968 82.7926C170.26 80.8691 184.5 65.802 184.5 47.5Z" fill="url(#paint6_linear_2_1130)"/>
</g>
</g>
</g>
<defs>
<filter id="filter0_iii_2_1130" x="84.5" y="36.9254" width="80.0359" height="158.187" filterUnits="userSpaceOnUse" color-interpolation-filters="sRGB">
<feFlood flood-opacity="0" result="BackgroundImageFix"/>
<feBlend mode="normal" in="SourceGraphic" in2="BackgroundImageFix" result="shape"/>
<feColorMatrix in="SourceAlpha" type="matrix" values="0 0 0 0 0 0 0 0 0 0 0 0 0 0 0 0 0 0 127 0" result="hardAlpha"/>
<feOffset dy="-2.07462"/>
<feGaussianBlur stdDeviation="3.72907"/>
<feComposite in2="hardAlpha" operator="arithmetic" k2="-1" k3="1"/>
<feColorMatrix type="matrix" values="0 0 0 0 0.31125 0 0 0 0 0.440775 0 0 0 0 0.9 0 0 0 0.36 0"/>
<feBlend mode="normal" in2="shape" result="effect1_innerShadow_2_1130"/>
<feColorMatrix in="SourceAlpha" type="matrix" values="0 0 0 0 0 0 0 0 0 0 0 0 0 0 0 0 0 0 127 0" result="hardAlpha"/>
<feOffset dx="2.03585" dy="3.11192"/>
<feGaussianBlur stdDeviation="4.75033"/>
<feComposite in2="hardAlpha" operator="arithmetic" k2="-1" k3="1"/>
<feColorMatrix type="matrix" values="0 0 0 0 0.9125 0 0 0 0 0.171094 0 0 0 0 0.615938 0 0 0 0.15 0"/>
<feBlend mode="normal" in2="effect1_innerShadow_2_1130" result="effect2_innerShadow_2_1130"/>
<feColorMatrix in="SourceAlpha" type="matrix" values="0 0 0 0 0 0 0 0 0 0 0 0 0 0 0 0 0 0 127 0" result="hardAlpha"/>
<feOffset dy="8.99"/>
<feGaussianBlur stdDeviation="1.06545"/>
<feComposite in2="hardAlpha" operator="arithmetic" k2="-1" k3="1"/>
<feColorMatrix type="matrix" values="0 0 0 0 1 0 0 0 0 1 0 0 0 0 1 0 0 0 0.25 0"/>
<feBlend mode="normal" in2="effect2_innerShadow_2_1130" result="effect3_innerShadow_2_1130"/>
</filter>
<filter id="filter1_iii_2_1130" x="-10.5" y="81" width="278" height="181" filterUnits="userSpaceOnUse" color-interpolation-filters="sRGB">
<feFlood flood-opacity="0" result="BackgroundImageFix"/>
<feBlend mode="normal" in="SourceGraphic" in2="BackgroundImageFix" result="shape"/>
<feColorMatrix in="SourceAlpha" type="matrix" values="0 0 0 0 0 0 0 0 0 0 0 0 0 0 0 0 0 0 127 0" result="hardAlpha"/>
<feOffset dx="21" dy="13"/>
<feGaussianBlur stdDeviation="24"/>
<feComposite in2="hardAlpha" operator="arithmetic" k2="-1" k3="1"/>
<feColorMatrix type="matrix" values="0 0 0 0 0.682806 0 0 0 0 0.0652778 0 0 0 0 0.783333 0 0 0 0.14 0"/>
<feBlend mode="normal" in2="shape" result="effect1_innerShadow_2_1130"/>
<feColorMatrix in="SourceAlpha" type="matrix" values="0 0 0 0 0 0 0 0 0 0 0 0 0 0 0 0 0 0 127 0" result="hardAlpha"/>
<feOffset dy="-18"/>
<feGaussianBlur stdDeviation="15.5"/>
<feComposite in2="hardAlpha" operator="arithmetic" k2="-1" k3="1"/>
<feColorMatrix type="matrix" values="0 0 0 0 0.943639 0 0 0 0 0.223611 0 0 0 0 0.958333 0 0 0 0.44 0"/>
<feBlend mode="normal" in2="effect1_innerShadow_2_1130" result="effect2_innerShadow_2_1130"/>
<feColorMatrix in="SourceAlpha" type="matrix" values="0 0 0 0 0 0 0 0 0 0 0 0 0 0 0 0 0 0 127 0" result="hardAlpha"/>
<feOffset dx="-11" dy="16"/>
<feGaussianBlur stdDeviation="15.5"/>
<feComposite in2="hardAlpha" operator="arithmetic" k2="-1" k3="1"/>
<feColorMatrix type="matrix" values="0 0 0 0 1 0 0 0 0 1 0 0 0 0 1 0 0 0 0.59 0"/>
<feBlend mode="normal" in2="effect2_innerShadow_2_1130" result="effect3_innerShadow_2_1130"/>
</filter>
<filter id="filter2_iii_2_1130" x="30.9319" y="49" width="47.7044" height="41" filterUnits="userSpaceOnUse" color-interpolation-filters="sRGB">
<feFlood flood-opacity="0" result="BackgroundImageFix"/>
<feBlend mode="normal" in="SourceGraphic" in2="BackgroundImageFix" result="shape"/>
<feColorMatrix in="SourceAlpha" type="matrix" values="0 0 0 0 0 0 0 0 0 0 0 0 0 0 0 0 0 0 127 0" result="hardAlpha"/>
<feOffset dx="11.1363" dy="-10"/>
<feGaussianBlur stdDeviation="6.06249"/>
<feComposite in2="hardAlpha" operator="arithmetic" k2="-1" k3="1"/>
<feColorMatrix type="matrix" values="0 0 0 0 0 0 0 0 0 0 0 0 0 0 0 0 0 0 0.25 0"/>
<feBlend mode="normal" in2="shape" result="effect1_innerShadow_2_1130"/>
<feColorMatrix in="SourceAlpha" type="matrix" values="0 0 0 0 0 0 0 0 0 0 0 0 0 0 0 0 0 0 127 0" result="hardAlpha"/>
<feOffset dx="-5.56814" dy="-3.34089"/>
<feGaussianBlur stdDeviation="7.23859"/>
<feComposite in2="hardAlpha" operator="arithmetic" k2="-1" k3="1"/>
<feColorMatrix type="matrix" values="0 0 0 0 1 0 0 0 0 1 0 0 0 0 1 0 0 0 0.29 0"/>
<feBlend mode="normal" in2="effect1_innerShadow_2_1130" result="effect2_innerShadow_2_1130"/>
<feColorMatrix in="SourceAlpha" type="matrix" values="0 0 0 0 0 0 0 0 0 0 0 0 0 0 0 0 0 0 127 0" result="hardAlpha"/>
<feOffset dy="-6"/>
<feGaussianBlur stdDeviation="6.06249"/>
<feComposite in2="hardAlpha" operator="arithmetic" k2="-1" k3="1"/>
<feColorMatrix type="matrix" values="0 0 0 0 0.841667 0 0 0 0 0.112222 0 0 0 0 0.112222 0 0 0 0.56 0"/>
<feBlend mode="normal" in2="effect2_innerShadow_2_1130" result="effect3_innerShadow_2_1130"/>
</filter>
<filter id="filter3_iii_2_1130" x="180.256" y="-2.51741" width="48.7457" height="43.8652" filterUnits="userSpaceOnUse" color-interpolation-filters="sRGB">
<feFlood flood-opacity="0" result="BackgroundImageFix"/>
<feBlend mode="normal" in="SourceGraphic" in2="BackgroundImageFix" result="shape"/>
<feColorMatrix in="SourceAlpha" type="matrix" values="0 0 0 0 0 0 0 0 0 0 0 0 0 0 0 0 0 0 127 0" result="hardAlpha"/>
<feOffset dx="11.1363" dy="-10"/>
<feGaussianBlur stdDeviation="6.06249"/>
<feComposite in2="hardAlpha" operator="arithmetic" k2="-1" k3="1"/>
<feColorMatrix type="matrix" values="0 0 0 0 0 0 0 0 0 0 0 0 0 0 0 0 0 0 0.25 0"/>
<feBlend mode="normal" in2="shape" result="effect1_innerShadow_2_1130"/>
<feColorMatrix in="SourceAlpha" type="matrix" values="0 0 0 0 0 0 0 0 0 0 0 0 0 0 0 0 0 0 127 0" result="hardAlpha"/>
<feOffset dx="-5.56814" dy="-3.34089"/>
<feGaussianBlur stdDeviation="7.23859"/>
<feComposite in2="hardAlpha" operator="arithmetic" k2="-1" k3="1"/>
<feColorMatrix type="matrix" values="0 0 0 0 1 0 0 0 0 1 0 0 0 0 1 0 0 0 0.29 0"/>
<feBlend mode="normal" in2="effect1_innerShadow_2_1130" result="effect2_innerShadow_2_1130"/>
<feColorMatrix in="SourceAlpha" type="matrix" values="0 0 0 0 0 0 0 0 0 0 0 0 0 0 0 0 0 0 127 0" result="hardAlpha"/>
<feOffset dy="-6"/>
<feGaussianBlur stdDeviation="6.06249"/>
<feComposite in2="hardAlpha" operator="arithmetic" k2="-1" k3="1"/>
<feColorMatrix type="matrix" values="0 0 0 0 0.841667 0 0 0 0 0.593655 0 0 0 0 0.112222 0 0 0 0.56 0"/>
<feBlend mode="normal" in2="effect2_innerShadow_2_1130" result="effect3_innerShadow_2_1130"/>
</filter>
<filter id="filter4_d_2_1130" x="31.1489" y="94.6702" width="99.7021" height="99.7021" filterUnits="userSpaceOnUse" color-interpolation-filters="sRGB">
<feFlood flood-opacity="0" result="BackgroundImageFix"/>
<feColorMatrix in="SourceAlpha" type="matrix" values="0 0 0 0 0 0 0 0 0 0 0 0 0 0 0 0 0 0 127 0" result="hardAlpha"/>
<feOffset dy="3.02128"/>
<feGaussianBlur stdDeviation="7.17553"/>
<feColorMatrix type="matrix" values="0 0 0 0 0 0 0 0 0 0 0 0 0 0 0 0 0 0 0.25 0"/>
<feBlend mode="normal" in2="BackgroundImageFix" result="effect1_dropShadow_2_1130"/>
<feBlend mode="normal" in="SourceGraphic" in2="effect1_dropShadow_2_1130" result="shape"/>
</filter>
<filter id="filter5_i_2_1130" x="45.5" y="102.45" width="71" height="74.55" filterUnits="userSpaceOnUse" color-interpolation-filters="sRGB">
<feFlood flood-opacity="0" result="BackgroundImageFix"/>
<feBlend mode="normal" in="SourceGraphic" in2="BackgroundImageFix" result="shape"/>
<feColorMatrix in="SourceAlpha" type="matrix" values="0 0 0 0 0 0 0 0 0 0 0 0 0 0 0 0 0 0 127 0" result="hardAlpha"/>
<feOffset dy="-3.55"/>
<feGaussianBlur stdDeviation="8.875"/>
<feComposite in2="hardAlpha" operator="arithmetic" k2="-1" k3="1"/>
<feColorMatrix type="matrix" values="0 0 0 0 0 0 0 0 0 0 0 0 0 0 0 0 0 0 0.25 0"/>
<feBlend mode="normal" in2="shape" result="effect1_innerShadow_2_1130"/>
</filter>
<filter id="filter6_i_2_1130" x="62.1171" y="122.617" width="37.7472" height="37.7471" filterUnits="userSpaceOnUse" color-interpolation-filters="sRGB">
<feFlood flood-opacity="0" result="BackgroundImageFix"/>
<feBlend mode="normal" in="SourceGraphic" in2="BackgroundImageFix" result="shape"/>
<feColorMatrix in="SourceAlpha" type="matrix" values="0 0 0 0 0 0 0 0 0 0 0 0 0 0 0 0 0 0 127 0" result="hardAlpha"/>
<feMorphology radius="31.2004" operator="dilate" in="SourceAlpha" result="effect1_innerShadow_2_1130"/>
<feOffset dx="10.8523" dy="-32.5569"/>
<feGaussianBlur stdDeviation="12.2088"/>
<feComposite in2="hardAlpha" operator="arithmetic" k2="-1" k3="1"/>
<feColorMatrix type="matrix" values="0 0 0 0 0.462111 0 0 0 0 0.203767 0 0 0 0 0.504167 0 0 0 0.35 0"/>
<feBlend mode="normal" in2="shape" result="effect1_innerShadow_2_1130"/>
</filter>
<filter id="filter7_d_2_1130" x="117.149" y="94.6702" width="99.7021" height="99.7021" filterUnits="userSpaceOnUse" color-interpolation-filters="sRGB">
<feFlood flood-opacity="0" result="BackgroundImageFix"/>
<feColorMatrix in="SourceAlpha" type="matrix" values="0 0 0 0 0 0 0 0 0 0 0 0 0 0 0 0 0 0 127 0" result="hardAlpha"/>
<feOffset dy="3.02128"/>
<feGaussianBlur stdDeviation="7.17553"/>
<feColorMatrix type="matrix" values="0 0 0 0 0 0 0 0 0 0 0 0 0 0 0 0 0 0 0.25 0"/>
<feBlend mode="normal" in2="BackgroundImageFix" result="effect1_dropShadow_2_1130"/>
<feBlend mode="normal" in="SourceGraphic" in2="effect1_dropShadow_2_1130" result="shape"/>
</filter>
<filter id="filter8_i_2_1130" x="131.5" y="102.45" width="71" height="74.55" filterUnits="userSpaceOnUse" color-interpolation-filters="sRGB">
<feFlood flood-opacity="0" result="BackgroundImageFix"/>
<feBlend mode="normal" in="SourceGraphic" in2="BackgroundImageFix" result="shape"/>
<feColorMatrix in="SourceAlpha" type="matrix" values="0 0 0 0 0 0 0 0 0 0 0 0 0 0 0 0 0 0 127 0" result="hardAlpha"/>
<feOffset dy="-3.55"/>
<feGaussianBlur stdDeviation="8.875"/>
<feComposite in2="hardAlpha" operator="arithmetic" k2="-1" k3="1"/>
<feColorMatrix type="matrix" values="0 0 0 0 0 0 0 0 0 0 0 0 0 0 0 0 0 0 0.25 0"/>
<feBlend mode="normal" in2="shape" result="effect1_innerShadow_2_1130"/>
</filter>
<filter id="filter9_i_2_1130" x="148.117" y="122.617" width="37.7472" height="37.7471" filterUnits="userSpaceOnUse" color-interpolation-filters="sRGB">
<feFlood flood-opacity="0" result="BackgroundImageFix"/>
<feBlend mode="normal" in="SourceGraphic" in2="BackgroundImageFix" result="shape"/>
<feColorMatrix in="SourceAlpha" type="matrix" values="0 0 0 0 0 0 0 0 0 0 0 0 0 0 0 0 0 0 127 0" result="hardAlpha"/>
<feMorphology radius="31.2004" operator="dilate" in="SourceAlpha" result="effect1_innerShadow_2_1130"/>
<feOffset dx="10.8523" dy="-32.5569"/>
<feGaussianBlur stdDeviation="12.2088"/>
<feComposite in2="hardAlpha" operator="arithmetic" k2="-1" k3="1"/>
<feColorMatrix type="matrix" values="0 0 0 0 0.462111 0 0 0 0 0.203767 0 0 0 0 0.504167 0 0 0 0.35 0"/>
<feBlend mode="normal" in2="shape" result="effect1_innerShadow_2_1130"/>
</filter>
<filter id="filter10_diiii_2_1130" x="49.1667" y="153.667" width="149.667" height="108.167" filterUnits="userSpaceOnUse" color-interpolation-filters="sRGB">
<feFlood flood-opacity="0" result="BackgroundImageFix"/>
<feColorMatrix in="SourceAlpha" type="matrix" values="0 0 0 0 0 0 0 0 0 0 0 0 0 0 0 0 0 0 127 0" result="hardAlpha"/>
<feOffset dy="6"/>
<feGaussianBlur stdDeviation="16.6667"/>
<feColorMatrix type="matrix" values="0 0 0 0 0.0298758 0 0 0 0 0.0216858 0 0 0 0 0.0308333 0 0 0 0.24 0"/>
<feBlend mode="normal" in2="BackgroundImageFix" result="effect1_dropShadow_2_1130"/>
<feBlend mode="normal" in="SourceGraphic" in2="effect1_dropShadow_2_1130" result="shape"/>
<feColorMatrix in="SourceAlpha" type="matrix" values="0 0 0 0 0 0 0 0 0 0 0 0 0 0 0 0 0 0 127 0" result="hardAlpha"/>
<feOffset dy="-34"/>
<feGaussianBlur stdDeviation="2.59259"/>
<feComposite in2="hardAlpha" operator="arithmetic" k2="-1" k3="1"/>
<feColorMatrix type="matrix" values="0 0 0 0 0.17328 0 0 0 0 0.125777 0 0 0 0 0.178833 0 0 0 1 0"/>
<feBlend mode="normal" in2="shape" result="effect2_innerShadow_2_1130"/>
<feColorMatrix in="SourceAlpha" type="matrix" values="0 0 0 0 0 0 0 0 0 0 0 0 0 0 0 0 0 0 127 0" result="hardAlpha"/>
<feOffset dy="-40"/>
<feGaussianBlur stdDeviation="1.2963"/>
<feComposite in2="hardAlpha" operator="arithmetic" k2="-1" k3="1"/>
<feColorMatrix type="matrix" values="0 0 0 0 0.119503 0 0 0 0 0.086743 0 0 0 0 0.123333 0 0 0 1 0"/>
<feBlend mode="normal" in2="effect2_innerShadow_2_1130" result="effect3_innerShadow_2_1130"/>
<feColorMatrix in="SourceAlpha" type="matrix" values="0 0 0 0 0 0 0 0 0 0 0 0 0 0 0 0 0 0 127 0" result="hardAlpha"/>
<feMorphology radius="26.45" operator="dilate" in="SourceAlpha" result="effect4_innerShadow_2_1130"/>
<feOffset dx="9.2" dy="-13"/>
<feGaussianBlur stdDeviation="10.35"/>
<feComposite in2="hardAlpha" operator="arithmetic" k2="-1" k3="1"/>
<feColorMatrix type="matrix" values="0 0 0 0 0.462111 0 0 0 0 0.203767 0 0 0 0 0.504167 0 0 0 0.35 0"/>
<feBlend mode="normal" in2="effect3_innerShadow_2_1130" result="effect4_innerShadow_2_1130"/>
<feColorMatrix in="SourceAlpha" type="matrix" values="0 0 0 0 0 0 0 0 0 0 0 0 0 0 0 0 0 0 127 0" result="hardAlpha"/>
<feMorphology radius="26.45" operator="dilate" in="SourceAlpha" result="effect5_innerShadow_2_1130"/>
<feOffset dx="9.2" dy="-31"/>
<feGaussianBlur stdDeviation="10.35"/>
<feComposite in2="hardAlpha" operator="arithmetic" k2="-1" k3="1"/>
<feColorMatrix type="matrix" values="0 0 0 0 0.462111 0 0 0 0 0.203767 0 0 0 0 0.504167 0 0 0 0.35 0"/>
<feBlend mode="normal" in2="effect4_innerShadow_2_1130" result="effect5_innerShadow_2_1130"/>
</filter>
<filter id="filter11_iii_2_1130" x="65.5" y="-2.82353" width="122.752" height="91.5588" filterUnits="userSpaceOnUse" color-interpolation-filters="sRGB">
<feFlood flood-opacity="0" result="BackgroundImageFix"/>
<feBlend mode="normal" in="SourceGraphic" in2="BackgroundImageFix" result="shape"/>
<feColorMatrix in="SourceAlpha" type="matrix" values="0 0 0 0 0 0 0 0 0 0 0 0 0 0 0 0 0 0 127 0" result="hardAlpha"/>
<feOffset dy="-3.82353"/>
<feGaussianBlur stdDeviation="6.87271"/>
<feComposite in2="hardAlpha" operator="arithmetic" k2="-1" k3="1"/>
<feColorMatrix type="matrix" values="0 0 0 0 0.31125 0 0 0 0 0.440775 0 0 0 0 0.9 0 0 0 0.36 0"/>
<feBlend mode="normal" in2="shape" result="effect1_innerShadow_2_1130"/>
<feColorMatrix in="SourceAlpha" type="matrix" values="0 0 0 0 0 0 0 0 0 0 0 0 0 0 0 0 0 0 127 0" result="hardAlpha"/>
<feOffset dx="3.75209" dy="5.73529"/>
<feGaussianBlur stdDeviation="8.75488"/>
<feComposite in2="hardAlpha" operator="arithmetic" k2="-1" k3="1"/>
<feColorMatrix type="matrix" values="0 0 0 0 0.9125 0 0 0 0 0.171094 0 0 0 0 0.615938 0 0 0 0.15 0"/>
<feBlend mode="normal" in2="effect1_innerShadow_2_1130" result="effect2_innerShadow_2_1130"/>
<feColorMatrix in="SourceAlpha" type="matrix" values="0 0 0 0 0 0 0 0 0 0 0 0 0 0 0 0 0 0 127 0" result="hardAlpha"/>
<feOffset dy="16.5686"/>
<feGaussianBlur stdDeviation="1.96363"/>
<feComposite in2="hardAlpha" operator="arithmetic" k2="-1" k3="1"/>
<feColorMatrix type="matrix" values="0 0 0 0 1 0 0 0 0 1 0 0 0 0 1 0 0 0 0.25 0"/>
<feBlend mode="normal" in2="effect2_innerShadow_2_1130" result="effect3_innerShadow_2_1130"/>
</filter>
<radialGradient id="paint0_radial_2_1130" cx="0" cy="0" r="1" gradientUnits="userSpaceOnUse" gradientTransform="translate(3.51626 138.557) rotate(-3.10681) scale(259.365 231.45)">
<stop stop-color="#FF290C"/>
<stop offset="1" stop-color="#FF6107"/>
</radialGradient>
<linearGradient id="paint1_linear_2_1130" x1="103.533" y1="69.6" x2="103.533" y2="192" gradientUnits="userSpaceOnUse">
<stop stop-color="#E9E9E9"/>
<stop offset="1" stop-color="#898989"/>
</linearGradient>
<radialGradient id="paint2_radial_2_1130" cx="0" cy="0" r="1" gradientUnits="userSpaceOnUse" gradientTransform="translate(109.5 108.561) rotate(84.1837) scale(138.15 229.664)">
<stop stop-color="#FFBB0C"/>
<stop offset="1" stop-color="#FFC907"/>
</radialGradient>
<radialGradient id="paint3_radial_2_1130" cx="0" cy="0" r="1" gradientUnits="userSpaceOnUse" gradientTransform="translate(51.5 62) rotate(88.977) scale(28.0045)">
<stop stop-color="#1CFFC8"/>
<stop offset="1" stop-color="#3ADBD1"/>
</radialGradient>
<radialGradient id="paint4_radial_2_1130" cx="0" cy="0" r="1" gradientUnits="userSpaceOnUse" gradientTransform="translate(198.907 17.4066) rotate(69.7077) scale(32.6186 32.6186)">
<stop stop-color="#FF03B8"/>
<stop offset="1" stop-color="#FF007A"/>
</radialGradient>
<linearGradient id="paint5_linear_2_1130" x1="124" y1="181" x2="124" y2="264" gradientUnits="userSpaceOnUse">
<stop stop-color="#201721"/>
<stop offset="1" stop-color="#2B1F2C"/>
</linearGradient>
<linearGradient id="paint6_linear_2_1130" x1="97.2225" y1="16.5686" x2="97.2225" y2="82.8431" gradientUnits="userSpaceOnUse">
<stop stop-color="white"/>
<stop offset="1" stop-color="#EEEEEE"/>
</linearGradient>
<clipPath id="clip0_2_1130">
<rect width="246" height="246" fill="white" transform="translate(0.5)"/>
</clipPath>
<clipPath id="clip1_2_1130">
<rect width="130" height="82.8431" fill="white" transform="translate(65.5)"/>
</clipPath>
</defs>
</svg>
